<svg width="61" height="50" viewBox="0 0 61 50" fill="none" xmlns="http://www.w3.org/2000/svg">
<mask id="mask0_510_8434" style="mask-type:luminance" maskUnits="userSpaceOnUse" x="4" y="0" width="34" height="50">
<path d="M15.7041 1.12928C15.7511 1.72333 15.7688 2.31737 15.7805 2.91142C15.8158 4.65239 15.8629 6.39336 15.8511 8.13434C15.8452 9.19892 15.3217 9.72827 14.1748 9.51653C13.0044 9.29891 11.828 9.12246 10.6458 8.97541C6.36398 8.4343 7.10507 7.84614 5.03472 12.2044C4.78769 12.7279 4.83475 13.3984 4.74652 13.9984C5.35821 13.9454 5.97579 13.8984 6.58748 13.8454C9.08131 13.6396 11.5751 13.4043 14.0748 13.2337C15.1394 13.1632 15.6688 13.7807 15.6746 14.8453C15.6805 16.4451 15.7041 18.0449 15.7041 19.6447C15.7041 26.3381 15.7276 33.0255 15.6864 39.7189C15.6746 41.5892 15.6864 43.5008 15.3335 45.3241C14.6571 48.8001 15.11 49.4118 18.6802 49.0236C19.1801 48.9707 19.6742 48.8531 20.1565 48.7178C20.9976 48.4766 21.3387 47.9238 21.1211 47.0474C19.9389 42.248 20.3329 37.3956 20.827 32.5668C20.9329 31.5375 21.6269 30.3905 22.3856 29.6377C24.3736 27.6614 26.8145 27.0968 29.4671 28.2202C32.0315 29.3024 32.8844 31.5375 32.7373 34.0489C32.4727 38.6131 32.0257 43.1655 31.514 47.712C31.3846 48.8884 31.6198 49.5236 32.755 49.6471C34.1078 49.7941 35.4782 49.8588 36.8427 49.8765C37.6838 49.8882 37.8015 49.3883 37.7426 48.5825C37.5309 45.624 37.3721 42.6597 37.3368 39.7012C37.3133 37.7367 37.5603 35.7664 37.6603 33.8019C37.7956 31.1257 37.325 28.6084 35.737 26.3616C33.4431 23.1149 30.5317 21.7563 27.1262 22.7738C25.2676 23.3267 23.562 24.3854 21.8033 25.25C21.3799 25.4558 21.0093 25.7852 20.2565 26.3087C20.2565 22.0503 20.2329 18.1861 20.2741 14.3218C20.2859 13.4572 21.0034 13.3631 21.6975 13.4514C23.1091 13.6219 24.5148 13.816 25.9205 14.016C28.1791 14.3336 29.7377 13.4612 30.5964 11.3987C30.7552 11.0046 30.7611 10.5517 30.8376 10.1223C30.367 10.0518 29.8965 9.9106 29.426 9.91648C26.9557 9.94001 24.4854 10.087 22.0151 10.0224C20.2094 9.9753 20.0506 9.62828 20.3388 7.78144C20.6447 5.78755 20.927 3.79367 21.2152 1.79979C21.3269 1.02929 21.1446 0.3529 20.2859 0.235266C19.1154 0.0823433 17.9273 0.03529 16.7392 0C16.7216 0 16.7039 0 16.6863 0C16.0099 0 15.6511 0.38819 15.7041 1.12928Z" fill="white"/>
</mask>
<g mask="url(#mask0_510_8434)">
<path d="M37.8132 0H4.75238V49.8941H37.8132V0Z" fill="url(#paint0_linear_510_8434)"/>
</g>
<mask id="mask1_510_8434" style="mask-type:luminance" maskUnits="userSpaceOnUse" x="42" y="21" width="18" height="29">
<path d="M45.1947 23.6737C41.2363 26.1381 41.5128 31.014 43.5419 33.649C45.177 35.7781 47.3709 36.9427 49.9471 37.6191C51.3293 37.9838 52.7585 38.5425 53.8995 39.3777C55.5758 40.6011 55.5052 42.7597 53.9466 44.1301C51.394 46.371 47.5885 47.6767 45.3182 44.0007C45.2711 43.9242 45.1947 43.8713 45.1241 43.8066C44.0242 42.7714 43.0361 42.9126 42.6832 44.3536C42.3538 45.7064 42.4009 47.1533 42.3185 48.559C42.2597 49.5471 42.7714 49.9529 43.7478 49.9294C45.1182 49.8941 46.4945 49.9177 47.8708 49.9177V49.9882C48.9237 49.9882 49.9765 49.9941 51.0293 49.9882C55.1465 49.9588 58.1814 47.6591 58.9636 43.589C60.1223 37.5309 58.799 36.3428 54.6112 34.3018C52.6409 33.3431 50.6117 32.4668 48.7296 31.3493C46.8886 30.2611 46.8827 28.1555 48.5531 26.791C50.5235 25.1794 52.6526 25.0912 54.7465 26.5675C55.27 26.938 55.7346 27.385 56.2287 27.7908C57.2286 28.6084 57.8755 28.5319 58.6696 27.5732C59.5283 26.5322 59.5048 25.4794 58.7637 24.4265C57.6873 22.8973 56.211 21.9386 54.3583 21.6327C53.6643 21.5151 52.982 21.4622 52.3174 21.4622C49.7941 21.4622 47.4474 22.2621 45.1947 23.6619" fill="white"/>
</mask>
<g mask="url(#mask1_510_8434)">
<path d="M60.1223 21.4681H41.2363V49.9941H60.1223V21.4681Z" fill="url(#paint1_linear_510_8434)"/>
</g>
<mask id="mask2_510_8434" style="mask-type:luminance" maskUnits="userSpaceOnUse" x="0" y="22" width="9" height="28">
<path d="M1.72332 22.0386C1.16457 22.0798 0.417595 22.4915 0.176447 22.9502C0.00587857 23.2855 0.388187 24.2913 0.764613 24.4618C2.72321 25.35 3.2055 27.0027 3.21727 28.8613C3.25256 33.302 3.28196 37.7544 3.12904 42.195C3.07022 43.9007 2.45265 45.5829 2.19974 47.2886C2.1468 47.6591 2.52911 48.4061 2.79967 48.4531C4.49947 48.7531 6.22279 48.9648 7.94612 49.0825C8.75191 49.1354 8.89895 48.6178 8.61663 47.8708C8.35196 47.1709 8.08728 46.4122 8.08728 45.677C8.04611 39.2601 8.06375 32.8491 8.06375 26.4322C8.15786 26.4322 8.25197 26.4322 8.34019 26.4322C8.28138 25.6558 8.22844 24.8794 8.15198 24.103C7.96377 22.1503 7.71085 21.9974 5.74638 22.0856C5.12881 22.115 4.49947 22.0856 3.87601 22.0562C3.42312 22.0327 2.97612 22.0151 2.52323 22.0151C2.25267 22.0151 1.98212 22.0209 1.71156 22.0445" fill="white"/>
</mask>
<g mask="url(#mask2_510_8434)">
<path d="M8.90484 21.9974H0V49.1413H8.90484V21.9974Z" fill="url(#paint2_linear_510_8434)"/>
</g>
<mask id="mask3_510_8434" style="mask-type:luminance" maskUnits="userSpaceOnUse" x="22" y="38" width="9" height="7">
<path d="M24.8912 39.8071C24.8618 39.7718 24.703 39.4365 24.4383 39.3189C23.9854 39.113 23.3855 38.8307 23.0032 38.9836C22.5973 39.1483 22.1915 39.7424 22.1091 40.207C21.9209 41.2187 24.3089 44.1536 25.3382 44.336C27.2556 44.683 30.3905 42.6538 30.7964 40.7187C30.8846 40.3011 30.7493 39.5895 30.4611 39.4012C30.1611 39.2072 29.4436 39.3307 29.1083 39.5777C28.6201 39.9365 28.3025 40.5364 28.0908 40.807C27.7438 40.1482 27.3497 39.4071 26.9615 38.6719C26.3028 39.0307 25.644 39.3895 24.8853 39.8071" fill="white"/>
</mask>
<g mask="url(#mask3_510_8434)">
<path d="M30.8846 38.6778H21.921V44.683H30.8846V38.6778Z" fill="url(#paint3_linear_510_8434)"/>
</g>
<defs>
<linearGradient id="paint0_linear_510_8434" x1="21.2828" y1="49.8941" x2="21.2828" y2="0" gradientUnits="userSpaceOnUse">
<stop stop-color="#900D14"/>
<stop offset="1" stop-color="#AE1017"/>
</linearGradient>
<linearGradient id="paint1_linear_510_8434" x1="50.6793" y1="49.9941" x2="50.6793" y2="21.4681" gradientUnits="userSpaceOnUse">
<stop stop-color="#900D14"/>
<stop offset="1" stop-color="#AE1017"/>
</linearGradient>
<linearGradient id="paint2_linear_510_8434" x1="4.45242" y1="49.1413" x2="4.45242" y2="21.9974" gradientUnits="userSpaceOnUse">
<stop stop-color="#900D14"/>
<stop offset="1" stop-color="#AE1017"/>
</linearGradient>
<linearGradient id="paint3_linear_510_8434" x1="26.4028" y1="44.683" x2="26.4028" y2="38.6778" gradientUnits="userSpaceOnUse">
<stop stop-color="#900D14"/>
<stop offset="1" stop-color="#AE1017"/>
</linearGradient>
</defs>
</svg>
