<svg width="36" height="35" viewBox="0 0 36 35" fill="none" xmlns="http://www.w3.org/2000/svg">
<g clip-path="url(#clip0_360_21900)">
<path d="M28.8105 0H8.16602C4.20801 0 0.988281 3.21973 0.988281 7.17773V27.8223C0.988281 31.7803 4.20801 35 8.16602 35H28.8105C32.7686 35 35.9883 31.7803 35.9883 27.8223V7.17773C35.9883 3.21973 32.7686 0 28.8105 0ZM22.0812 23.2791L21.4476 28.35C21.319 29.3761 20.4468 30.1465 19.4125 30.1465H17.5641C16.5298 30.1465 15.6575 29.3761 15.5297 28.35L14.8953 23.2791C14.6253 21.1176 16.3104 19.209 18.4883 19.209C17.6406 19.209 16.8709 18.8638 16.3145 18.3066C15.7573 17.7502 15.4121 16.9805 15.4121 16.1328C15.4121 14.4368 16.7923 13.0566 18.4883 13.0566C20.1843 13.0566 21.5645 14.4368 21.5645 16.1328C21.5645 17.8288 20.1843 19.209 18.4883 19.209C20.5117 19.209 22.11 20.8564 22.11 22.8238C22.11 22.9735 22.1004 23.126 22.0812 23.2791ZM18.4883 11.0059C15.2843 11.0059 12.6777 13.6124 12.6777 16.8164C12.6777 17.971 13.0175 19.0477 13.6013 19.9527C13.1815 20.665 12.9238 21.4607 12.8438 22.2817C11.4726 20.866 10.627 18.9383 10.627 16.8164C10.627 12.4817 14.1536 8.95508 18.4883 8.95508C22.8229 8.95508 26.3496 12.4817 26.3496 16.8164C26.3496 18.9383 25.504 20.866 24.1327 22.2824C24.0527 21.4607 23.795 20.665 23.376 19.9527C23.9591 19.0477 24.2988 17.971 24.2988 16.8164C24.2988 13.6124 21.6923 11.0059 18.4883 11.0059ZM23.6043 27.6288L23.9201 25.1036C26.6162 23.3304 28.4004 20.2781 28.4004 16.8164C28.4004 11.3511 23.9536 6.9043 18.4883 6.9043C13.0229 6.9043 8.57617 11.3511 8.57617 16.8164C8.57617 20.2781 10.3604 23.3304 13.0564 25.1036L13.3723 27.6288C9.32812 25.7072 6.52539 21.5831 6.52539 16.8164C6.52539 10.2204 11.8923 4.85352 18.4883 4.85352C25.0843 4.85352 30.4512 10.2204 30.4512 16.8164C30.4512 21.5831 27.6484 25.7072 23.6043 27.6288Z" fill="#CD67E5"/>
</g>
<defs>
<clipPath id="clip0_360_21900">
<rect width="35" height="35" fill="white" transform="translate(0.988281)"/>
</clipPath>
</defs>
</svg>
