<svg width="50" height="50" viewBox="0 0 50 50" fill="none" xmlns="http://www.w3.org/2000/svg">
<path d="M49.9932 25.0957C46.3628 24.7648 42.7324 24.4339 39.3653 24.1278C40.1756 23.6732 41.1479 23.0767 42.1675 22.5771C42.5681 22.3813 43.1038 22.2597 43.5269 22.3498C44.6568 22.5973 45.5008 22.2912 46.3898 21.5508C47.0763 20.9768 48.0374 20.7337 48.7914 20.3826C47.9361 19.7569 46.8355 19.6376 45.9104 20.3624C45.1834 20.9318 44.578 21.0151 43.7947 20.5289C42.6806 19.8357 41.598 20.0203 40.5649 20.7878C39.7524 21.391 38.8724 21.8186 37.4882 21.553C41.1411 19.6039 44.533 17.792 47.9271 15.9802C47.8911 15.8924 47.8551 15.8046 47.8168 15.7169C44.4182 16.7319 41.0196 17.747 37.6457 18.7553C38.42 17.7335 39.1267 16.7139 39.9347 15.7821C40.2206 15.4535 40.7315 15.2442 41.1749 15.1474C42.1855 14.9314 42.7369 14.3282 43.223 13.4391C43.6754 12.6086 44.4294 11.9446 45.0754 11.1771C44.0221 11.2289 42.9485 11.4292 42.3183 12.5096C41.9064 13.2163 41.4022 13.5156 40.5919 13.4234C39.2663 13.2748 38.3502 13.86 37.6007 14.9674C37.0695 15.7574 36.2773 16.3696 35.6021 17.0628C35.4715 16.948 35.341 16.831 35.2104 16.7162C37.612 13.7047 40.0135 10.691 42.415 7.6795C42.352 7.61648 42.2867 7.5512 42.2215 7.48818C39.5589 9.71191 36.8985 11.9356 34.3124 14.0941C34.587 13.0272 34.8233 11.9131 35.1722 10.8373C35.3095 10.4141 35.6223 9.97299 35.9824 9.71641C36.8827 9.0772 37.2338 8.28494 37.3329 7.17758C37.4184 6.22327 37.9226 5.30722 38.2287 4.40918C37.2068 4.87058 36.2638 5.54355 36.0117 6.98852C35.9352 7.43642 35.494 8.04862 35.0912 8.17241C33.6102 8.63156 32.8764 9.58361 32.6941 11.0713C32.5771 12.0099 32.2642 12.8562 31.1704 13.5314C32.2687 9.64213 33.3018 5.97569 34.3349 2.3115C34.2246 2.26874 34.1121 2.22372 34.0018 2.17871C32.415 5.43777 30.8283 8.69683 29.273 11.8929C29.1087 10.5312 28.8949 9.17848 28.8094 7.81904C28.7824 7.3869 29.1582 6.94351 29.2528 6.48661C29.4036 5.75062 29.5836 4.99212 29.5544 4.25163C29.5138 3.18253 29.2978 2.11794 29.1672 1.14112C28.4628 1.48098 27.8235 2.71438 28.1567 3.79248C28.4267 4.66577 28.2894 5.28472 27.5647 5.84515C26.5429 6.63291 26.2188 7.66599 26.5946 8.92865C26.8625 9.82444 27.0088 10.736 26.122 11.58C25.7146 7.72001 25.305 3.86 24.8976 0H24.6725C24.4294 2.44655 24.1886 4.89534 23.9433 7.34189C23.842 8.37272 23.7362 9.40131 23.6169 10.5784C23.124 9.66689 22.8112 8.89489 22.3273 8.24893C21.8388 7.59622 21.7308 6.98627 21.8141 6.18051C21.8839 5.50079 21.6903 4.72429 21.3977 4.08958C20.9251 3.05874 20.2791 2.10894 19.7479 1.19964C19.336 2.07743 19.2325 3.14427 19.919 4.30115C20.1778 4.73554 20.3219 5.51654 20.1013 5.90817C19.336 7.27887 19.5566 8.41098 20.3984 9.65564C20.853 10.3286 20.9813 11.2244 21.2559 12.0212C21.1254 12.0707 20.9948 12.1202 20.862 12.1675C19.0952 8.85438 17.3261 5.53905 15.5571 2.22372C15.4625 2.26424 15.368 2.307 15.2735 2.34751C16.23 5.60882 17.1888 8.87013 18.1679 12.208C17.3014 11.526 16.5091 10.9768 15.8114 10.3241C15.3567 9.89647 15.0281 9.32928 14.6635 8.80936C14.2516 8.22192 13.959 7.50619 13.4369 7.04479C12.6018 6.30205 11.6205 5.72136 10.736 5.09791C10.7067 6.03421 11.0083 6.99077 12.0324 7.74252C12.4713 8.06437 12.9462 8.71933 12.9282 9.20549C12.8697 10.79 13.4909 11.8388 14.8593 12.5658C15.7776 13.0542 16.3516 13.824 16.4551 15.1227C13.3086 12.5658 10.3196 10.1373 7.32838 7.70651C7.26086 7.77628 7.19109 7.8438 7.12357 7.91357C9.39005 10.5942 11.6565 13.2748 13.833 15.8519C12.935 15.5593 12.0077 15.1497 11.0376 14.9764C10.2476 14.8346 9.67815 14.6027 9.20099 13.9095C8.86563 13.4256 8.28719 12.8967 7.74927 12.8089C6.49561 12.6086 5.16093 12.7954 4.19536 11.6003C4.57799 12.9462 5.30948 13.7497 6.66217 13.9568C7.06054 14.0176 7.62773 14.3844 7.72901 14.7243C8.23093 16.4236 9.31353 17.2248 11.0511 17.3914C11.9131 17.4747 12.6964 17.9023 13.1353 19.0704C9.27076 17.8843 5.62458 16.768 1.97839 15.6493C1.94013 15.7394 1.90412 15.8294 1.86586 15.9194C4.80531 17.4634 7.74477 19.0074 10.8373 20.6325C9.73216 20.7878 8.83412 20.9723 7.92708 21.0196C7.3779 21.0488 6.80846 20.9003 6.26379 20.772C5.59532 20.6122 4.9291 20.1981 4.28089 20.2386C3.09476 20.3084 1.92212 20.6325 0.760747 20.8463C1.48323 21.5575 2.40603 21.9559 3.64844 21.7511C4.13684 21.67 4.89084 21.8524 5.19019 22.2012C6.22552 23.4054 7.3869 23.7407 8.88814 23.2771C9.84245 22.9822 10.7855 23.0948 11.8096 23.9928C7.71101 24.3642 3.8555 24.7153 0 25.0641C0 25.1587 0.00225073 25.2532 0.00225073 25.3477C3.39185 25.6808 6.78145 26.0162 10.2611 26.3606C9.38555 26.8062 8.63381 27.2676 7.82354 27.5782C7.13482 27.8438 6.38082 27.9563 5.65159 28.1049C5.04839 28.2264 4.26739 28.0981 3.86 28.4335C2.87193 29.2483 1.93563 30.0248 0.249831 29.7637C1.62728 30.7202 2.61535 30.682 3.75647 30.0698C4.21787 29.8199 4.99437 29.6196 5.36574 29.8402C6.81747 30.7022 8.04637 30.4141 9.30678 29.4958C10.117 28.9039 11.0331 28.7418 12.2687 29.1177C8.58204 30.9678 5.11366 32.7076 1.64528 34.4474C1.68355 34.5352 1.72181 34.6253 1.75782 34.713C5.01463 33.7745 8.27144 32.8382 11.544 31.8974C10.9093 32.7954 10.3691 33.6349 9.74342 34.4069C9.48908 34.7243 9.07495 35.0281 8.68782 35.1024C7.47018 35.3365 6.70943 35.9757 6.24578 37.1393C6.02746 37.684 5.47828 38.1049 5.04164 38.546C4.84583 38.7418 4.55323 38.8454 4.30565 38.9917C5.65384 39.1447 6.71393 38.8454 7.41616 37.6525C7.63448 37.2811 8.25568 36.858 8.6203 36.9165C10.3421 37.1843 11.3865 36.4191 12.1787 35.0056C12.6671 34.1368 13.4301 33.5854 14.74 33.4436C12.163 36.5901 9.74342 39.5454 7.32388 42.4983C7.40266 42.5681 7.47918 42.6356 7.55796 42.7031C10.1756 40.5087 12.7932 38.312 15.3297 36.185C15.0214 37.2676 14.7513 38.411 14.3597 39.5093C14.1976 39.9617 13.7745 40.3219 13.4751 40.7247C13.0835 41.2492 12.5388 41.7218 12.3453 42.3115C11.9671 43.4504 11.7893 44.6545 11.5418 45.7664C12.4848 45.4378 13.2118 44.686 13.5066 43.4346C13.6169 42.9732 14.0041 42.3498 14.4002 42.2237C16.014 41.7083 16.6869 40.6212 16.939 39.0232C17.0538 38.2939 17.585 37.6322 17.9293 36.939C18.0486 36.993 18.1679 37.047 18.2849 37.1011C17.2406 40.7743 16.194 44.4474 15.1497 48.1206C15.2622 48.1612 15.377 48.1994 15.4895 48.2377C17.0898 44.9471 18.6878 41.6543 20.3714 38.1927C20.4749 39.6241 20.6054 40.7855 20.6235 41.9469C20.6325 42.5748 20.4727 43.2095 20.3489 43.833C20.2161 44.506 19.883 45.1789 19.9167 45.8384C19.9797 47.038 20.2476 48.2287 20.4231 49.3698C21.0623 48.582 21.7961 47.6772 21.3797 46.2593C21.2604 45.8587 21.418 45.1339 21.7173 44.8998C23.0925 43.8195 23.3333 42.5253 22.9102 40.9093C22.7436 40.2678 22.9417 39.5319 22.9732 38.8409H23.4076C23.8397 42.5613 24.2719 46.2795 24.704 50H25.0259C25.3365 46.5474 25.6448 43.0948 25.9599 39.5926C26.4956 40.5829 27.0155 41.4382 27.4252 42.3408C27.6525 42.8404 27.7245 43.4189 27.8213 43.968C27.9451 44.6815 27.7943 45.5818 28.1769 46.0837C28.9444 47.0921 29.7907 47.9856 29.6601 49.4148C30.3984 48.2399 30.4637 47.1731 29.7052 46.0342C29.4463 45.6471 29.2888 44.8953 29.4913 44.5465C30.3309 43.1083 30.0878 41.8996 29.183 40.5964C28.7486 39.9707 28.6383 39.12 28.3817 38.3705C28.5055 38.3255 28.6316 38.2804 28.7553 38.2354C30.5177 41.481 32.28 44.7265 34.0423 47.9721C34.1413 47.9271 34.2426 47.8843 34.3417 47.8393C33.4166 44.713 32.4893 41.5868 31.5755 38.5033C32.2417 39.0322 32.9485 39.5116 33.5539 40.099C34.0041 40.5334 34.3507 41.0871 34.6928 41.6205C35.0281 42.1427 35.1812 42.8404 35.6223 43.2185C36.5586 44.0198 37.6277 44.6635 38.5978 45.341C38.6428 44.3394 38.2534 43.4031 37.2001 42.7031C36.8287 42.4533 36.3943 41.8771 36.4371 41.499C36.6397 39.6804 35.8452 38.5483 34.3417 37.6525C33.7857 37.3216 33.4639 36.5946 33.0362 36.0477C33.133 35.9644 33.2298 35.8812 33.3266 35.8001C36.239 38.1612 39.1515 40.5222 42.0662 42.8832C42.1337 42.8067 42.2012 42.7301 42.2665 42.6514C40.126 40.0473 37.9856 37.4409 35.7754 34.7535C36.858 35.0686 37.7943 35.278 38.6788 35.6201C39.2258 35.8294 39.7052 36.2278 40.2003 36.5631C40.7968 36.9683 41.3257 37.5422 41.9806 37.7808C43.07 38.1814 44.2359 38.375 45.3252 38.6451C44.9291 37.828 44.3867 36.9188 43.088 36.6239C42.5793 36.5091 41.8546 36.1197 41.7376 35.7101C41.2357 33.959 40.027 33.3356 38.3817 33.043C37.72 32.9237 37.1303 32.397 36.5091 32.0549C36.5699 31.9424 36.6284 31.8321 36.6892 31.7196C40.3219 32.7954 43.9523 33.8713 47.5827 34.9449C47.6165 34.8548 47.648 34.7626 47.6818 34.6725C44.6883 33.0632 41.6926 31.454 38.5033 29.7389C39.6331 29.6489 40.5132 29.7029 41.3189 29.4823C42.1855 29.246 42.8539 29.3 43.6214 29.7997C44.0986 30.1103 44.8683 30.3039 45.3883 30.1508C46.6307 29.7839 47.81 29.2483 49.12 30.0383C48.2332 28.9489 47.2474 28.42 45.8587 28.6901C45.3883 28.7801 44.6545 28.5348 44.3304 28.1792C43.3333 27.0853 42.2575 26.7725 40.817 27.1281C40.0225 27.3261 39.1312 27.1348 38.2849 27.1191C38.2849 26.9615 38.2804 26.8017 38.2782 26.6442C42.1832 26.203 46.0882 25.7619 49.9932 25.3207V25.0957ZM24.4992 37.4027C17.8415 37.3779 12.5681 31.9581 12.5838 25.1542C12.5973 18.3075 17.9676 12.9912 24.8413 13.0182C31.607 13.043 36.9593 18.4312 36.9615 25.2149C36.966 32.1292 31.5463 37.4297 24.4992 37.4027Z" fill="url(#paint0_linear_351_11608)"/>
<path d="M24.8169 17.6959L24.8173 17.6959C28.9884 17.7118 32.2841 21.0234 32.2861 25.2132C32.2881 29.471 28.9709 32.7409 24.5841 32.725C20.5083 32.7092 17.2513 29.3923 17.2593 25.1741C17.2672 20.9482 20.5655 17.678 24.8169 17.6959Z" stroke="#900D14" stroke-width="2"/>
<defs>
<linearGradient id="paint0_linear_351_11608" x1="24.9966" y1="50" x2="24.9966" y2="0" gradientUnits="userSpaceOnUse">
<stop stop-color="#900D14"/>
<stop offset="1" stop-color="#AE1017"/>
</linearGradient>
</defs>
</svg>
