<svg width="35" height="35" viewBox="0 0 35 35" fill="none" xmlns="http://www.w3.org/2000/svg">
<g clip-path="url(#clip0_360_21877)">
<path d="M17.5 35C16.3849 35 15.4805 34.0963 15.4805 32.9805V30.2883C15.4805 29.1732 16.3842 28.2688 17.5 28.2688C18.6158 28.2688 19.5195 29.1725 19.5195 30.2883V32.9805C19.5195 34.0956 18.6158 35 17.5 35Z" fill="#FFBA00"/>
<path d="M2.0195 20.8658C0.9044 20.8658 0 19.9621 0 18.8463V16.1541C0 15.039 0.9037 14.1346 2.0195 14.1346C3.1353 14.1346 4.039 15.0383 4.039 16.1541V18.8463C4.039 19.9614 3.1353 20.8658 2.0195 20.8658Z" fill="#0066DA"/>
<path d="M32.9804 20.8658C31.8653 20.8658 30.9609 19.9621 30.9609 18.8463V16.1541C30.9609 15.039 31.8646 14.1346 32.9804 14.1346C34.0962 14.1346 34.9999 15.0383 34.9999 16.1541V18.8463C34.9999 19.9614 34.0962 20.8658 32.9804 20.8658Z" fill="#4285F4"/>
<path d="M17.5 6.7305C16.3849 6.7305 15.4805 5.8268 15.4805 4.711V2.0195C15.4805 0.9044 16.3842 0 17.5 0C18.6158 0 19.5195 0.9037 19.5195 2.0195V4.7117C19.5195 5.8268 18.6158 6.7312 17.5 6.7312V6.7305Z" fill="#FFBA00"/>
<path d="M9.75876 28.9425C8.64366 28.9425 7.73926 28.0388 7.73926 26.923V24.2308C7.73926 23.1157 8.64296 22.2113 9.75876 22.2113C10.8746 22.2113 11.7783 23.115 11.7783 24.2308V26.923C11.7783 28.0381 10.8746 28.9425 9.75876 28.9425Z" fill="#EA4435"/>
<path d="M9.75876 18.8463C8.64366 18.8463 7.73926 17.9426 7.73926 16.8268V8.75015C7.73926 7.63505 8.64296 6.73065 9.75876 6.73065C10.8746 6.73065 11.7783 7.63435 11.7783 8.75015V16.8268C11.7783 17.9419 10.8746 18.8463 9.75876 18.8463Z" fill="#EA4435"/>
<path d="M17.5 25.5766C16.3849 25.5766 15.4805 24.6729 15.4805 23.5571V11.4415C15.4805 10.3264 16.3842 9.422 17.5 9.422C18.6158 9.422 19.5195 10.3257 19.5195 11.4415V23.5571C19.5195 24.6722 18.6158 25.5766 17.5 25.5766Z" fill="#FFBA00"/>
<path d="M25.2402 13.1249C24.1251 13.1249 23.2207 12.2212 23.2207 11.1054V8.41324C23.2207 7.29814 24.1244 6.39374 25.2402 6.39374C26.356 6.39374 27.2597 7.29744 27.2597 8.41324V11.1054C27.2597 12.2205 26.356 13.1249 25.2402 13.1249Z" fill="#00AC47"/>
<path d="M25.2402 28.6055C24.1251 28.6055 23.2207 27.7018 23.2207 26.586V18.5094C23.2207 17.3943 24.1244 16.4899 25.2402 16.4899C26.356 16.4899 27.2597 17.3936 27.2597 18.5094V26.586C27.2597 27.7011 26.356 28.6055 25.2402 28.6055Z" fill="#00AC47"/>
</g>
<defs>
<clipPath id="clip0_360_21877">
<rect width="35" height="35" fill="white"/>
</clipPath>
</defs>
</svg>
