<svg width="20" height="18" viewBox="0 0 20 18" fill="none" xmlns="http://www.w3.org/2000/svg">
<path d="M9.9798 0C5.04916 0 1.06802 3.97846 1.06802 8.9091C1.06713 9.13545 1.27521 9.30521 1.49666 9.25932L3.27803 8.9042C3.44512 8.87078 3.56498 8.72419 3.56498 8.55399C3.56498 5.21447 6.64028 2.13917 9.9798 2.13917C13.3193 2.13917 16.3982 5.21447 16.3982 8.55399C16.3973 8.7233 16.5163 8.86989 16.682 8.9042L18.4656 9.25932C18.6866 9.30388 18.8929 9.13456 18.8925 8.9091C18.8929 3.97846 14.9109 0 9.9798 0ZM9.9749 8.7282C9.77929 8.73221 9.6229 8.89217 9.62468 9.08822V17.6431C9.62468 18.119 10.3385 18.119 10.3385 17.6431V9.08822C10.3407 8.88727 10.1758 8.72419 9.9749 8.7282ZM3.92009 9.6229C2.93896 9.6229 2.13917 10.4254 2.13917 11.4065V16.0404C2.13917 17.0215 2.93896 17.8218 3.92009 17.8218C4.90123 17.8218 5.70459 17.0215 5.70459 16.0404V11.4065C5.70459 10.4254 4.90123 9.6229 3.92009 9.6229ZM16.0404 9.6229C15.0593 9.6229 14.259 10.4254 14.259 11.4065V16.0404C14.259 17.0215 15.0593 17.8218 16.0404 17.8218C17.0215 17.8218 17.8213 17.0215 17.8213 16.0404V11.4065C17.8213 10.4254 17.0215 9.6229 16.0404 9.6229ZM8.19932 10.5145V16.2164C8.18862 16.7025 8.92292 16.7025 8.91222 16.2164V10.5145C8.91579 10.3135 8.75226 10.1393 8.53305 10.1527C8.33165 10.1647 8.19575 10.3309 8.19932 10.5145ZM11.0514 10.5145V16.2164C11.005 16.7341 11.808 16.7341 11.7616 16.2164V10.5145C11.7652 10.3135 11.6017 10.1389 11.3829 10.1527C11.1824 10.1647 11.0478 10.3318 11.0514 10.5145ZM1.07827 11.4065C0.480766 11.3905 0 11.8886 0 12.475V14.9693C0 15.5556 0.481657 16.04 1.06802 16.04H1.42581V11.4061H1.07827V11.4065ZM18.5347 11.4065V16.0404H18.8925C19.4788 16.0404 19.9605 15.5561 19.9605 14.9697V12.4754C19.9605 11.8891 19.4788 11.407 18.8925 11.407H18.5347V11.4065ZM12.8274 11.5776C12.6291 11.5789 12.4705 11.7429 12.4745 11.9412V14.7937C12.4745 15.2696 13.1883 15.2696 13.1883 14.7937V11.9412C13.1923 11.7398 13.0288 11.5754 12.8279 11.5776H12.8274ZM7.12283 12.2905C6.92589 12.2945 6.7686 12.4567 6.77261 12.6541V15.5066C6.77261 15.9825 7.48641 15.9825 7.48641 15.5066V12.6541C7.49042 12.4518 7.32511 12.2865 7.12283 12.2905Z" fill="#757575"/>
</svg>
