<svg width="40" height="50" viewBox="0 0 40 50" fill="none" xmlns="http://www.w3.org/2000/svg">
<g clip-path="url(#clip0_21_396)">
<path d="M24.9527 49.9287C23.969 49.9632 23.1436 49.1924 23.1102 48.2087C23.1035 48.0316 23.1247 47.8545 23.1703 47.6829C25.7904 38.0227 24.3645 32.6579 22.493 29.8596C22.8116 34.2163 21.6431 38.5518 19.1779 42.1577C18.6098 42.9085 17.556 43.0879 16.7717 42.5676C14.7633 41.2632 13.1291 39.4564 12.0307 37.3276C11.5785 40.7731 12.2469 44.2731 13.9378 47.3087C14.4402 48.1553 14.1606 49.2492 13.314 49.7505C12.8896 50.0022 12.3805 50.0668 11.906 49.9287C11.4248 49.6792 0 45.6867 0 30.323C0.0445583 24.5059 1.32672 18.7635 3.76072 13.48C4.20965 12.6044 5.2835 12.258 6.16019 12.7058C6.7517 13.0088 7.12599 13.617 7.12933 14.282C7.12933 15.797 8.91166 17.7398 10.4801 19.0052C16.6648 11.5016 11.2465 3.16028 10.997 2.78599C10.6506 2.25017 10.6171 1.57066 10.9079 1.00366C11.2064 0.409917 11.8113 0.0322849 12.4763 0.0233733C17.3187 -0.231723 22.0341 1.62747 25.3982 5.12084C28.377 8.71447 30.098 13.1837 30.2997 17.8467C31.0794 17.0536 31.75 16.1602 32.2959 15.191C32.551 14.6808 33.0344 14.3221 33.597 14.2286C34.164 14.135 34.741 14.321 35.1476 14.7276C35.5397 15.2267 39.2113 19.2191 39.2113 30.323C39.4118 39.1712 33.8264 47.1193 25.4339 49.9287C25.2746 49.9543 25.112 49.9543 24.9527 49.9287ZM19.6057 23.1937C19.7995 23.197 19.9911 23.2271 20.176 23.2828C20.6394 23.4432 31.0482 27.1505 27.5192 45.0451C32.7626 42.0385 35.8962 36.3618 35.6467 30.323C35.8137 26.5857 35.2066 22.8539 33.8643 19.3617C32.639 20.8432 31.1229 22.0563 29.4085 22.9263C28.8381 23.2126 28.1586 23.1714 27.6262 22.8194C27.0848 22.4574 26.784 21.828 26.8419 21.1797C26.8419 21.0905 27.537 12.571 22.8495 7.4557C20.9457 5.42161 18.3937 4.11048 15.6311 3.74845C18.485 10.1637 17.0647 17.6751 12.0664 22.6055C11.4637 23.2015 10.5247 23.2917 9.82065 22.8194C8.20207 21.7333 6.7595 20.4043 5.54305 18.8805C4.3021 22.571 3.63596 26.4297 3.56467 30.323C3.31625 35.3659 5.26679 40.2684 8.91166 43.7618C7.62281 39.4174 8.41261 34.7209 11.0505 31.036C11.6409 30.2484 12.7582 30.0891 13.5457 30.6795C13.9947 31.0159 14.2587 31.5439 14.2587 32.1054C14.4469 34.5082 15.5509 36.7483 17.3421 38.3613C19.3851 34.409 19.6068 29.7638 17.9481 25.6355C17.6874 24.9905 17.8267 24.252 18.3046 23.7462C18.6432 23.3909 19.1144 23.1904 19.6057 23.1937Z" fill="url(#paint0_linear_21_396)"/>
</g>
<defs>
<linearGradient id="paint0_linear_21_396" x1="19.6083" y1="49.9999" x2="19.6083" y2="0.000183105" gradientUnits="userSpaceOnUse">
<stop stop-color="#900D14"/>
<stop offset="1" stop-color="#AE1017"/>
</linearGradient>
<clipPath id="clip0_21_396">
<rect width="39.2169" height="50" fill="white"/>
</clipPath>
</defs>
</svg>
