<svg width="30" height="27" viewBox="0 0 30 27" fill="none" xmlns="http://www.w3.org/2000/svg">
<g clip-path="url(#clip0_353_9360)">
<path d="M27.1178 4.62877L17.6738 0.261835C16.7203 -0.178708 15.6099 -0.0546993 14.7792 0.568744C13.9485 -0.0546993 12.8381 -0.178708 11.8845 0.261835L2.44054 4.62877L0 9.38868V19.4657L7.54926 16.0433C8.51472 15.5965 9.24745 14.8009 9.61325 13.802L11.1048 9.72503C11.4349 8.82752 11.2837 7.81959 10.7265 7.05912L14.2378 5.43567C14.4298 5.34677 14.6116 5.23692 14.7792 5.10838C14.9473 5.23749 15.1285 5.34677 15.3205 5.43567L18.8318 7.05912C18.2746 7.81903 18.1229 8.82639 18.453 9.72276L19.9451 13.8026C20.3109 14.8015 21.0436 15.5976 22.0108 16.045L29.5583 19.4662V9.38981L27.1178 4.6299V4.62877ZM20.6031 8.50476C20.667 8.36659 20.7803 8.26184 20.9236 8.20917C20.9875 8.18539 21.0544 8.17407 21.1206 8.17407C21.2022 8.17407 21.2831 8.19162 21.359 8.22673C21.4972 8.29071 21.6025 8.40453 21.6552 8.54779L22.9292 12.0127C22.9292 12.0127 22.9304 12.0149 22.9304 12.0161L22.9321 12.0206C22.9321 12.0206 22.9321 12.0217 22.9321 12.0223L23.0334 12.2969L23.2882 12.2029C23.2916 12.2018 23.2956 12.2007 23.299 12.1995C23.3029 12.1984 23.3063 12.1967 23.3103 12.195L25.1653 11.5133L25.068 11.2477C24.7237 10.3117 24.5255 9.77203 24.4139 9.46795L23.692 7.50532L23.6795 7.50929C23.3952 6.91586 22.9179 6.44417 22.3131 6.16501C22.299 6.15821 20.7962 5.46342 19.2939 4.76863C17.4173 3.90113 16.278 3.37395 16.2741 3.37225C15.9785 3.23579 15.8369 2.89547 15.9592 2.61404C16.021 2.47191 16.1348 2.36319 16.2786 2.30827C16.4236 2.25334 16.5804 2.25844 16.7208 2.32356L25.4536 6.3615L27.2865 9.93624V15.9408L22.9609 13.9798C22.5481 13.7884 22.235 13.4476 22.0787 13.0206L20.5855 8.93907C20.5328 8.79638 20.5391 8.64236 20.6031 8.50419V8.50476ZM5.87599 7.51552L5.8641 7.51155L5.33069 8.96116C5.20045 9.31506 4.95187 9.99173 4.49037 11.2477L4.39241 11.5133L5.99321 12.1016L6.25878 12.1995C6.26217 12.2007 6.26557 12.2018 6.26954 12.2029L6.52492 12.2969L6.62231 12.0314C6.62231 12.0314 6.62288 12.0297 6.62344 12.0291L6.62854 12.0149L6.62967 12.0121L7.9043 8.54553C7.9564 8.4034 8.06059 8.29015 8.19875 8.22616C8.33692 8.16218 8.49207 8.15538 8.6359 8.20861C8.7786 8.2607 8.89185 8.36546 8.95583 8.50362C9.01982 8.64179 9.02605 8.79694 8.97282 8.94134L7.48075 13.0206C7.32446 13.4476 7.01076 13.7884 6.60079 13.9787L2.27293 15.9408V9.93624L4.10589 6.3615L12.8375 2.32412C12.9779 2.259 13.1353 2.25391 13.2803 2.3094C13.4241 2.36433 13.5374 2.47248 13.5991 2.61461C13.7214 2.89604 13.5798 3.23635 13.2843 3.37282L7.24519 6.16501C6.6376 6.44587 6.15968 6.91925 5.87542 7.51495L5.87599 7.51552Z" fill="url(#paint0_linear_353_9360)"/>
<path d="M18.6035 18.9392C19.0775 18.207 19.3255 17.3662 19.3255 16.4839C19.3255 13.9771 17.2859 11.9375 14.7791 11.9375C12.2723 11.9375 10.2326 13.9771 10.2326 16.4839C10.2326 17.3662 10.4812 18.207 10.9546 18.9392C9.02992 19.4958 7.67432 21.2676 7.67432 23.3056V26.9998H21.8838V23.3056C21.8838 21.2676 20.5277 19.4958 18.6035 18.9392ZM14.7791 14.2087C16.0333 14.2087 17.0543 15.2291 17.0543 16.4839C17.0543 17.7387 16.0339 18.7591 14.7791 18.7591C13.5243 18.7591 12.5039 17.7387 12.5039 16.4839C12.5039 15.2291 13.5243 14.2087 14.7791 14.2087ZM12.2207 21.0304H17.3368C18.5911 21.0304 19.612 22.0507 19.612 23.3056V24.728H18.4727V22.1697H16.2009V24.728H13.3566V22.1697H11.0848V24.728H9.94555V23.3056C9.94555 22.0513 10.9659 21.0304 12.2207 21.0304Z" fill="url(#paint1_linear_353_9360)"/>
</g>
<defs>
<linearGradient id="paint0_linear_353_9360" x1="14.7792" y1="19.4662" x2="14.7792" y2="0" gradientUnits="userSpaceOnUse">
<stop stop-color="#900D14"/>
<stop offset="1" stop-color="#AE1017"/>
</linearGradient>
<linearGradient id="paint1_linear_353_9360" x1="14.7791" y1="26.9998" x2="14.7791" y2="11.9375" gradientUnits="userSpaceOnUse">
<stop stop-color="#900D14"/>
<stop offset="1" stop-color="#AE1017"/>
</linearGradient>
<clipPath id="clip0_353_9360">
<rect width="29.5583" height="27" fill="white"/>
</clipPath>
</defs>
</svg>
