<svg width="15" height="15" viewBox="0 0 15 15" fill="none" xmlns="http://www.w3.org/2000/svg">
<g clip-path="url(#clip0_702_552)">
<path d="M8.07617 10.1854L5.92799 12.3336C5.92799 12.3336 5.92799 12.3336 5.92794 12.3336C5.92794 12.3336 5.92794 12.3337 5.92789 12.3337C5.03955 13.2221 3.59402 13.2221 2.70558 12.3337C2.27518 11.9033 2.03821 11.3311 2.03821 10.7225C2.03821 10.114 2.27518 9.54184 2.70543 9.11144C2.70548 9.11139 2.70553 9.11134 2.70558 9.11129L4.85377 6.96305C5.15034 6.66643 5.15034 6.1855 4.85372 5.88893C4.55715 5.59236 4.07622 5.59236 3.7796 5.88893L1.63141 8.03717C1.63126 8.03732 1.63111 8.03752 1.63096 8.03767C0.914016 8.75487 0.519165 9.70837 0.519165 10.7225C0.519165 11.7369 0.914168 12.6905 1.63146 13.4078C2.37185 14.1481 3.34429 14.5183 4.31678 14.5183C5.28928 14.5183 6.26177 14.1481 7.00205 13.4078C7.00211 13.4078 7.00211 13.4077 7.00211 13.4077L9.15029 11.2595C9.44686 10.9629 9.44686 10.482 9.15024 10.1854C8.85372 9.88879 8.37284 9.88879 8.07617 10.1854Z" fill="#F9F9F9"/>
<path d="M14.5606 4.27774C14.5606 3.26337 14.1655 2.30971 13.4482 1.59241C11.9675 0.111748 9.55827 0.111799 8.07765 1.59241C8.0776 1.59252 8.0775 1.59257 8.07745 1.59267L5.92931 3.74075C5.63269 4.03732 5.63269 4.5183 5.92931 4.81487C6.07767 4.96323 6.27201 5.03736 6.4664 5.03736C6.66073 5.03736 6.85517 4.96318 7.00343 4.81487L9.15157 2.66679C9.15162 2.66669 9.15172 2.66663 9.15182 2.66653C10.0402 1.77819 11.4857 1.77814 12.3741 2.66653C12.8045 3.09693 13.0415 3.66916 13.0415 4.27774C13.0415 4.88627 12.8046 5.45839 12.3743 5.88879L12.3741 5.88894L10.2259 8.03718C9.92937 8.33375 9.92937 8.81468 10.226 9.1113C10.3743 9.25961 10.5687 9.33379 10.763 9.33379C10.9574 9.33379 11.1518 9.25961 11.3001 9.1113L13.4483 6.96306C13.4484 6.96291 13.4486 6.9627 13.4487 6.96255C14.1657 6.24536 14.5606 5.29185 14.5606 4.27774Z" fill="#F9F9F9"/>
<path d="M4.85491 10.1853C5.00322 10.3336 5.19761 10.4078 5.39194 10.4078C5.58633 10.4078 5.78072 10.3336 5.92903 10.1853L10.2255 5.88883C10.5221 5.59226 10.5221 5.11133 10.2255 4.81471C9.92893 4.51814 9.448 4.51814 9.15138 4.81471L4.85491 9.11114C4.55829 9.40781 4.55829 9.88874 4.85491 10.1853Z" fill="#F9F9F9"/>
</g>
<defs>
<clipPath id="clip0_702_552">
<rect width="14.04" height="14.04" fill="white" transform="translate(0.516022 0.480225)"/>
</clipPath>
</defs>
</svg>
