<svg width="23" height="22" viewBox="0 0 23 22" fill="none" xmlns="http://www.w3.org/2000/svg">
<path d="M18.4813 5.75862C18.1548 5.266 17.7283 4.84516 17.2261 4.52406C17.1731 4.49008 17.1194 4.458 17.0651 4.42655C17.4405 3.95966 17.666 3.36732 17.666 2.7232C17.666 1.22185 16.4445 0.000317612 14.9431 0.000317612C13.4418 0.000317612 12.2203 1.22185 12.2203 2.7232C12.2203 3.36668 12.4451 3.95839 12.8196 4.42465C12.4569 4.63427 12.125 4.89821 11.8356 5.2101C11.4974 5.05923 11.1236 4.97475 10.73 4.97475C10.3365 4.97475 9.96236 5.05923 9.62442 5.2101C9.33508 4.89789 9.00318 4.63427 8.64046 4.42465C9.01493 3.95808 9.2398 3.36637 9.2398 2.7232C9.23916 1.22153 8.01763 0 6.51628 0C5.01493 0 3.79339 1.22153 3.79339 2.72288C3.79339 3.36732 4.0189 3.95966 4.39432 4.42624C4.34 4.45768 4.28633 4.48976 4.23329 4.52374C3.73114 4.84485 3.30427 5.26568 2.97777 5.7583C1.87947 5.80467 1 6.7124 1 7.82182V14.4412L4.58393 19.5509V22H16.8752V19.5509L20.4591 14.4412V7.82182C20.4591 6.7124 19.5796 5.80467 18.4813 5.75862ZM10.7294 14.2487L8.35874 11.878C8.54264 11.5172 8.8088 11.1974 9.13435 10.9525C9.59679 10.6047 10.1482 10.4208 10.7291 10.4208C10.7291 10.4208 10.7294 10.4208 10.7297 10.4208C10.73 10.4208 10.73 10.4208 10.7303 10.4208C11.3109 10.4208 11.8623 10.6047 12.3251 10.9525C12.6506 11.1974 12.9168 11.5172 13.1007 11.878L10.7297 14.2487H10.7294ZM4.51564 6.35255C5.01143 5.7818 5.73114 5.44609 6.51564 5.44577H6.51628H6.51691C7.2471 5.44577 7.92838 5.74019 8.42322 6.2525C8.1596 6.67175 8.00651 7.16691 8.00651 7.69763C8.00651 8.34143 8.2317 8.93346 8.6068 9.40035C8.46006 9.48547 8.31745 9.5798 8.17993 9.68334C7.79752 9.9711 7.46657 10.3243 7.20105 10.7203L7.06892 10.5882C6.54423 10.0635 5.80515 9.8809 5.13086 10.0397V7.82182C5.13086 7.24758 4.89519 6.72733 4.51533 6.35255H4.51564ZM14.3902 10.5882L14.2581 10.7203C13.9925 10.324 13.6619 9.97078 13.2792 9.68334C13.1417 9.5798 12.999 9.48547 12.8523 9.40035C13.2274 8.93378 13.4526 8.34175 13.4526 7.69763C13.4526 7.16691 13.2995 6.67175 13.0359 6.2525C13.5307 5.74051 14.2117 5.44609 14.9422 5.44577H14.9428H14.9435C15.728 5.44577 16.4477 5.7818 16.9435 6.35255C16.5639 6.72733 16.3279 7.24726 16.3279 7.82182V10.0397C15.6536 9.88058 14.9146 10.0635 14.3899 10.5882H14.3902ZM13.8077 2.72288C13.8077 2.09719 14.3168 1.58806 14.9425 1.58806C15.5682 1.58806 16.0773 2.09719 16.0773 2.72288C16.0773 3.34858 15.5685 3.85739 14.9431 3.85771H14.9425H14.9419C14.3165 3.85739 13.8077 3.34826 13.8077 2.72288ZM11.8645 7.69763C11.8645 8.32333 11.3557 8.83214 10.7303 8.83246C10.7303 8.83246 10.73 8.83246 10.7297 8.83246C10.7294 8.83246 10.7294 8.83246 10.7291 8.83246C10.1037 8.83214 9.59489 8.32301 9.59489 7.69763C9.59489 7.07226 10.104 6.56281 10.7297 6.56281C11.3554 6.56281 11.8645 7.07194 11.8645 7.69763ZM5.38145 2.72288C5.38145 2.09719 5.89058 1.58806 6.51628 1.58806C7.14197 1.58806 7.6511 2.09719 7.6511 2.72288C7.6511 3.34858 7.14229 3.85739 6.51691 3.85771H6.51628H6.51564C5.89027 3.85739 5.38145 3.34826 5.38145 2.72288ZM6.17199 20.4119V19.0497L2.58806 13.94V7.82182C2.58806 7.55852 2.80213 7.34445 3.06543 7.34445C3.32873 7.34445 3.5428 7.55852 3.5428 7.82182V12.0476H3.54375C3.54375 12.5768 3.7448 13.1062 4.14785 13.509L6.71193 16.0731L7.835 14.95L5.27092 12.3859C5.0848 12.1998 5.0848 11.8968 5.27092 11.7107C5.45704 11.5245 5.76004 11.5245 5.94617 11.7107L9.93568 15.7002V20.4116H6.1723L6.17199 20.4119ZM18.871 13.94L15.2871 19.0497V20.4119H11.5237V15.7005L15.5133 11.711C15.6994 11.5249 16.0024 11.5249 16.1885 11.711C16.3746 11.8971 16.3746 12.2001 16.1885 12.3862L13.6244 14.9503L14.7475 16.0734L17.3116 13.5093C17.7143 13.1062 17.9157 12.5771 17.9157 12.048H17.9166V7.82214C17.9166 7.55884 18.1307 7.34477 18.394 7.34477C18.6573 7.34477 18.8714 7.55884 18.8714 7.82214V13.9403L18.871 13.94Z" fill="url(#paint0_linear_348_10469)"/>
<defs>
<linearGradient id="paint0_linear_348_10469" x1="10.7296" y1="22" x2="10.7296" y2="0" gradientUnits="userSpaceOnUse">
<stop stop-color="#900D14"/>
<stop offset="1" stop-color="#AE1017"/>
</linearGradient>
</defs>
</svg>
