<svg width="23" height="22" viewBox="0 0 23 22" fill="none" xmlns="http://www.w3.org/2000/svg">
<path d="M17.5181 2.62454L16.6855 3.42269L17.1448 3.87884L12.8392 8.18184V3.14952H13.4674V2H8.5477V3.14952H9.17589V8.18184L4.87029 3.87937L5.32593 3.42686L4.51058 2.61151L1 6.12209L1.81535 6.93744L2.26733 6.48233L8.39235 12.6282L6.51767 14.4997C6.46971 14.5482 6.43113 14.6045 6.4035 14.6645L4.83276 18.0416C4.7311 18.26 4.7775 18.5212 4.94849 18.6917C5.05641 18.7986 5.19925 18.8575 5.35043 18.8585C5.43228 18.8585 5.51673 18.8413 5.59389 18.8059L8.97466 17.2336C9.03253 17.2059 9.08518 17.1694 9.13158 17.1251L9.17537 17.0808V17.9697C9.17537 18.0364 9.18684 18.1021 9.20978 18.1652L10.4662 21.621C10.5506 21.8545 10.7722 22 11.0073 22C11.0725 22 11.1382 21.9891 11.2028 21.9656C11.3634 21.9072 11.489 21.7821 11.5469 21.6215L12.8033 18.1657C12.8262 18.1026 12.8377 18.0369 12.8377 17.9697V17.0782L12.882 17.1225C12.9284 17.1663 12.981 17.2028 13.042 17.232L16.4155 18.8012C16.4906 18.8377 16.574 18.8575 16.6595 18.8585H16.6631C16.8159 18.8585 16.9592 18.7996 17.0682 18.6912C17.2387 18.5212 17.2851 18.26 17.1834 18.0416L15.6137 14.6666C15.5855 14.6045 15.547 14.5482 15.4974 14.4987L13.6212 12.6282L19.7551 6.49119L20.2076 6.94683L21.0229 6.13148L17.5181 2.62454ZM10.3259 17.3946V3.14952H11.6897V17.8763L11.0083 19.75L10.572 18.5442H11.2685V17.3946H10.3259ZM9.17589 9.80523V11.7883L3.06913 5.67897L4.05808 4.69002L9.17589 9.80523ZM7.60515 16.3869L8.4205 15.5716L7.73913 14.8933L9.17589 13.4649V15.4512L8.39547 16.2316L6.538 17.0959L7.09999 15.8818L7.60463 16.3864L7.60515 16.3869ZM18.946 5.67897L12.8392 11.7883V9.80523L17.957 4.69002L18.946 5.67897ZM12.8392 15.4538V13.4696L14.6112 15.2463L15.4755 17.1037L14.2614 16.5418L14.766 16.0371L13.9507 15.2218L13.2745 15.9011L12.8387 15.4532L12.8392 15.4538Z" fill="url(#paint0_linear_348_10460)"/>
<defs>
<linearGradient id="paint0_linear_348_10460" x1="11.0115" y1="22" x2="11.0115" y2="2" gradientUnits="userSpaceOnUse">
<stop stop-color="#900D14"/>
<stop offset="1" stop-color="#AE1017"/>
</linearGradient>
</defs>
</svg>
