<svg width="17" height="17" viewBox="0 0 17 17" fill="none" xmlns="http://www.w3.org/2000/svg">
<path d="M1.32698 2.63803L1.77248 2.86502L1.32698 2.63803ZM2.13432 16.1013L1.78077 15.7478L1.78077 15.7478L2.13432 16.1013ZM13.8947 11.3303L13.6677 10.8848L13.8947 11.3303ZM15.2057 10.0193L14.7602 9.79227V9.79228L15.2057 10.0193ZM15.2057 2.63803L14.7602 2.86502V2.86502L15.2057 2.63803ZM13.8947 1.32698L14.1216 0.881477V0.881477L13.8947 1.32698ZM2.63803 1.32698L2.86502 1.77248L2.63803 1.32698ZM4.39498 13.8407L4.04143 13.4871L4.39498 13.8407ZM1.5 5.8C1.5 4.95167 1.50039 4.3455 1.53921 3.87032C1.57756 3.40099 1.65089 3.10366 1.77248 2.86502L0.881477 2.41103C0.676087 2.81413 0.585932 3.25771 0.542533 3.78889C0.499611 4.31423 0.5 4.96817 0.5 5.8H1.5ZM1.5 11.4742V5.8H0.5V11.4742H1.5ZM0.866123 11.8404V13.5478H1.86612V11.8404H0.866123ZM0.866123 13.5478V15.7831H1.86612V13.5478H0.866123ZM0.866123 15.7831C0.866123 16.6295 1.88941 17.0534 2.48787 16.4549L1.78077 15.7478C1.78367 15.7449 1.79424 15.7375 1.80935 15.7349C1.82173 15.7328 1.83033 15.7349 1.83526 15.7369C1.84019 15.739 1.84777 15.7436 1.855 15.7538C1.86384 15.7664 1.86612 15.779 1.86612 15.7831H0.866123ZM2.48787 16.4549L4.74854 14.1942L4.04143 13.4871L1.78077 15.7478L2.48787 16.4549ZM5.18788 13.1336V12.6573H4.18788V13.1336H5.18788ZM10.7327 11.1573H5.68788V12.1573H10.7327V11.1573ZM13.6677 10.8848C13.429 11.0064 13.1317 11.0797 12.6624 11.1181C12.1872 11.1569 11.581 11.1573 10.7327 11.1573V12.1573C11.5645 12.1573 12.2184 12.1577 12.7438 12.1148C13.275 12.0714 13.7185 11.9812 14.1216 11.7758L13.6677 10.8848ZM14.7602 9.79228C14.5205 10.2627 14.1381 10.6451 13.6677 10.8848L14.1216 11.7758C14.7802 11.4403 15.3156 10.9048 15.6512 10.2463L14.7602 9.79228ZM15.0327 6.8573C15.0327 7.70563 15.0323 8.3118 14.9935 8.78698C14.9551 9.25631 14.8818 9.55364 14.7602 9.79227L15.6512 10.2463C15.8566 9.84316 15.9467 9.39958 15.9901 8.86841C16.0331 8.34307 16.0327 7.68913 16.0327 6.8573H15.0327ZM15.0327 5.8V6.8573H16.0327V5.8H15.0327ZM14.7602 2.86502C14.8818 3.10366 14.9551 3.40099 14.9935 3.87032C15.0323 4.34549 15.0327 4.95167 15.0327 5.8H16.0327C16.0327 4.96817 16.0331 4.31423 15.9901 3.78889C15.9467 3.25771 15.8566 2.81413 15.6512 2.41103L14.7602 2.86502ZM13.6677 1.77248C14.1381 2.01217 14.5205 2.39462 14.7602 2.86502L15.6512 2.41103C15.3156 1.75247 14.7802 1.21703 14.1216 0.881477L13.6677 1.77248ZM10.7327 1.5C11.581 1.5 12.1872 1.50039 12.6624 1.53921C13.1317 1.57756 13.429 1.65089 13.6677 1.77248L14.1216 0.881477C13.7185 0.676087 13.275 0.585932 12.7438 0.542533C12.2185 0.499611 11.5645 0.5 10.7327 0.5V1.5ZM5.8 1.5H10.7327V0.5H5.8V1.5ZM2.86502 1.77248C3.10366 1.65089 3.40099 1.57756 3.87032 1.53921C4.34549 1.50039 4.95167 1.5 5.8 1.5V0.5C4.96817 0.5 4.31423 0.499611 3.78889 0.542533C3.25771 0.585932 2.81413 0.676087 2.41103 0.881477L2.86502 1.77248ZM1.77248 2.86502C2.01217 2.39462 2.39462 2.01217 2.86502 1.77248L2.41103 0.881477C1.75247 1.21703 1.21703 1.75247 0.881477 2.41103L1.77248 2.86502ZM5.18788 12.6573C5.18788 12.3812 5.41174 12.1573 5.68788 12.1573V11.1573C4.85945 11.1573 4.18788 11.8289 4.18788 12.6573H5.18788ZM1.18306 12.1573C1.00802 12.1573 0.866123 12.0154 0.866123 11.8404H1.86612C1.86612 11.4631 1.56031 11.1573 1.18306 11.1573V12.1573ZM4.74854 14.1942C5.02984 13.9129 5.18788 13.5314 5.18788 13.1336H4.18788C4.18788 13.2662 4.1352 13.3933 4.04143 13.4871L4.74854 14.1942ZM0.5 11.4742C0.5 11.8515 0.805817 12.1573 1.18306 12.1573V11.1573C1.3581 11.1573 1.5 11.2992 1.5 11.4742H0.5Z" fill="#9E9E9E"/>
</svg>
