<svg width="30" height="32" viewBox="0 0 30 32" fill="none" xmlns="http://www.w3.org/2000/svg">
<g clip-path="url(#clip0_353_9356)">
<path d="M8.01188 19.4628C8.02505 17.1385 8.02505 14.7095 8.01314 12.0379C8.01189 11.7219 7.9705 11.3733 7.88962 11.0002C7.80937 10.6271 7.71657 10.5469 7.30714 10.493C7.2551 10.4861 7.20682 10.4767 7.16356 10.4685C7.11904 10.4597 7.07766 10.4522 7.04318 10.4484C6.65883 10.4127 6.4306 10.1381 6.44878 9.73179C6.46571 9.33741 6.7278 9.08285 7.11653 9.08285H7.1203C7.33348 9.08348 7.54665 9.08285 7.75983 9.08222C7.90153 9.08222 8.04261 9.08097 8.18431 9.08097H9.34739C10.0252 9.08097 10.7036 9.08097 11.3814 9.07971H11.3839C11.9914 9.07971 12.1438 9.41829 12.1651 9.70232C12.1814 9.91926 12.1306 10.0967 12.014 10.2309C11.9369 10.3199 11.7933 10.4296 11.5469 10.4466C11.0829 10.4779 10.8102 10.5569 10.7124 10.6873C10.6102 10.8234 10.5907 11.1212 10.5663 11.498L10.5638 11.5388C10.5167 12.2598 10.5236 13.0041 10.5299 13.7232C10.533 14.0637 10.5362 14.4155 10.5337 14.7634C11.2578 14.7659 12.0196 14.7659 12.8592 14.7634C12.8548 14.3496 12.8523 13.9358 12.8504 13.522C12.8467 12.7451 12.8423 11.9413 12.8209 11.1538C12.7952 10.2096 12.7557 9.24838 12.7175 8.31917C12.6918 7.70032 12.6655 7.06079 12.6435 6.43066C12.6416 6.36984 12.6391 6.30087 12.6354 6.24506C12.5802 6.2413 12.5143 6.23879 12.4592 6.23691C11.5187 6.19992 10.6171 6.35918 9.53611 6.57048C9.40695 6.59556 9.28155 6.60371 9.14863 6.61186C9.08718 6.61562 9.02198 6.61938 8.94987 6.62565L8.45831 6.66829L8.54734 6.18299C8.68403 5.43812 8.78748 4.55343 8.52101 3.63927L8.38056 3.15774H8.88216C8.94486 3.15774 9.00254 3.15585 9.05646 3.15397C9.18437 3.14958 9.30475 3.1452 9.43579 3.16526C9.85337 3.22921 10.2772 3.29756 10.6867 3.36276C11.2284 3.44992 11.7883 3.53958 12.3388 3.62109C12.3632 3.62485 12.3833 3.62673 12.4002 3.62798C12.399 3.60666 12.3965 3.57908 12.3908 3.54585C12.2422 2.59845 12.0792 1.63476 11.9375 0.805873C11.9131 0.663545 11.8629 0.366976 12.0673 0.158813C12.2661 -0.0437065 12.5538 -0.000443741 12.6485 0.0139772C13.357 0.120567 14.0837 0.11994 14.8085 0.0114692C15.0769 -0.0286586 15.2361 0.0716608 15.3227 0.163202C15.4531 0.301141 15.4945 0.491748 15.4462 0.72938C15.4211 0.852271 15.3941 0.975162 15.3672 1.09743C15.3107 1.35512 15.2568 1.5984 15.2192 1.84543C15.1264 2.45487 15.0556 3.01666 15.0023 3.5634C14.9998 3.58911 14.9991 3.6098 14.9991 3.6261C15.0136 3.62547 15.0317 3.62359 15.0537 3.62046C16.0155 3.4844 17.0049 3.33643 18.0777 3.16839C18.2257 3.1452 18.5341 3.09692 18.7379 3.31511C18.9423 3.53456 18.8721 3.84053 18.8382 3.98725C18.7028 4.57725 18.7059 5.18858 18.8483 5.80303L18.8508 5.81369C18.8646 5.872 18.8809 5.94411 18.884 6.02812C18.8865 6.0927 18.879 6.146 18.8708 6.20807C18.8677 6.23441 18.8633 6.26575 18.8589 6.30526L18.8169 6.68898L18.4344 6.63694C18.3561 6.62628 18.2802 6.61813 18.2062 6.60998C18.0407 6.59179 17.8695 6.57298 17.699 6.5316C16.7579 6.304 15.791 6.20682 14.7458 6.23503C14.685 8.38751 14.6204 10.5757 14.5577 12.6918L14.5032 14.5327C14.5032 14.5503 14.5032 14.5684 14.5032 14.586V14.6155C14.5032 14.6901 14.5051 14.7421 14.5076 14.7779C14.5433 14.781 14.5953 14.7829 14.6712 14.7835C15.2863 14.7891 15.9465 14.7923 16.6049 14.7816C16.6544 14.781 16.6914 14.7791 16.7196 14.7772C16.7209 14.7484 16.7221 14.7095 16.7221 14.6575C16.7221 14.4368 16.7227 14.2161 16.7234 13.9954C16.7253 13.1759 16.7271 12.3288 16.7165 11.4968C16.714 11.3244 16.6751 11.1231 16.603 10.9149C16.4839 10.5713 16.2832 10.4347 15.9308 10.4547C15.6725 10.4704 15.4706 10.4046 15.3302 10.2616C15.1935 10.1218 15.1339 9.93055 15.1527 9.69229C15.1747 9.41328 15.3239 9.08097 15.9058 9.08097H15.907C16.534 9.08097 17.1604 9.08097 17.7874 9.08097H18.7279C18.8784 9.08222 19.027 9.08097 19.1762 9.08097C19.501 9.08097 19.837 9.08222 20.1668 9.07971C20.1706 9.07971 20.1744 9.07971 20.1781 9.07971C20.8321 9.07971 20.9268 9.53491 20.9368 9.73116C20.9443 9.8829 20.9192 10.3864 20.264 10.4773C20.1831 10.4886 20.1023 10.5005 20.0207 10.5124C19.9468 10.5231 19.8734 10.5337 19.7994 10.5444C19.5191 10.5839 19.3787 10.7224 19.3285 11.0084C19.2677 11.3576 19.2125 11.6987 19.2113 12.031C19.2025 14.4318 19.2031 16.9617 19.2144 19.5505C19.2157 19.8189 19.2489 20.1136 19.3235 20.5061C19.3894 20.8541 19.5511 21.0052 19.9198 21.0654C19.9505 21.0704 19.9881 21.0735 20.0289 21.0767C20.1562 21.0873 20.3142 21.1005 20.4672 21.1839C20.6264 21.271 20.9255 21.5193 20.9161 21.8372C20.9086 22.0968 20.7123 22.2611 20.5694 22.3808C20.5531 22.3946 20.5374 22.4071 20.523 22.4203C20.4132 22.5156 20.2866 22.5325 20.1944 22.5325C20.165 22.5325 20.1386 22.5307 20.1179 22.5294C20.1085 22.5294 20.0997 22.5282 20.0916 22.5282C18.7135 22.5288 17.3341 22.5282 15.9547 22.5294C15.8174 22.5282 15.5315 22.5294 15.3308 22.3238C15.2035 22.1933 15.1421 22.014 15.1477 21.7914C15.1596 21.3438 15.4211 21.0767 15.865 21.0585C16.3842 21.0378 16.5033 20.935 16.6149 20.4108C16.6676 20.1644 16.7171 19.901 16.7196 19.6502C16.7296 18.7461 16.7265 17.8257 16.7234 16.9353L16.7215 16.3955C16.7215 16.3723 16.7215 16.3522 16.7209 16.3347C16.7039 16.3347 16.6839 16.3341 16.6607 16.3341C14.7333 16.3328 12.7445 16.3328 10.5801 16.3341C10.5638 16.3341 10.5487 16.3341 10.5349 16.3341C10.5349 16.3441 10.5349 16.3541 10.5349 16.3654C10.5324 17.5711 10.5305 18.6577 10.5381 19.7468C10.5393 19.9362 10.5625 20.1487 10.6076 20.3951C10.7048 20.9199 10.8603 21.0503 11.4014 21.0604C11.5851 21.0635 11.8497 21.0923 12.024 21.3005C12.1062 21.3983 12.1952 21.5726 12.1513 21.8447C12.1137 22.0805 11.9193 22.2792 11.7438 22.3714C11.577 22.4592 11.3983 22.4579 11.2679 22.4573H11.2315C9.92109 22.4598 8.58183 22.4598 7.24946 22.4573H7.21184C7.08456 22.4592 6.8927 22.4611 6.72842 22.3444C6.55725 22.2228 6.38734 21.9902 6.39361 21.7444C6.39925 21.5225 6.52904 21.2785 6.71714 21.1368C6.88267 21.0121 7.08393 21.0096 7.21685 21.0083C7.23316 21.0083 7.24946 21.0083 7.26513 21.0077C7.68271 20.9951 7.77802 20.923 7.8658 20.5525C7.96235 20.1456 8.01 19.7894 8.01188 19.4628ZM29.7185 17.7022C29.5392 16.6074 28.9567 15.7566 27.9886 15.1729C27.3428 14.7841 26.65 14.5415 25.9797 14.307C25.8098 14.2474 25.6399 14.1879 25.4706 14.1264C24.8173 13.8875 24.152 13.6066 23.4924 13.2912C23.046 13.0774 22.7557 12.737 22.6303 12.2786C22.5131 11.851 22.6065 11.3676 22.8874 10.9519C23.1984 10.4911 23.6956 10.1801 24.2185 10.1193C25.0361 10.024 25.7741 10.2572 26.3528 10.7933C26.7873 11.1958 27.1779 11.6811 27.556 12.1501C27.655 12.273 27.7541 12.3959 27.8538 12.5175C27.9635 12.6511 28.2971 13.0574 28.8307 12.8034C29.047 12.7006 29.3736 12.4385 29.1304 11.8435C29.042 11.6278 28.9592 11.4021 28.8796 11.1839C28.8112 10.9964 28.7435 10.809 28.6758 10.6215C28.5435 10.2547 28.4062 9.87537 28.2651 9.50356L28.2526 9.46908C28.2087 9.34807 28.1272 9.12235 27.8946 9.02517C27.7917 8.98253 27.625 8.95181 27.4118 9.05025C26.9854 9.24649 26.5672 9.14492 26.0644 8.99193C25.7283 8.88973 25.3866 8.81324 25.0555 8.73926C24.9119 8.70728 24.7684 8.6753 24.6248 8.64082L24.5771 8.62953L24.5282 8.63078C23.3288 8.66213 22.2748 9.11106 21.5594 9.89481C20.8565 10.6654 20.5267 11.6924 20.6038 12.8649C20.6929 14.2098 21.37 15.2061 22.6171 15.8268C23.2159 16.1246 23.8511 16.3453 24.4655 16.5585C24.5709 16.5949 24.6768 16.6313 24.7828 16.667C25.5019 16.9121 26.181 17.1435 26.7948 17.5442C27.1911 17.8025 27.4619 18.247 27.5572 18.7963C27.6576 19.3737 27.5403 19.9694 27.2513 20.3512C26.7152 21.0591 25.6048 21.3507 24.6699 21.0296C23.646 20.6779 22.7664 20.0164 21.9814 19.0076L21.9419 18.9562C21.7719 18.7373 21.5964 18.511 21.3707 18.3191C21.1305 18.1154 20.7449 18.1781 20.5581 18.2658C20.3204 18.3774 20.1142 18.7568 20.212 19.0408C20.5161 19.9274 20.8415 20.8215 21.1569 21.6855L21.2572 21.9607C21.3506 22.2165 21.5092 22.3225 21.6259 22.3664C21.7976 22.431 21.9857 22.409 22.1845 22.3006C22.2253 22.2786 22.266 22.2542 22.308 22.2297C22.3858 22.1839 22.5162 22.1074 22.5638 22.1056C23.0372 22.1137 23.4774 22.1614 23.8768 22.2485C24.4912 22.3821 25.1182 22.5187 25.7634 22.5187C26.1471 22.5187 26.5377 22.4705 26.9353 22.3444C27.8601 22.0516 28.5053 21.6178 28.9655 20.9795C29.6646 20.0108 29.9185 18.9085 29.721 17.7028L29.7185 17.7022ZM5.90894 21.7406C5.91333 21.1425 5.4644 21.0459 5.32709 21.0309C5.22614 21.0196 5.12833 21.0152 5.03428 21.0108C4.99039 21.0089 4.9465 21.0071 4.90261 21.0039C4.72454 20.9926 4.41293 20.9174 4.32452 20.5393C4.28 20.3481 4.27373 20.1362 4.27373 19.9731C4.2706 18.1987 4.2706 16.3949 4.27123 14.6499V13.4254C4.27123 13.238 4.27123 13.0511 4.26997 12.8636C4.26872 12.3921 4.26684 11.9043 4.27562 11.4266C4.28314 11.0052 4.37343 10.7425 4.5772 10.5488C4.76655 10.3682 4.94713 10.2961 5.16093 10.3149C5.42051 10.3375 5.58416 10.2497 5.67632 10.1726C5.76473 10.098 5.87446 9.95939 5.89452 9.72176C5.91521 9.47598 5.82743 9.31797 5.75031 9.22894C5.63369 9.09351 5.46189 9.01827 5.24119 9.0051L5.18539 9.00134C5.10576 8.99632 5.02362 8.99068 4.93647 8.99068C3.63044 8.99005 2.32503 8.98943 1.01962 8.99068C1.00019 8.98943 0.979496 8.99068 0.959433 8.98943C0.842184 8.98629 0.681673 8.98253 0.524297 9.05401C0.356889 9.1305 0.073487 9.33804 0.075995 9.63461C0.077876 9.88791 0.255943 10.1694 0.481662 10.2741C0.613331 10.3356 0.743746 10.3588 0.858486 10.3788C0.93498 10.3926 1.00708 10.4052 1.04909 10.4252L1.0911 10.4453C1.18452 10.4898 1.37639 10.5807 1.42153 10.6372C1.57075 10.9933 1.65352 11.3482 1.66041 11.6648C1.68299 12.668 1.67922 13.6913 1.67546 14.6807C1.67421 15.0613 1.67233 15.4425 1.67233 15.8231C1.67233 16.25 1.67233 16.677 1.67233 17.104C1.67233 18.0909 1.67358 19.111 1.67045 20.1142C1.66919 20.5958 1.47796 20.8873 1.10239 20.9795C1.04847 20.9926 0.973854 20.9958 0.894852 20.9989C0.829644 21.0014 0.756286 21.0046 0.680419 21.014C0.398898 21.0484 0.166909 21.2052 0.0603201 21.4322C-0.0387453 21.6441 -0.0174274 21.8867 0.118631 22.098C0.329301 22.4253 0.822747 22.441 0.87855 22.4416C1.57514 22.4504 2.27926 22.4523 2.97585 22.4523C3.34453 22.4523 3.71132 22.4523 4.07372 22.451H4.39286C4.69319 22.4498 4.99791 22.4379 5.28382 22.426C5.5829 22.4134 5.90392 22.2253 5.90706 21.7363L5.90894 21.7406ZM21.6277 25.5158C21.6346 25.2832 21.6409 25.0631 21.4973 24.8806C21.3287 24.6662 21.059 24.6461 20.8622 24.6317C20.232 24.586 19.6088 24.5151 19.0821 24.4524C18.8871 24.4286 18.7235 24.4681 18.5956 24.5697C18.4683 24.67 18.3931 24.8192 18.3705 25.0123L18.3617 25.0882C18.3354 25.3139 18.3084 25.5478 18.2971 25.7848C18.2796 26.1704 18.1711 26.4751 17.9667 26.7152C17.499 27.2657 17.0187 27.8225 16.5541 28.3611C16.06 28.9335 15.5496 29.5254 15.0518 30.1129C14.8468 30.3543 14.6631 30.6101 14.485 30.8578C14.4054 30.9688 14.3257 31.0798 14.2442 31.1889L14.0687 31.424L14.5389 31.9996L14.7928 31.9017C14.8386 31.8842 14.8863 31.8685 14.9333 31.8528C15.0656 31.8089 15.2161 31.7594 15.3584 31.6685C15.576 31.5287 15.7703 31.3669 15.9578 31.2102L16.0381 31.1431C16.3848 30.8553 16.7303 30.5669 17.0764 30.2785C17.862 29.6226 18.6746 28.9442 19.4834 28.2909C19.6502 28.1561 19.8897 28.0445 20.1399 27.9849C20.3179 27.9423 20.5205 27.9379 20.7343 27.9322C20.844 27.9297 20.9575 27.9266 21.0728 27.9191C21.2302 27.9084 21.4672 27.8915 21.6208 27.7046C21.7688 27.5241 21.7425 27.3165 21.7143 27.0971C21.6428 26.5416 21.6139 26.0092 21.6277 25.5152V25.5158ZM12.9576 31.3211C12.9463 31.2321 12.9294 31.0979 12.8385 30.9744L12.7915 30.9105C12.53 30.5537 12.2592 30.1844 11.9657 29.8364C11.2917 29.0364 10.5061 28.1078 9.71418 27.2162C9.10035 26.5246 8.87087 25.9095 8.97182 25.2205C8.98373 25.1402 8.97558 25.0706 8.97056 25.0292C8.9436 24.7985 8.85143 24.6255 8.69594 24.5145C8.53856 24.4022 8.3398 24.3709 8.10593 24.4217C7.852 24.4769 7.58866 24.5251 7.3341 24.5722L6.58296 24.5709C6.31398 24.5709 6.03622 24.5709 5.84122 24.7678C5.65501 24.9553 5.64435 25.2205 5.63369 25.502C5.62303 25.7672 5.60736 26.0381 5.59168 26.3002C5.57412 26.6005 5.55594 26.9109 5.54466 27.2181C5.53588 27.462 5.71896 27.6996 5.90142 27.7874C6.06444 27.8664 6.2331 27.8589 6.35599 27.8532L6.38671 27.852C7.06449 27.8256 7.61751 28.0231 8.12788 28.474C9.01383 29.2571 9.93049 30.032 10.8177 30.7813C11.098 31.0183 11.3782 31.2547 11.6579 31.4923C11.7833 31.5989 11.9538 31.7331 12.1588 31.8253C12.2334 31.8591 12.3074 31.8698 12.3752 31.8698C12.4604 31.8698 12.5357 31.8522 12.5908 31.8397C12.6103 31.8353 12.6347 31.8296 12.6448 31.8284L13.0573 31.7776L12.9658 31.3719C12.962 31.3556 12.9608 31.3381 12.9583 31.3211H12.9576ZM14.3038 30.1004C14.3295 29.807 14.3552 29.5129 14.3815 29.2195C14.4693 28.2301 14.5602 27.2074 14.6236 26.1973C14.6725 25.4117 14.8173 24.606 15.5383 24.0298C15.6418 23.947 15.8844 23.7533 15.8669 23.458C15.8493 23.1577 15.5778 22.989 15.4155 22.8881C15.2386 22.7777 15.0537 22.636 14.8499 22.4535C14.7201 22.3375 14.5966 22.2121 14.4662 22.0799C14.3772 21.9896 14.285 21.8955 14.1897 21.8046C14.1176 21.7356 14.043 21.6848 13.9709 21.6353C13.9433 21.6165 13.9144 21.5971 13.8843 21.5751L13.648 21.4033L13.4229 21.5895C13.3959 21.6121 13.3696 21.6328 13.3439 21.6529C13.2824 21.7018 13.2185 21.7526 13.1558 21.8134C13.063 21.9037 12.9721 21.9958 12.8843 22.0849C12.5419 22.4328 12.2184 22.762 11.8002 22.9514C11.5024 23.0868 11.4673 23.5088 11.5318 23.7075C11.5864 23.8756 11.7055 23.979 11.7927 24.0549C11.814 24.0737 11.8347 24.0913 11.8472 24.1044C12.3325 24.6016 12.5564 25.0186 12.5946 25.4982C12.6485 26.1666 12.7012 26.835 12.7545 27.5027C12.8109 28.2156 12.868 28.9292 12.925 29.6421C12.9307 29.7098 12.9357 29.7775 12.9407 29.8458C12.9626 30.133 12.9852 30.4302 13.031 30.7255C13.0598 30.913 13.1821 31.0384 13.2624 31.1218C13.2824 31.1425 13.3031 31.1638 13.3131 31.1769L13.6016 31.5456L13.8994 31.1845C13.9113 31.17 13.9307 31.1506 13.9514 31.1293C14.0273 31.0528 14.1307 30.9475 14.1784 30.7895C14.2392 30.5876 14.28 30.3618 14.3025 30.0998L14.3038 30.1004Z" fill="url(#paint0_linear_353_9356)"/>
</g>
<defs>
<linearGradient id="paint0_linear_353_9356" x1="14.8923" y1="31.9996" x2="14.8923" y2="0" gradientUnits="userSpaceOnUse">
<stop stop-color="#900D14"/>
<stop offset="1" stop-color="#AE1017"/>
</linearGradient>
<clipPath id="clip0_353_9356">
<rect width="29.7836" height="32" fill="white"/>
</clipPath>
</defs>
</svg>
