<svg width="18" height="20" viewBox="0 0 18 20" fill="none" xmlns="http://www.w3.org/2000/svg">
<g clip-path="url(#clip0_396_5845)">
<path d="M17.0916 6.66481C16.0208 3.63298 13.2893 1.40913 8.97192 0.0550762L8.79644 0L8.62096 0.0550762C4.30421 1.40913 1.57237 3.63298 0.501606 6.66481C0.0823816 7.85247 -0.0752302 9.16111 0.0331645 10.5541C0.118708 11.653 0.369481 12.8064 0.778452 13.9826C1.34621 15.6159 2.05458 16.8267 2.31238 17.2412V20H15.2808V17.2412C15.5386 16.8267 16.247 15.6159 16.8147 13.9826C17.2237 12.8064 17.4742 11.6527 17.56 10.5541C17.6684 9.16111 17.5108 7.85276 17.0916 6.6651V6.66481ZM15.238 5.53897C13.7305 4.58598 11.7717 3.76891 9.38236 3.09716V1.42759C12.1368 2.40783 14.0978 3.78532 15.238 5.53868V5.53897ZM8.21081 1.42759V3.09716C5.82144 3.76891 3.86272 4.58598 2.35516 5.53897C3.49535 3.78561 5.45642 2.40783 8.21081 1.42788V1.42759ZM14.109 18.8282H3.48422V17.6563H14.109V18.8282ZM16.3932 10.4425C16.3176 11.438 16.0905 12.4894 15.7182 13.5681C15.2436 14.9424 14.6498 16.014 14.3688 16.4848H3.22436C2.60798 15.4506 0.485493 11.5147 1.39689 7.76223C2.88277 6.29891 5.37029 5.08459 8.79644 4.15064C12.222 5.0843 14.7092 6.29832 16.1951 7.76136C16.3978 8.59629 16.4649 9.49479 16.3932 10.4425ZM10.5545 5.93798H7.03898V8.28165H4.69531V11.7972H7.03898V15.3127H10.5545V11.7972H12.8982V8.28165H10.5545V5.93798ZM11.7263 9.45349V10.6253H9.38265V14.1408H8.21081V10.6253H5.86715V9.45349H8.21081V7.10982H9.38265V9.45349H11.7263Z" fill="#900D14"/>
</g>
<defs>
<clipPath id="clip0_396_5845">
<rect width="17.5931" height="20" fill="white"/>
</clipPath>
</defs>
</svg>
