<svg width="27" height="23" viewBox="0 0 27 23" fill="none" xmlns="http://www.w3.org/2000/svg">
<g clip-path="url(#clip0_348_10550)">
<path d="M23.6079 0H12.3067C10.8622 0 9.68746 1.1752 9.68746 2.6192V9.46338L8.03244 8.64039C8.57557 7.9626 8.87151 7.12655 8.87151 6.25181C8.87151 4.13957 7.15318 2.42174 5.04144 2.42174C2.9297 2.42174 1.21087 4.14007 1.21087 6.25181C1.21087 7.2411 1.59574 8.18819 2.27654 8.89914C0.864692 9.82362 0 11.4088 0 13.1136V15.5353C0 16.6 0.64161 17.5506 1.61433 17.9545V21.9936C1.61433 22.5478 2.06501 22.9985 2.6192 22.9985H7.46268C8.01686 22.9985 8.46755 22.5478 8.46755 21.9936V13.932L10.517 14.9565C11.0295 15.2127 11.6439 15.268 12.2032 15.1082C12.7523 14.9515 13.2136 14.6028 13.516 14.1184H15.7152L12.9764 21.65C12.8845 21.9022 12.8965 22.175 13.0101 22.4182C13.1236 22.6614 13.3251 22.8458 13.5773 22.9377C13.8496 23.0367 14.137 23.0176 14.3872 22.8834C14.6078 22.7654 14.7817 22.5659 14.8651 22.3368L17.8535 14.1184H18.0304L21.0495 22.3398C21.1822 22.7005 21.551 23 21.9896 23C22.1026 23 22.2202 22.9799 22.3393 22.9362C22.591 22.8437 22.792 22.6583 22.9045 22.4152C23.0176 22.1715 23.0286 21.8987 22.9357 21.6469L20.1708 14.1184H23.6069C25.0514 14.1184 26.2261 12.9432 26.2261 11.4992V2.6192C26.2261 1.17469 25.0509 0 23.6069 0H23.6079ZM2.6192 16.1448C2.28307 16.1448 2.00974 15.8714 2.00974 15.5353V13.1136C2.00974 11.442 3.36933 10.0824 5.04094 10.0824H5.70667C6.17343 10.0824 6.63969 10.1919 7.0552 10.3999C7.0552 10.3999 10.7933 12.2589 11.7454 12.7332C11.8359 12.7779 11.8791 12.8835 11.8459 12.9784C11.8439 12.9844 11.8414 12.991 11.8394 12.9975C11.8113 13.0724 11.7474 13.1382 11.6726 13.1688C11.5892 13.203 11.4952 13.1995 11.4148 13.1593C9.98189 12.4423 7.91085 11.4078 7.91085 11.4078C7.59733 11.251 7.23206 11.2676 6.93361 11.452C6.63517 11.6364 6.4568 11.956 6.4568 12.3067V20.9887H3.62306V17.1501C3.62306 16.596 3.17238 16.1453 2.61819 16.1453L2.6192 16.1448ZM5.04094 4.43148C6.0448 4.43148 6.86126 5.24794 6.86126 6.25181C6.86126 7.25567 6.0448 8.07213 5.04094 8.07213C4.03707 8.07213 3.22061 7.25567 3.22061 6.25181C3.22061 5.24794 4.03707 4.43148 5.04094 4.43148ZM15.6268 8.71927C15.8745 8.22387 15.673 7.61894 15.1776 7.37123C14.6817 7.12353 14.0772 7.32501 13.8295 7.82041L12.3464 10.7863C12.1449 10.6858 11.9263 10.5773 11.6967 10.4627V2.6192C11.6967 2.28307 11.97 2.00974 12.3062 2.00974H23.6074C23.7682 2.00974 23.9255 2.07506 24.039 2.18861C24.1536 2.30317 24.2169 2.45641 24.2169 2.6192V11.4987C24.2169 11.662 24.1536 11.8148 24.0385 11.9298C23.9255 12.0429 23.7682 12.1082 23.6074 12.1082H13.932L15.6268 8.71877V8.71927ZM22.998 4.23403C22.998 4.78821 22.5473 5.2389 21.9931 5.2389H13.9205C13.3663 5.2389 12.9156 4.78821 12.9156 4.23403C12.9156 3.67984 13.3663 3.22915 13.9205 3.22915H21.9931C22.5473 3.22915 22.998 3.67984 22.998 4.23403ZM22.998 7.05922C22.998 7.61341 22.5473 8.06409 21.9931 8.06409H17.9566C17.4024 8.06409 16.9517 7.61341 16.9517 7.05922C16.9517 6.50504 17.4024 6.05435 17.9566 6.05435H21.9931C22.5473 6.05435 22.998 6.50504 22.998 7.05922ZM22.998 9.88442C22.998 10.4386 22.5473 10.8893 21.9931 10.8893H17.9566C17.4024 10.8893 16.9517 10.4386 16.9517 9.88442C16.9517 9.33023 17.4024 8.87955 17.9566 8.87955H21.9931C22.5473 8.87955 22.998 9.33023 22.998 9.88442Z" fill="url(#paint0_linear_348_10550)"/>
</g>
<defs>
<linearGradient id="paint0_linear_348_10550" x1="13.1131" y1="23.0002" x2="13.1131" y2="0" gradientUnits="userSpaceOnUse">
<stop stop-color="#900D14"/>
<stop offset="1" stop-color="#AE1017"/>
</linearGradient>
<clipPath id="clip0_348_10550">
<rect width="26.2271" height="23" fill="white"/>
</clipPath>
</defs>
</svg>
