<svg width="20" height="26" viewBox="0 0 20 26" fill="none" xmlns="http://www.w3.org/2000/svg">
<g clip-path="url(#clip0_396_5857)">
<path d="M19.2802 16.8188C19.2692 16.6586 19.1887 16.5118 19.0609 16.4156C18.724 16.1631 18.5299 15.9351 18.4486 15.6983C18.3807 15.4987 18.3886 15.2999 18.3965 15.0884L18.3997 14.9985C18.4154 14.5037 18.3997 14.0122 18.0359 13.4401C17.6075 12.3883 17.1664 11.9417 16.6756 11.5062L16.5675 11.4107C16.36 11.2284 16.1462 11.0391 15.915 10.7779L15.8952 10.755C15.8653 10.7211 15.8353 10.6848 15.8045 10.6485C15.612 10.4157 15.4305 10.1569 15.2514 9.85707C15.0478 9.51699 14.7993 9.2211 14.5594 8.93547C14.4347 8.78713 14.318 8.64747 14.2067 8.50228C13.9321 8.14248 13.7491 7.81266 13.7491 7.37553C13.7491 7.16722 13.7822 7.02125 13.854 6.91789C13.9763 6.73956 14.2177 6.6291 14.6872 6.5352C14.8632 6.49969 15.0115 6.38134 15.0849 6.21643C15.1575 6.05152 15.1457 5.86136 15.0526 5.70829C14.9445 5.5276 14.9058 5.40845 14.9239 5.30982C14.9405 5.2175 15.0044 5.11966 15.1307 4.99341C15.1535 4.96974 15.1772 4.94686 15.204 4.92161C15.2396 4.88847 15.2782 4.85454 15.3169 4.82219L15.3358 4.80641C15.6435 4.54761 16.0775 4.26355 16.6567 3.88954C16.8618 3.75777 16.9565 3.50212 16.8871 3.26857C16.8184 3.03501 16.6007 2.87168 16.3568 2.87168C15.4991 2.87168 15.0241 2.78331 14.815 2.58605C14.7298 2.50556 14.6959 2.40062 14.6557 2.27911C14.6446 2.24518 14.6336 2.21125 14.6225 2.17732C14.5878 2.06922 14.5523 1.95797 14.505 1.84514C14.2596 1.26203 13.7948 0.696292 12.0708 0.504554C11.9224 0.487985 11.7709 0.533749 11.6557 0.629223C10.5874 1.51926 9.82357 1.36777 9.08503 1.22179C8.9793 1.20049 8.87435 1.17997 8.77178 1.1634C8.10662 1.05215 7.32625 1.00402 6.48198 1.84908C6.35652 1.97454 6.29813 2.15365 6.32733 2.32803C6.35573 2.5032 6.46699 2.65548 6.62558 2.73439C7.06114 2.95295 7.32152 3.14784 7.44461 3.34905C7.52588 3.4824 7.53772 3.6118 7.55034 3.74909C7.55271 3.77671 7.55508 3.80433 7.55823 3.83194C7.5606 3.8564 7.56376 3.87929 7.56691 3.90138L7.56454 3.90296L7.58348 4.00948C7.58822 4.03709 7.59374 4.06471 7.59926 4.09075L7.60242 4.10574C7.60715 4.12783 7.61268 4.14993 7.61899 4.17202L7.67974 4.39374L7.69474 4.38427C7.72866 4.46002 7.76891 4.53103 7.81625 4.59889C8.08768 4.99105 8.6187 5.2893 9.48823 5.53785C9.64446 5.58204 9.81174 5.556 9.94666 5.46605C10.14 5.33744 10.2875 5.28062 10.3996 5.29483C10.5566 5.31376 10.6686 5.46289 10.787 5.6207L10.7965 5.63333C10.8264 5.67278 10.8548 5.71302 10.8833 5.75168C10.7649 5.78798 10.6308 5.82033 10.4911 5.85347C10.4264 5.86846 10.3609 5.88424 10.2954 5.90081C9.99321 5.97656 9.60895 6.08703 9.31701 6.27403C8.90197 6.53915 8.6913 6.91 8.6913 7.37553C8.6913 7.6296 8.86331 7.85053 9.10949 7.91208C9.28623 7.95627 9.45351 7.99572 9.61053 8.0328C9.93325 8.10855 10.2126 8.17404 10.454 8.25452C10.7744 8.36183 10.9645 8.47782 11.1097 8.65457C11.262 8.83841 11.3772 9.10274 11.4727 9.48622C11.4971 9.58327 11.5476 9.67164 11.6179 9.74266L11.6328 9.75765C11.7078 9.83261 11.7899 9.91467 11.8767 10.0023C12.3248 10.4552 12.8929 11.0556 13.3143 11.6805C13.6638 12.1989 13.8264 12.5887 13.8264 12.9075C13.8264 13.0929 13.9187 13.2649 14.0726 13.3675C14.385 13.5758 14.5152 13.8922 14.471 14.3341C14.4324 14.716 14.2809 15.0292 14.2801 15.0308C14.1917 15.2076 14.2043 15.4198 14.314 15.5847C14.3353 15.6171 14.8261 16.3777 14.4063 17.1865C14.2312 17.2472 14.071 17.3143 13.9226 17.39L13.9195 17.3861L13.8074 17.45C13.8011 17.4532 13.7956 17.4571 13.7846 17.4642C13.7648 17.4753 13.7459 17.4871 13.7277 17.4989L13.7072 17.5116C13.6686 17.5352 13.6315 17.5597 13.596 17.5842L13.5857 17.5905C13.5763 17.5968 13.5668 17.6023 13.5573 17.6086L13.4366 17.6978L13.439 17.7017C13.3372 17.7846 13.2456 17.8714 13.1636 17.9653C12.8748 18.2935 12.6704 18.7149 12.5426 19.2498C12.1323 19.2782 11.864 19.4274 11.6052 19.5915L11.5634 19.6183C11.2225 19.8353 10.8706 20.0594 9.72967 19.8692C9.46219 19.825 9.19707 19.9852 9.11264 20.2432C9.02901 20.5012 9.14815 20.7877 9.39118 20.9084C10.3254 21.3755 11.0963 22.5062 11.5058 23.4081C11.5973 23.6093 11.7946 23.7332 12.0084 23.7332C12.0447 23.7332 12.081 23.7292 12.1181 23.7221C13.8216 23.3812 14.5278 22.2671 14.7764 21.7219C15.2979 21.6272 15.6972 21.355 16.128 20.9778C16.1777 20.9344 16.2274 20.8894 16.2771 20.8445L16.3458 20.7829C16.4129 20.723 16.4807 20.663 16.5509 20.6046C16.7364 20.45 16.9904 20.2582 17.3203 20.1485C18.0667 19.9 18.2837 19.4313 18.4068 18.9618C18.436 18.8521 18.4565 18.7377 18.4794 18.617C18.5575 18.1965 18.6451 17.7207 19.1169 17.2488C19.2305 17.1352 19.2889 16.979 19.2779 16.8188H19.2802ZM15.238 17.955C15.9789 16.844 15.6151 15.7323 15.3879 15.247C15.4605 15.0474 15.5433 14.7633 15.5749 14.4438C15.6278 13.9135 15.5536 13.1726 14.9129 12.6171C14.8442 12.1508 14.6162 11.6285 14.2335 11.0619C13.7822 10.392 13.1841 9.75607 12.7738 9.33551L12.6333 9.19269C12.59 9.1493 12.5481 9.10669 12.5079 9.06566C12.3769 8.59933 12.1994 8.2348 11.9658 7.95074C11.6849 7.60988 11.3275 7.38026 10.8083 7.20589C10.6426 7.15065 10.4643 7.10173 10.2702 7.0536C10.4154 7.00784 10.5716 6.97075 10.7247 6.93446C10.7894 6.91868 10.8541 6.90368 10.9164 6.8879C11.3299 6.78454 11.6068 6.67249 11.7875 6.53599C12.0416 6.34425 12.1702 6.09571 12.1702 5.79508C12.1702 5.64911 12.111 5.50629 12.0084 5.4045C11.9398 5.33586 11.8648 5.22934 11.7859 5.11729C11.7039 5.0013 11.6115 4.86953 11.505 4.75039C11.2375 4.45055 10.9393 4.26828 10.6181 4.20911C10.2844 4.14677 9.93088 4.21305 9.56713 4.40558C9.09292 4.25645 8.83253 4.11994 8.7268 3.96766C8.68735 3.91085 8.67709 3.8493 8.66526 3.75462C8.65973 3.7128 8.65579 3.67098 8.65105 3.62837L8.62423 3.3814L8.61792 3.38377C8.55479 3.02712 8.4175 2.64444 7.91725 2.24045C8.2155 2.1718 8.51613 2.23256 8.85147 2.30041C8.91538 2.31304 8.98008 2.32645 9.04479 2.33829C9.94272 2.50635 10.9243 2.5892 12.1741 1.63131C12.7343 1.711 13.0941 1.83172 13.3032 2.01084C13.4571 2.14261 13.5076 2.30594 13.5605 2.47795C13.5684 2.50399 13.5763 2.52924 13.5841 2.55449C13.6694 2.82276 13.783 3.13049 14.056 3.3885C14.2469 3.56919 14.5002 3.7057 14.8229 3.80196C14.7795 3.8351 14.7377 3.86824 14.6983 3.8998L14.6959 3.89743L14.5783 3.99922C14.5334 4.03788 14.49 4.07655 14.4497 4.11363C14.4071 4.15308 14.3677 4.19254 14.3298 4.23199C14.3101 4.2525 14.2911 4.27381 14.273 4.29432L14.2501 4.32036C14.2414 4.32983 14.2335 4.33851 14.2264 4.34719C14.0134 4.59731 13.8863 4.84665 13.8374 5.11019C13.8059 5.28141 13.8074 5.45185 13.8422 5.62938C13.4366 5.78561 13.1415 6.00339 12.9434 6.29218C12.7422 6.5857 12.6436 6.94077 12.6436 7.37711C12.6436 8.17562 13.0097 8.75793 13.3285 9.17533C13.4405 9.3221 13.5636 9.46728 13.682 9.60694C13.8998 9.86417 14.1246 10.1301 14.303 10.4268C14.4592 10.6879 14.6154 10.9215 14.7788 11.1369H14.7772L14.8932 11.2844L15.0178 11.1905L14.9011 11.2947C14.9334 11.3349 14.9658 11.3736 14.9981 11.4123L15.0123 11.4288C15.0462 11.4691 15.0802 11.507 15.118 11.5496L15.1236 11.5559C15.1559 11.5914 15.1883 11.6261 15.2182 11.6585L15.2238 11.6648C15.4408 11.8936 15.642 12.0711 15.8369 12.2431L15.9394 12.3339C16.3442 12.6945 16.6819 13.0393 17.0275 13.9025C17.0409 13.9372 17.0583 13.9711 17.0812 14.0058C17.3258 14.3728 17.31 14.6884 17.2934 15.0237C17.2895 15.1074 17.2847 15.1934 17.2847 15.2802C17.2847 15.7536 17.3384 16.3075 17.9546 16.9245C17.5893 17.4555 17.4852 17.9755 17.4007 18.4L17.3842 18.4829C17.3155 18.8308 17.2698 19.0029 16.9715 19.1023C16.5446 19.2451 16.2148 19.4676 15.9457 19.6814L15.9442 19.6798L15.8045 19.7974C15.7445 19.8479 15.6846 19.8984 15.627 19.9497L15.3997 20.1493C15.062 20.4452 14.7906 20.6551 14.3811 20.6551C14.127 20.6551 13.9061 20.8271 13.8453 21.0709C13.8422 21.0812 13.5542 22.1077 12.3075 22.533C12.0045 21.9547 11.6352 21.4244 11.2281 20.9802C11.546 20.9076 11.7741 20.79 11.9737 20.6701C12.0258 20.6385 12.0755 20.6062 12.1236 20.5746C12.3422 20.4302 12.515 20.3158 12.9206 20.3734C13.0665 20.3947 13.2125 20.3568 13.3301 20.2685C13.4484 20.1801 13.525 20.0507 13.5455 19.9039C13.626 19.339 13.7688 18.9563 13.9944 18.6999C14.056 18.6304 14.1254 18.5673 14.2083 18.5081L14.2312 18.4923C14.2714 18.4639 14.3093 18.4403 14.3503 18.4174L14.3606 18.4119C14.3984 18.3906 14.4379 18.3708 14.4781 18.3519C14.6067 18.2911 14.7567 18.2359 14.935 18.1822C15.0589 18.1452 15.1662 18.0663 15.2372 17.959L15.238 17.955ZM11.535 15.3764V12.2479C11.535 11.9433 11.2872 11.6955 10.9827 11.6955H7.88489V9.14298C7.88489 8.83841 7.63635 8.58987 7.33178 8.59066H4.20323C3.89866 8.59066 3.65011 8.8392 3.6509 9.14377V11.6963H0.552329C0.404778 11.6963 0.265907 11.7539 0.161754 11.8581C0.0576 11.9622 0 12.0995 0 12.2471V15.3756C0 15.5232 0.0576 15.662 0.161754 15.7662C0.265907 15.8704 0.404778 15.928 0.552329 15.928H3.65011V24.9459C3.65011 25.2505 3.89787 25.499 4.20323 25.499H7.33178C7.47933 25.499 7.6182 25.4414 7.72235 25.3373C7.82651 25.2331 7.88411 25.0943 7.88411 24.9467V15.9287H10.9819C11.2865 15.9287 11.5342 15.6802 11.5342 15.3756L11.535 15.3764ZM6.77866 15.3764V24.3944H4.75556V15.3764C4.75556 15.0718 4.5078 14.8241 4.20244 14.8241H1.10624V12.801H4.20401C4.35157 12.801 4.49044 12.7434 4.59459 12.6392C4.69874 12.5351 4.75634 12.3962 4.75634 12.2487V9.6961H6.77945V12.2487C6.77945 12.5532 7.028 12.8018 7.33257 12.801H10.4296V14.8241H7.33178C7.02721 14.8241 6.77866 15.0726 6.77945 15.3772L6.77866 15.3764Z" fill="#900D14"/>
</g>
<defs>
<clipPath id="clip0_396_5857">
<rect width="19.2818" height="25" fill="white" transform="translate(0 0.5)"/>
</clipPath>
</defs>
</svg>
