<svg width="14" height="23" viewBox="0 0 14 23" fill="none" xmlns="http://www.w3.org/2000/svg">
<g clip-path="url(#clip0_348_10577)">
<path d="M13.018 6.83082H12.242C12.3562 6.38757 12.4139 5.92933 12.4139 5.46448C12.4143 2.45113 9.96275 0 6.94984 0C3.93693 0 1.48535 2.45113 1.48535 5.46448C1.48535 5.9258 1.54352 6.38404 1.65896 6.83082H0.881714C0.395718 6.83082 0.000488281 7.22605 0.000488281 7.71205C0.000488281 8.15707 0.33227 8.5263 0.761427 8.58535V10.3121C0.761427 12.5372 1.95064 14.5777 3.87788 15.6827C3.77258 16.0053 3.71926 16.3415 3.71926 16.6851C3.71926 17.4743 4.00214 18.2251 4.51853 18.8129C4.28016 19.6707 3.91666 20.485 3.43771 21.2371H2.37055C1.88455 21.2371 1.48932 21.6323 1.48932 22.1183C1.48932 22.6043 1.88455 22.9996 2.37055 22.9996H11.53C12.016 22.9996 12.4112 22.6043 12.4112 22.1183C12.4112 21.6323 12.016 21.2371 11.53 21.2371H10.4628C9.9839 20.485 9.62083 19.6703 9.38202 18.8129C9.89842 18.2251 10.1813 17.4743 10.1813 16.6851C10.1813 16.3423 10.128 16.0061 10.0222 15.6827C11.9499 14.5777 13.1391 12.5368 13.1391 10.3117V8.5849C13.5683 8.52586 13.8996 8.15707 13.8996 7.71161C13.8996 7.22561 13.5044 6.83038 13.0184 6.83038L13.018 6.83082ZM7.83106 5.91831H8.03022C8.51622 5.91831 8.91145 5.52308 8.91145 5.03709C8.91145 4.55109 8.51622 4.15586 8.03022 4.15586H7.83106V3.76063C7.83106 3.27464 7.43583 2.87941 6.94984 2.87941C6.46384 2.87941 6.06861 3.27464 6.06861 3.76063V4.15586H5.86945C5.38346 4.15586 4.98823 4.55109 4.98823 5.03709C4.98823 5.52308 5.38346 5.91831 5.86945 5.91831H6.06861V6.83082H3.50909C3.33813 6.39814 3.24825 5.92889 3.24825 5.46448C3.24825 3.42312 4.90892 1.76289 6.95028 1.76289C8.99164 1.76289 10.6519 3.42356 10.6519 5.46448C10.6519 5.93858 10.5646 6.3977 10.3919 6.83082H7.8315V5.91831H7.83106ZM6.94984 14.7381C4.50928 14.7381 2.52344 12.7527 2.52344 10.3117V8.59284H11.3762V10.3117C11.3762 12.7522 9.39039 14.7381 6.94984 14.7381ZM6.35677 18.7216C6.42947 18.3934 6.3061 18.0471 6.04217 17.8387C5.68572 17.5575 5.48127 17.1372 5.48127 16.6851C5.48127 16.5657 5.49537 16.4485 5.52357 16.3344C6.45591 16.5552 7.44332 16.5552 8.37566 16.3344C8.40386 16.449 8.41796 16.5662 8.41796 16.6851C8.41796 17.1372 8.21352 17.5575 7.85706 17.8387C7.59313 18.0466 7.46932 18.3934 7.54246 18.7212C7.73677 19.5976 8.03683 20.4422 8.43647 21.2371H5.46277C5.8624 20.4422 6.1629 19.5976 6.35677 18.7212V18.7216Z" fill="url(#paint0_linear_348_10577)"/>
</g>
<defs>
<linearGradient id="paint0_linear_348_10577" x1="6.95006" y1="22.9996" x2="6.95006" y2="0" gradientUnits="userSpaceOnUse">
<stop stop-color="#900D14"/>
<stop offset="1" stop-color="#AE1017"/>
</linearGradient>
<clipPath id="clip0_348_10577">
<rect width="13.8991" height="23" fill="white"/>
</clipPath>
</defs>
</svg>
