<svg width="22" height="22" viewBox="0 0 22 22" fill="none" xmlns="http://www.w3.org/2000/svg">
<g clip-path="url(#clip0_396_5851)">
<path d="M7.52878 3.67692C7.39333 3.81237 7.31895 3.99236 7.31895 4.18383V7.67663C7.31895 8.07196 7.64036 8.39337 8.03569 8.39337H11.394V18.3616C11.394 18.5531 11.4688 18.7331 11.6038 18.8686C11.7392 19.004 11.9192 19.0784 12.1102 19.0784H15.6035C15.795 19.0784 15.975 19.0035 16.1104 18.8686C16.2459 18.7331 16.3202 18.5531 16.3202 18.3616V8.39383H19.679C19.8704 8.39383 20.0504 8.31899 20.1859 8.184C20.3213 8.04854 20.3957 7.86856 20.3957 7.67709V4.18429C20.3957 3.99282 20.3209 3.81283 20.1859 3.67738C20.0504 3.54193 19.8704 3.46755 19.6794 3.46755H16.3212V0.716283C16.3212 0.32095 15.9998 0 15.6044 0H12.1112C11.9197 0 11.7397 0.0748424 11.6042 0.209834C11.4688 0.345285 11.3944 0.525274 11.3944 0.716742V3.46709H8.03569C7.84422 3.46709 7.66423 3.54193 7.52878 3.67692ZM8.75243 4.90057H12.1112C12.3026 4.90057 12.4826 4.82573 12.6181 4.69074C12.7535 4.55529 12.8279 4.3753 12.8279 4.18383V1.43348H14.8868V4.18383C14.8868 4.3753 14.9616 4.55529 15.0966 4.69074C15.232 4.82619 15.412 4.90057 15.603 4.90057H18.9618V6.95989H15.603C15.4116 6.95989 15.2316 7.03473 15.0961 7.16972C14.9607 7.30517 14.8863 7.48516 14.8863 7.67663V17.6444H12.8274V7.67617C12.8274 7.28084 12.506 6.95989 12.1107 6.95989H8.75243V4.90103V4.90057ZM20.679 8.66427L20.673 8.67024C20.4076 8.93563 20.0546 9.0821 19.679 9.0821H19.2685C19.4811 9.85486 19.5903 10.6579 19.5903 11.4702V11.568C19.1284 11.674 18.7056 11.9082 18.3708 12.2439C17.9365 11.8145 17.5838 11.3095 17.3299 10.7544C17.1729 10.5197 17.0659 10.2626 17.009 9.9972V12.951C17.4351 13.4528 17.8382 13.7049 18.2634 13.7536C18.3088 13.7591 18.3543 13.7623 18.4002 13.7623C18.791 13.7563 19.1597 13.58 19.4094 13.2792C19.0522 15.008 18.2069 16.5668 17.009 17.7932V18.3612C17.0094 18.7363 16.863 19.0894 16.5976 19.3548C16.3326 19.6202 15.9795 19.7667 15.604 19.7667H12.3701C12.293 19.9664 12.2264 20.1712 12.1704 20.3792C11.6295 20.4793 11.0804 20.5302 10.5298 20.5307C10.4857 20.5307 10.4435 20.5252 10.4003 20.5238C10.4871 19.7983 10.3411 19.0642 9.98435 18.4268C9.56973 17.8942 9.02701 17.4755 8.40623 17.2101C7.67755 16.8304 7.44843 16.6609 7.43236 16.3432C7.41216 15.9433 7.41216 15.5424 7.43236 15.1425C7.47276 14.7003 7.44338 14.254 7.34558 13.8211C7.22115 13.2861 6.72434 13.0373 6.0953 12.7191C4.76145 12.0473 2.55061 10.9224 2.6328 7.03794C3.68059 5.13566 5.35238 3.72697 7.29599 2.98865C7.49251 2.9138 7.69178 2.84585 7.89381 2.7857C8.7933 2.51434 9.74145 2.38302 10.7052 2.40873V0.942188C10.6469 0.940811 10.5886 0.940351 10.5298 0.940351C4.71415 0.940351 0 5.65451 0 11.4702C0 17.2858 4.71415 22 10.5298 22C16.3455 22 21.0596 17.2858 21.0596 11.4702C21.0587 10.4986 20.926 9.55733 20.679 8.66427ZM8.95079 20.3829C4.62829 19.6142 1.4771 15.8602 1.4693 11.4702C1.47251 10.9991 1.51246 10.5284 1.5896 10.0638C2.26731 11.8623 3.65993 13.2995 5.43641 14.0336C5.6164 14.1246 5.82807 14.2297 5.94837 14.3068C5.98831 14.5598 5.99612 14.817 5.97224 15.0718C5.94883 15.519 5.94883 15.9667 5.97224 16.4139C6.02964 17.6238 7.01407 18.138 7.7354 18.5132C8.13716 18.678 8.49622 18.9333 8.78319 19.2593C8.93655 19.6128 8.99441 20.0004 8.95079 20.3829ZM6.63021 7.05126V7.67709L6.74317 8.49806C6.75556 8.50908 6.67475 8.58714 6.65868 8.63075C6.66373 8.62662 6.68669 8.66565 6.7372 8.71754C7.21288 9.15465 7.49894 9.76028 7.53337 10.4054C7.53842 10.5528 7.56873 10.6979 7.62337 10.8342C7.67755 10.9421 7.94478 11.1988 9.28873 11.0459C9.75798 10.9082 10.2429 10.8893 10.7052 10.9784V12.4835C10.4293 12.3867 10.0959 12.422 9.45907 12.5014C8.75473 12.5781 6.90066 12.7884 6.28171 11.4243C6.16141 11.1423 6.0907 10.8425 6.07188 10.5367C6.06683 10.2254 5.92311 9.93292 5.68022 9.73824C5.26055 9.35438 5.09342 8.76712 5.24723 8.22027C5.43136 7.65459 5.88776 7.21931 6.4617 7.06228C6.51772 7.05677 6.5742 7.05264 6.63021 7.05126Z" fill="#900D14"/>
</g>
<defs>
<clipPath id="clip0_396_5851">
<rect width="21.0596" height="22" fill="white"/>
</clipPath>
</defs>
</svg>
