<svg width="21" height="20" viewBox="0 0 21 20" fill="none" xmlns="http://www.w3.org/2000/svg">
<g clip-path="url(#clip0_348_10532)">
<path d="M19.0107 6.24626L10.6197 0.193075C10.2589 -0.0644236 9.79279 -0.0644237 9.43158 0.193467L1.04213 6.24548C0.399163 6.70451 0 7.48562 0 8.28316V18.9694C0 19.5376 0.462168 19.9998 1.03039 19.9998H7.33363C7.90185 19.9998 8.36402 19.5376 8.36402 18.9694V15.004C8.36402 14.107 9.06647 13.4046 9.96341 13.4046C10.8604 13.4046 11.5628 14.107 11.5628 15.004V18.9694C11.5628 19.5376 12.025 19.9998 12.5932 19.9998H18.9798C19.5171 19.9998 19.9977 19.565 20.0513 19.0304L20.052 19.0206V8.28316C20.052 7.48523 19.6529 6.70451 19.0107 6.24587V6.24626ZM12.5595 12.4497C11.8731 11.7633 10.966 11.3853 10.0053 11.3853C9.04455 11.3853 8.13744 11.7633 7.45103 12.4497C6.76463 13.1361 6.3866 14.0432 6.3866 15.004V17.939H2.01929V8.24168C2.01929 8.10667 2.10539 7.9517 2.23022 7.85778L10.0049 2.26324L17.7772 7.8973C17.9052 7.99318 17.9913 8.14854 17.9913 8.28355V17.9809H13.624V15.004C13.624 14.0432 13.2459 13.1361 12.5595 12.4497Z" fill="url(#paint0_linear_348_10532)"/>
</g>
<defs>
<linearGradient id="paint0_linear_348_10532" x1="10.026" y1="19.9998" x2="10.026" y2="0" gradientUnits="userSpaceOnUse">
<stop stop-color="#900D14"/>
<stop offset="1" stop-color="#AE1017"/>
</linearGradient>
<clipPath id="clip0_348_10532">
<rect width="20.052" height="20" fill="white"/>
</clipPath>
</defs>
</svg>
