<svg width="30" height="30" viewBox="0 0 30 30" fill="none" xmlns="http://www.w3.org/2000/svg">
<g clip-path="url(#clip0_353_9363)">
<path d="M23.6782 0H6.32184C2.83621 0 0 2.83621 0 6.32184V23.6782C0 27.1638 2.83621 30 6.32184 30H23.6782C27.1638 30 30 27.1638 30 23.6782V6.32184C30 2.83621 27.1638 0 23.6782 0ZM24.8276 27.5339V22.7586H27.7011V23.6782C27.7011 25.4626 26.5121 27.031 24.8276 27.5339ZM27.7011 16.1494V20.4598H24.8276V16.1494H27.7011ZM27.7011 9.54023V13.8506H24.8276V9.54023H27.7011ZM27.7011 6.32184V7.24138H24.8276V2.46609C26.5121 2.96897 27.7011 4.53736 27.7011 6.32184ZM6.32184 2.29885H22.5287V27.7011H6.32184C4.10345 27.7011 2.29885 25.8966 2.29885 23.6782V6.32184C2.29885 4.10345 4.10345 2.29885 6.32184 2.29885Z" fill="url(#paint0_linear_353_9363)"/>
<path d="M12.4138 23.9662C17.3574 23.9662 21.3793 19.9444 21.3793 15.0007C21.3793 10.057 17.3574 6.03516 12.4138 6.03516C7.47008 6.03516 3.44824 10.057 3.44824 15.0007C3.44824 19.9444 7.47008 23.9662 12.4138 23.9662ZM12.4138 8.33401C16.0896 8.33401 19.0804 11.3248 19.0804 15.0007C19.0804 16.5495 18.5546 18.0168 17.5862 19.2024V18.9087C17.5862 17.7173 16.8557 16.665 15.7701 16.2363C16.0189 15.7277 16.1494 15.1685 16.1494 14.5984C16.1494 12.5386 14.4735 10.8627 12.4138 10.8627C10.354 10.8627 8.67813 12.5386 8.67813 14.5984C8.67813 15.1685 8.80859 15.7283 9.05744 16.2363C7.97238 16.665 7.24135 17.7168 7.24135 18.9087V19.2024C6.27295 18.0168 5.74709 16.5495 5.74709 15.0007C5.74709 11.3248 8.7379 8.33401 12.4138 8.33401ZM12.4138 13.1616C13.2063 13.1616 13.8505 13.8058 13.8505 14.5984C13.8505 15.3909 13.2063 16.0352 12.4138 16.0352C11.6212 16.0352 10.977 15.3909 10.977 14.5984C10.977 13.8058 11.6212 13.1616 12.4138 13.1616ZM9.5402 18.9087C9.5402 18.5921 9.79824 18.334 10.1149 18.334H14.7126C15.0293 18.334 15.2873 18.5921 15.2873 18.9087V21.0156C14.3873 21.4484 13.4212 21.6673 12.4138 21.6673C11.4063 21.6673 10.4402 21.4484 9.5402 21.0156V18.9087Z" fill="url(#paint1_linear_353_9363)"/>
</g>
<defs>
<linearGradient id="paint0_linear_353_9363" x1="15" y1="30" x2="15" y2="0" gradientUnits="userSpaceOnUse">
<stop stop-color="#900D14"/>
<stop offset="1" stop-color="#AE1017"/>
</linearGradient>
<linearGradient id="paint1_linear_353_9363" x1="12.4138" y1="23.9662" x2="12.4138" y2="6.03516" gradientUnits="userSpaceOnUse">
<stop stop-color="#900D14"/>
<stop offset="1" stop-color="#AE1017"/>
</linearGradient>
<clipPath id="clip0_353_9363">
<rect width="30" height="30" fill="white"/>
</clipPath>
</defs>
</svg>
