<svg width="20" height="22" viewBox="0 0 20 22" fill="none" xmlns="http://www.w3.org/2000/svg">
<g clip-path="url(#clip0_348_10538)">
<path d="M18.613 17.1465C18.3661 15.6652 17.3278 14.4504 15.903 13.9752L13.0587 13.0274V12.5217H12.1191L13.2657 11.3748C13.7122 10.9283 14.0491 10.3809 14.2461 9.78348C15.1652 9.6113 15.8413 8.81261 15.8413 7.86913C15.8413 7.2913 15.5891 6.75565 15.1457 6.3813V5.43435C15.1457 2.43783 12.7074 0 9.71087 0C6.71435 0 4.27609 2.43783 4.27609 5.43478V6.38174C3.83261 6.75609 3.58043 7.29174 3.58043 7.86957C3.58043 8.81261 4.25652 9.61174 5.17565 9.78391C5.37217 10.3804 5.70913 10.9283 6.15609 11.3752L7.30261 12.5222H6.36304V13.0278L3.51913 13.9757C2.09478 14.4504 1.05652 15.6657 0.80913 17.147L0 22H19.4213L18.613 17.1465ZM1.33478 20.8696L1.92391 17.3326C2.10174 16.2657 2.85 15.3904 3.87652 15.0478L3.93391 15.0287C3.6513 16.0617 3.28304 17.9509 3.23957 20.8691H1.33478V20.8696ZM15.5457 15.0478C16.5717 15.39 17.32 16.2652 17.4983 17.3326L18.0874 20.8696H16.1826C16.1391 17.95 15.7709 16.0613 15.4887 15.0291L15.5457 15.0483V15.0478ZM9.58043 20.6087V18.8696H9.8413V20.6087H11.5848C11.5839 20.6939 11.583 20.7804 11.5826 20.8696H7.83913C7.8387 20.7848 7.83783 20.6978 7.83696 20.6087H9.58043ZM12.1439 15.6335C12.5565 15.3117 12.9139 14.867 13.0222 14.207L14.1578 14.5852C14.3957 15.2109 14.9948 17.1491 15.0517 20.8696H12.713C12.7265 18.9296 12.8113 18.0035 12.893 17.107C12.93 16.7087 12.9626 16.3435 12.9904 15.9057L13.0043 15.6887L12.1435 15.6335H12.1439ZM8.45 17.7391V19.4783H7.81391C7.77913 18.3735 7.71565 17.6778 7.65435 17.0039C7.61652 16.5935 7.58565 16.247 7.55956 15.8335V15.8309C7.80869 15.9891 8.06261 16.1126 8.28217 16.2196C8.94043 16.5409 9.14565 16.6787 9.14565 16.913V17.4783H10.2761V16.913C10.2761 16.6783 10.4813 16.5409 11.1396 16.22C11.3596 16.1126 11.6135 15.9891 11.8626 15.8304V15.833C11.8357 16.2561 11.8035 16.6104 11.7691 16.9861L11.7674 17.0035C11.7061 17.6774 11.643 18.373 11.6078 19.4778H10.9713V17.7387H8.44956L8.45 17.7391ZM10.6448 15.2039C10.3522 15.3465 9.99956 15.5187 9.7113 15.7626C9.42304 15.5183 9.07043 15.3465 8.77783 15.2039C8.51783 15.0774 8.26522 14.9543 8.05391 14.8035C8.54696 14.963 9.1013 15.0435 9.71087 15.0435C10.3204 15.0435 10.8743 14.963 11.3678 14.8035C11.157 14.9539 10.9043 15.077 10.6448 15.2039ZM6.4313 15.9057C6.45956 16.35 6.49478 16.7348 6.5287 17.1065C6.61043 18.0052 6.69478 18.9335 6.7087 20.8696H4.37C4.42739 17.1504 5.02652 15.2113 5.26391 14.5852L6.39956 14.2065C6.50783 14.867 6.86522 15.3117 7.27783 15.6335L6.41739 15.6887L6.4313 15.9057ZM9.25869 4.88609C8.71478 5.5387 7.91565 5.91304 7.06565 5.91304H5.40652V5.43478C5.40652 3.0613 7.33739 1.13043 9.71087 1.13043C12.0843 1.13043 13.8822 2.9313 14.0083 5.19217C13.4826 4.35696 12.5583 3.82609 11.5209 3.82609C10.6439 3.82609 9.81956 4.21217 9.25869 4.88609ZM6.10217 7.04348H7.06565C8.25174 7.04348 9.36783 6.52087 10.1274 5.60913C10.4726 5.19435 10.9804 4.95652 11.5209 4.95652C12.4057 4.95652 13.1548 5.58609 13.3083 6.45565L13.3196 8.51565C13.3196 9.29348 13.0165 10.0248 12.4665 10.5757L11.1104 11.9322C10.9543 12.0883 10.7465 12.1739 10.5261 12.1739H8.89609C8.67522 12.1739 8.46783 12.0883 8.31174 11.9322L6.95565 10.5757C6.40522 10.0252 6.10261 9.29348 6.10261 8.51565V7.04348H6.10217ZM14.45 7.27217C14.6126 7.42478 14.7109 7.63957 14.7109 7.86957C14.7109 8.09957 14.613 8.31522 14.45 8.46739V7.27217ZM4.97174 7.27217V8.46739C4.8087 8.31522 4.71087 8.10087 4.71087 7.86957C4.71087 7.63826 4.80913 7.42478 4.97174 7.27217ZM7.51217 12.7313C7.88174 13.1009 8.37304 13.3043 8.89565 13.3043H10.5257C11.0483 13.3043 11.54 13.1009 11.9091 12.7313L11.9278 12.7126V13.2235C11.7017 13.4413 11.0561 13.913 9.71043 13.913C8.36478 13.913 7.71913 13.4417 7.49304 13.2235V12.7126L7.51174 12.7313H7.51217Z" fill="url(#paint0_linear_348_10538)"/>
</g>
<defs>
<linearGradient id="paint0_linear_348_10538" x1="9.71065" y1="22" x2="9.71065" y2="0" gradientUnits="userSpaceOnUse">
<stop stop-color="#900D14"/>
<stop offset="1" stop-color="#AE1017"/>
</linearGradient>
<clipPath id="clip0_348_10538">
<rect width="19.4213" height="22" fill="white"/>
</clipPath>
</defs>
</svg>
