<svg width="17" height="22" viewBox="0 0 17 22" fill="none" xmlns="http://www.w3.org/2000/svg">
<g clip-path="url(#clip0_348_10569)">
<path d="M15.9544 0H2.25663C1.01233 0 0 1.01233 0 2.25663V19.6103C0 20.9281 1.07192 22 2.38968 22H15.9544C16.4032 22 16.7688 21.6344 16.7688 21.1855V0.814493C16.7688 0.365596 16.4032 0 15.9544 0ZM2.85825 14.135C3.00634 14.2646 3.20244 14.3364 3.41011 14.3364C3.80463 14.3364 4.22461 14.0535 4.22461 13.5294V1.62841H15.1404V17.2206H2.38968C2.12995 17.2206 1.8731 17.2634 1.62899 17.3456V2.25663C1.62899 1.91013 1.9107 1.62841 2.25663 1.62841H2.59562V13.5288C2.59562 13.7712 2.68875 13.9864 2.85825 14.1345V14.135ZM2.38968 18.849H15.1404V20.371H2.38968C1.87137 20.371 1.6394 19.9886 1.6394 19.6097C1.6394 19.2308 1.87137 18.8485 2.38968 18.8485V18.849Z" fill="url(#paint0_linear_348_10569)"/>
<path d="M6.39391 9.83024H7.98414V14.1613C7.98414 14.3846 8.12297 14.5749 8.31965 14.6513L9.23364 15.1083C9.38752 15.1852 9.56106 15.1788 9.70337 15.1071L10.6596 14.6287C10.8424 14.5373 10.9488 14.3528 10.9488 14.1613L10.9511 9.83024H12.5414C12.8312 9.83024 13.066 9.59538 13.066 9.30498V7.87036C13.066 7.58055 12.8312 7.34569 12.5414 7.34569H10.9205V5.95445C10.9205 5.78149 10.8366 5.62819 10.707 5.53217L10.1667 5.0555C10.0672 4.96757 9.94343 4.92419 9.82022 4.92419L9.11506 4.92188C8.96523 4.92188 8.83045 4.98435 8.73442 5.08501L8.19297 5.56283C8.07612 5.66637 8.01653 5.80983 8.01653 5.95445L8.0148 7.34569H6.39391C6.10409 7.34569 5.86865 7.58055 5.86865 7.87036V9.30498C5.86865 9.5948 6.10351 9.83024 6.39391 9.83024ZM6.91916 8.39562H8.54005C8.82987 8.39562 9.06531 8.16076 9.06531 7.87036V6.18874L9.31058 5.97239H9.62469L9.86997 6.18874V7.87036C9.86997 8.16018 10.1048 8.39562 10.3952 8.39562H12.0161V8.78031H10.4259C10.1361 8.78031 9.90063 9.01517 9.90063 9.30498V13.8391L9.46735 14.056L9.03407 13.8391V9.30498C9.03407 9.01517 8.79921 8.78031 8.50881 8.78031H6.91859V8.39562H6.91916Z" fill="url(#paint1_linear_348_10569)"/>
</g>
<defs>
<linearGradient id="paint0_linear_348_10569" x1="8.38442" y1="22" x2="8.38442" y2="0" gradientUnits="userSpaceOnUse">
<stop stop-color="#900D14"/>
<stop offset="1" stop-color="#AE1017"/>
</linearGradient>
<linearGradient id="paint1_linear_348_10569" x1="9.46735" y1="15.1635" x2="9.46735" y2="4.92188" gradientUnits="userSpaceOnUse">
<stop stop-color="#900D14"/>
<stop offset="1" stop-color="#AE1017"/>
</linearGradient>
<clipPath id="clip0_348_10569">
<rect width="16.7688" height="22" fill="white"/>
</clipPath>
</defs>
</svg>
