<svg width="24" height="22" viewBox="0 0 24 22" fill="none" xmlns="http://www.w3.org/2000/svg">
<g clip-path="url(#clip0_348_10556)">
<path d="M21.282 16.1995C21.282 15.6536 21.8343 14.993 22.4187 14.2938C23.1436 13.427 23.9654 12.444 23.9654 11.3706C23.9654 9.38038 22.8131 8.26521 21.5932 7.08438C21.4335 6.92966 21.2682 6.76989 21.1043 6.60691L20.4119 2.6774C20.2412 1.70685 19.3133 1.05629 18.3391 1.22754C18.1917 1.25325 18.0769 1.28768 17.9879 1.32257C17.8772 0.914887 17.6284 0.562751 17.2762 0.319882C16.8823 0.0480905 16.4058 -0.0538315 15.9352 0.0329399C15.213 0.165622 14.6547 0.721143 14.5064 1.42312C13.6323 1.33589 12.8036 1.90381 12.5892 2.78024C12.53 3.02265 12.5217 3.27011 12.5649 3.51573L12.6953 4.25995C12.4377 4.31275 12.1944 4.42155 11.9832 4.57811C11.772 4.42109 11.5287 4.31229 11.2711 4.25995L11.4015 3.51619C11.4841 3.04469 11.3785 2.56951 11.1035 2.17743C10.8285 1.78581 10.4176 1.52412 9.94612 1.44148C9.78405 1.41302 9.62153 1.40705 9.46038 1.42312C9.38187 1.04481 9.18354 0.703238 8.88741 0.444301C8.52701 0.128894 8.06607 -0.0276623 7.58814 0.00401612C6.82051 0.054518 6.17868 0.585706 5.97805 1.3189C5.8876 1.28401 5.77053 1.24912 5.61902 1.22249C4.65581 1.06731 3.7275 1.72108 3.54936 2.68291L2.86162 6.60737C2.6968 6.77127 2.53106 6.9315 2.36992 7.08714C1.15098 8.26521 0 9.37809 0 11.3706C0 12.439 0.822263 13.4251 1.54719 14.2951C2.13164 14.9962 2.68349 15.6582 2.68349 16.1995C2.68349 16.5415 2.49433 17.6218 1.22857 21.0165C1.16154 21.1969 1.16843 21.3925 1.24877 21.5679C1.32912 21.7432 1.47236 21.8764 1.65279 21.9434C2.02513 22.0821 2.44108 21.892 2.57927 21.5201C3.64945 18.6801 4.12646 17.238 4.126 16.2027C4.12555 15.1087 3.58885 14.4655 2.70001 13.3994L2.62931 13.3145L2.6261 13.3108C2.00125 12.5928 1.44022 11.9041 1.43839 11.3729C1.45859 10.5663 1.76665 9.7922 2.3061 9.19261C2.89743 8.60127 3.30374 8.19175 3.57278 7.92042C3.78489 7.70693 3.93042 7.55956 4.01949 7.47233C4.36382 7.7859 4.48594 8.29275 4.30597 8.73396C4.20956 8.97591 4.12692 9.17745 4.05806 9.34687C3.72796 10.1558 3.65909 10.3243 3.82758 10.6379C3.9823 10.923 4.26006 10.9914 4.5819 11.0704C4.98959 11.1709 5.54786 11.3082 6.33753 11.9C6.92289 12.3522 7.40863 12.9398 7.74194 13.5996L7.7502 13.6143C7.84937 13.7791 8.00638 13.8952 8.19278 13.9416C8.37918 13.988 8.57247 13.9591 8.73729 13.8599C9.0403 13.6776 9.16655 13.2938 9.03065 12.9669L9.02377 12.9522C8.28461 11.4799 6.98395 10.3486 5.42987 9.81653L5.64795 9.2656C5.93764 8.52828 5.87383 7.70555 5.47211 7.00817C5.20399 6.54217 4.81145 6.19279 4.40973 6.05001L4.96434 2.94231C4.98454 2.84865 5.03963 2.76785 5.11997 2.71551C5.20123 2.66225 5.29811 2.64389 5.39314 2.66363C5.48037 2.68153 5.5575 2.73112 5.6103 2.80228C5.66677 2.88354 5.67044 2.88951 5.66264 3.00521C5.6507 3.18701 5.59056 3.51895 5.47027 4.1796C5.40737 4.52577 5.32887 4.95642 5.23245 5.50321C5.16359 5.89805 5.42849 6.27543 5.82287 6.3443C6.2177 6.41317 6.59509 6.14826 6.66395 5.75343L7.35904 1.72934C7.37557 1.63615 7.42791 1.55488 7.5055 1.50071C7.58309 1.44653 7.67766 1.42587 7.77086 1.4424C7.96369 1.47683 8.09224 1.6614 8.05781 1.85468L7.12168 7.13718C7.09138 7.32679 7.13638 7.51686 7.24886 7.67296C7.36134 7.8286 7.528 7.93144 7.71761 7.96174C7.78693 7.97276 7.85763 7.97367 7.9265 7.96449C8.20564 7.92822 8.38056 7.83456 8.50727 7.4434C8.61103 7.12295 8.70652 6.55549 8.89751 5.42516C8.99806 4.83016 9.12248 4.09008 9.28776 3.15533C9.30979 3.06535 9.36443 2.98914 9.44293 2.93955C9.52282 2.88951 9.6174 2.87344 9.70968 2.8941C9.88689 2.9345 10.0035 3.10024 9.98193 3.28021L8.97878 8.99473C8.90991 9.38956 9.17482 9.76695 9.56919 9.83582C9.96402 9.90514 10.3414 9.63978 10.4103 9.24586L11.0347 5.71303C11.1549 5.75848 11.2459 5.8682 11.2615 6.00456C11.2615 6.00823 11.2624 6.0119 11.2624 6.01604V13.163C11.2624 14.5141 10.8597 15.1945 10.3506 16.0554C9.74503 17.0787 8.99117 18.3523 8.66337 21.1987C8.61975 21.5945 8.90624 21.9521 9.30245 21.9958C9.32908 21.9985 9.3557 22.0003 9.38187 22.0003C9.74503 22.0003 10.0586 21.7263 10.0995 21.3571V21.3521C10.2464 19.6901 10.7941 18.0658 11.6838 16.6545C11.8262 16.4483 11.9281 16.2743 12.0015 16.1329C12.075 16.2743 12.1769 16.4483 12.3192 16.6545C13.2058 18.0667 13.7498 19.691 13.8935 21.3521V21.3576C13.9376 21.7533 14.2952 22.0403 14.691 21.9967C14.8829 21.9756 15.0546 21.881 15.1754 21.7304C15.2961 21.5798 15.3507 21.3916 15.3296 21.1974C14.9844 18.3408 14.2268 17.0764 13.6185 16.0609C13.1062 15.2055 12.7017 14.5302 12.7017 13.1643V6.01328C12.7031 5.91916 12.7412 5.83102 12.8091 5.76536C12.8477 5.72818 12.8931 5.70017 12.9427 5.6841L13.568 9.22291C13.6369 9.61774 14.0143 9.88265 14.4091 9.81332C14.8039 9.74399 15.0688 9.36707 14.9995 8.97132L13.9812 3.27654C13.9642 3.18104 13.9858 3.08509 14.0414 3.00566C14.0969 2.92624 14.18 2.87344 14.275 2.85645C14.4715 2.82156 14.6598 2.95333 14.6947 3.15028L15.4439 7.38602C15.4775 7.57746 15.5835 7.74412 15.7424 7.85568C15.9012 7.96725 16.094 8.00994 16.2855 7.97689C16.6803 7.90756 16.9452 7.53063 16.8759 7.13397L15.9067 1.84779C15.8741 1.65543 16.004 1.47178 16.1964 1.43919C16.2896 1.42312 16.3837 1.4447 16.4609 1.49933C16.538 1.55396 16.5894 1.63569 16.6055 1.7298L17.3107 5.75526C17.3795 6.1501 17.7569 6.415 18.1518 6.34568C18.3432 6.31216 18.5099 6.20611 18.6214 6.04726C18.733 5.8884 18.7761 5.69558 18.7422 5.50275C18.6692 5.10287 18.6058 4.76405 18.5526 4.47619C18.4029 3.67091 18.3281 3.2669 18.3101 3.0479C18.2982 2.89961 18.3042 2.89089 18.3643 2.80503L18.3652 2.80366C18.4226 2.72653 18.5062 2.67603 18.6012 2.66179C18.6967 2.6471 18.7927 2.67052 18.8712 2.7279C18.9428 2.78024 18.9924 2.85691 19.0112 2.94369L19.5566 6.05552C19.1535 6.19647 18.7605 6.54493 18.4915 7.01092C18.0916 7.70372 18.0287 8.51955 18.3175 9.24678L18.5388 9.81883C16.9898 10.3555 15.6932 11.4891 14.9573 12.9596L14.9509 12.9743C14.8769 13.1515 14.8765 13.3471 14.9499 13.5247C15.0229 13.7024 15.1611 13.8411 15.3383 13.915C15.6652 14.0509 16.0486 13.9251 16.2313 13.6216L16.2396 13.6065C16.572 12.9472 17.0577 12.3614 17.6417 11.9137C18.4543 11.304 19.0043 11.1695 19.406 11.0708C19.7169 10.9946 19.985 10.929 20.1498 10.6526L20.1548 10.6438C20.321 10.3339 20.2549 10.1714 19.9363 9.39048C19.8647 9.2151 19.7784 9.00391 19.6751 8.74406C19.4937 8.3024 19.6168 7.79416 19.9671 7.48013C20.0823 7.5917 20.294 7.80426 20.6305 8.14171C20.8885 8.4011 21.2296 8.74314 21.68 9.19352C22.2098 9.79725 22.511 10.5718 22.5289 11.3747C22.5271 11.9248 21.9036 12.669 21.3527 13.3264C20.4234 14.442 19.8624 15.1156 19.8596 16.2349C19.8569 17.3 20.3518 18.7342 21.4018 21.5311C21.4688 21.7116 21.6024 21.8548 21.7773 21.9352C21.9523 22.0155 22.1483 22.0224 22.3287 21.9554C22.7011 21.8167 22.8916 21.4007 22.7525 21.0275C21.4266 17.5222 21.2833 16.4851 21.2833 16.2018L21.282 16.1995Z" fill="url(#paint0_linear_348_10556)"/>
</g>
<defs>
<linearGradient id="paint0_linear_348_10556" x1="11.9827" y1="22.0011" x2="11.9827" y2="0" gradientUnits="userSpaceOnUse">
<stop stop-color="#900D14"/>
<stop offset="1" stop-color="#AE1017"/>
</linearGradient>
<clipPath id="clip0_348_10556">
<rect width="23.9654" height="22" fill="white"/>
</clipPath>
</defs>
</svg>
