<svg width="15" height="15" viewBox="0 0 15 15" fill="none" xmlns="http://www.w3.org/2000/svg">
<path fill-rule="evenodd" clip-rule="evenodd" d="M7.5001 1.65001C4.26923 1.65001 1.6501 4.26914 1.6501 7.50001C1.6501 10.7309 4.26923 13.35 7.5001 13.35C10.731 13.35 13.3501 10.7309 13.3501 7.50001C13.3501 4.26914 10.731 1.65001 7.5001 1.65001ZM0.350098 7.50001C0.350098 3.55117 3.55126 0.350006 7.5001 0.350006C11.4489 0.350006 14.6501 3.55117 14.6501 7.50001C14.6501 11.4488 11.4489 14.65 7.5001 14.65C3.55126 14.65 0.350098 11.4488 0.350098 7.50001Z" fill="#9E9E9E"/>
<path fill-rule="evenodd" clip-rule="evenodd" d="M7.5001 3.13571C7.85908 3.13571 8.1501 3.42673 8.1501 3.78571V6.85H10.2858C10.6448 6.85 10.9358 7.14101 10.9358 7.5C10.9358 7.85898 10.6448 8.15 10.2858 8.15H7.5651C7.17021 8.15 6.8501 7.82988 6.8501 7.435V3.78571C6.8501 3.42673 7.14111 3.13571 7.5001 3.13571Z" fill="#9E9E9E"/>
</svg>
