<svg width="28" height="32" viewBox="0 0 28 32" fill="none" xmlns="http://www.w3.org/2000/svg">
<g clip-path="url(#clip0_353_9358)">
<path d="M22.5461 25.3983V9.06569H17.1267V8.23743C17.7926 7.84558 18.5782 7.16686 18.8687 6.06638C19.2697 4.5478 18.5714 2.82353 16.7929 0.940566L15.9042 0L15.0155 0.940566C13.2369 2.82353 12.5386 4.5478 12.9396 6.06638C13.2302 7.16686 14.0163 7.84497 14.6816 8.23743V9.06569H9.26223V25.3989H7.73266C7.77111 25.178 7.79004 24.9546 7.79004 24.7306C7.79004 23.6899 7.38476 22.7115 6.64866 21.9754C5.91379 21.2406 4.93538 20.8359 3.89349 20.8359C2.85161 20.8359 1.8732 21.2406 1.13832 21.9754C0.403448 22.7103 0 23.6881 0 24.73C0 25.7719 0.404669 26.7503 1.13954 27.4852C1.87442 28.22 2.85283 28.6247 3.89471 28.6247C4.11871 28.6247 4.34211 28.6052 4.56306 28.5667V28.9439C4.56306 30.6291 5.93393 32 7.61913 32H24.1892C25.8744 32 27.2453 30.6291 27.2453 28.9439V25.3989H22.5455L22.5461 25.3983ZM16.5066 5.43587C16.4242 5.75692 16.1349 5.98703 15.9048 6.12375C15.6759 5.98703 15.3872 5.75814 15.3036 5.44198C15.1943 5.02754 15.4067 4.41596 15.9042 3.69696C16.3998 4.4123 16.6122 5.02205 16.5066 5.43587ZM20.1016 11.5102V25.3989H11.7067V11.5102H20.1016ZM24.8014 27.8428V28.9439C24.8014 29.2815 24.5267 29.5555 24.1898 29.5555H7.61913C7.2816 29.5555 7.00755 29.2808 7.00755 28.9439V27.8428H24.8014ZM2.86809 23.7034C3.14214 23.4293 3.50713 23.2779 3.89471 23.2779C4.28229 23.2779 4.64729 23.4287 4.92134 23.7034C5.19539 23.9774 5.34676 24.3418 5.34676 24.73C5.34676 25.1182 5.196 25.4826 4.92134 25.7566C4.64668 26.0307 4.2829 26.1808 3.89471 26.1808C3.50652 26.1808 3.14153 26.0301 2.86809 25.7566C2.59464 25.4832 2.44266 25.1176 2.44266 24.73C2.44266 24.3424 2.59342 23.9774 2.86809 23.7034ZM14.6822 16.9912H12.9305V14.5467H14.6822V12.7126H17.1267V14.5467H18.8785V16.9912H17.1267V21.0568H14.6822V16.9912Z" fill="url(#paint0_linear_353_9358)"/>
</g>
<defs>
<linearGradient id="paint0_linear_353_9358" x1="13.6226" y1="32" x2="13.6226" y2="0" gradientUnits="userSpaceOnUse">
<stop stop-color="#900D14"/>
<stop offset="1" stop-color="#AE1017"/>
</linearGradient>
<clipPath id="clip0_353_9358">
<rect width="27.2459" height="32" fill="white"/>
</clipPath>
</defs>
</svg>
