<svg width="22" height="22" viewBox="0 0 22 22" fill="none" xmlns="http://www.w3.org/2000/svg">
<g clip-path="url(#clip0_348_10562)">
<path d="M21.101 21.2275V16.7318C21.101 16.5207 20.9986 16.32 20.8262 16.1957L17.5043 13.8077V11.1661C17.5802 11.1956 17.6611 11.2107 17.7433 11.2107C17.9334 11.2107 18.1142 11.1285 18.2398 10.9848C18.4792 10.7113 18.4513 10.2936 18.1778 10.0526L11.2107 3.95663V3.11835H12.3487C12.7128 3.11835 13.0091 2.82207 13.0091 2.45793C13.0091 2.09379 12.7128 1.79751 12.3487 1.79751H11.2107V0.660421C11.2107 0.296284 10.9144 0 10.5503 0C10.1862 0 9.88988 0.296284 9.88988 0.660421V1.79835H8.75195C8.38782 1.79835 8.09153 2.09464 8.09153 2.45877C8.09153 2.82291 8.38782 3.1192 8.75195 3.1192H9.88988V3.95747L2.92322 10.053C2.64927 10.2928 2.62146 10.7109 2.86126 10.9852C3.04881 11.1993 3.3451 11.2634 3.5967 11.1665V13.8082L0.274368 16.1961C0.102835 16.3205 0 16.5207 0 16.7318V21.2275C0 21.249 0.00252874 21.2679 0.00547893 21.2835C0.00252874 21.2995 0 21.3185 0 21.3396C0 21.7037 0.296283 22 0.660421 22H20.4406C20.8048 22 21.101 21.7037 21.101 21.3396C21.101 21.3181 21.0985 21.2991 21.0956 21.2835C21.0985 21.2675 21.101 21.2485 21.101 21.2275ZM3.59628 15.4346V20.6796H1.32042V17.0702L3.59628 15.4346ZM8.51341 17.6687C8.51341 16.5868 9.39383 15.7064 10.4757 15.7064C11.5576 15.7064 12.438 16.5868 12.438 17.6687V20.6796H8.51299V17.6687H8.51341ZM10.4749 14.3856C8.66513 14.3856 7.19257 15.8581 7.19257 17.6687V20.6796H4.9167V10.0635L10.5503 5.1346L16.1839 10.0635V20.6796H13.758V17.6687C13.758 15.8585 12.2854 14.3856 10.4749 14.3856ZM19.7802 17.0702V20.6796H17.5043V15.4346L19.7802 17.0702Z" fill="url(#paint0_linear_348_10562)"/>
<path d="M10.5504 8.09375C9.19457 8.09375 8.09204 9.1967 8.09204 10.5521C8.09204 11.9075 9.19499 13.0105 10.5504 13.0105C11.9058 13.0105 13.0087 11.9075 13.0087 10.5521C13.0087 9.1967 11.9058 8.09375 10.5504 8.09375ZM10.5504 11.69C9.92285 11.69 9.41246 11.1797 9.41246 10.5521C9.41246 9.92455 9.92285 9.41417 10.5504 9.41417C11.1779 9.41417 11.6883 9.92455 11.6883 10.5521C11.6883 11.1797 11.1779 11.69 10.5504 11.69Z" fill="url(#paint1_linear_348_10562)"/>
</g>
<defs>
<linearGradient id="paint0_linear_348_10562" x1="10.5505" y1="22" x2="10.5505" y2="0" gradientUnits="userSpaceOnUse">
<stop stop-color="#900D14"/>
<stop offset="1" stop-color="#AE1017"/>
</linearGradient>
<linearGradient id="paint1_linear_348_10562" x1="10.5504" y1="13.0105" x2="10.5504" y2="8.09375" gradientUnits="userSpaceOnUse">
<stop stop-color="#900D14"/>
<stop offset="1" stop-color="#AE1017"/>
</linearGradient>
<clipPath id="clip0_348_10562">
<rect width="21.101" height="22" fill="white"/>
</clipPath>
</defs>
</svg>
