<svg width="29" height="28" viewBox="0 0 29 28" fill="none" xmlns="http://www.w3.org/2000/svg">
<g clip-path="url(#clip0_353_9345)">
<path d="M25.2 0.709822H3.87336L1.19469 0.0144891C0.956691 -0.0461776 0.714024 0.0891558 0.634691 0.317822L0.0233575 2.15649C-0.0326425 2.31982 0.0093575 2.50182 0.126024 2.62782C0.354691 2.87049 0.620691 3.16449 0.770024 3.35116C0.620691 3.55649 0.350024 3.89716 0.112024 4.17249C0.0140242 4.28449 -0.0233092 4.42916 0.00935749 4.57382L0.294024 5.89449C0.336024 6.10916 0.527357 6.26316 0.746691 6.26316L1.97402 6.24916V10.4632C1.97402 10.6265 2.05802 10.7758 2.19336 10.8598L3.23869 11.5038L2.16536 12.2878C2.04402 12.3765 1.97402 12.5165 1.97402 12.6658V21.0985C1.06869 21.5652 2.4158e-05 22.5218 2.4158e-05 24.4212V24.5192C0.0140242 25.5365 0.471358 26.4978 1.25536 27.1558C1.90869 27.7065 2.73002 28.0005 3.57002 28.0005C3.76136 28.0005 3.95269 27.9865 4.14402 27.9538L23.1514 24.8878C24.2247 24.8692 25.088 23.9918 25.088 22.9138V7.20116C25.1254 7.20582 25.1674 7.20582 25.2047 7.20582C25.8814 7.20582 26.544 6.98182 27.09 6.54782C27.818 5.96449 28.2334 5.10116 28.2334 4.16782V3.74316C28.2334 2.06782 26.8707 0.709822 25.2 0.709822ZM24.1547 22.9138C24.1547 23.4878 23.6927 23.9545 23.1187 23.9545H22.5634C21.9894 23.9545 21.5227 23.4878 21.5227 22.9138V22.4752C21.5227 21.9058 21.9847 21.4392 22.5494 21.4298H22.568C22.8247 21.4298 23.0347 21.2198 23.03 20.9632C23.03 20.6972 22.8107 20.4918 22.54 20.4965L4.03202 20.6225C3.64002 20.6225 3.26669 20.6692 2.91202 20.7532V12.9038L4.35402 11.8492C4.48002 11.7558 4.55002 11.6065 4.54536 11.4525C4.54069 11.2985 4.45669 11.1538 4.32602 11.0745L2.91202 10.2018V6.23982L15.8154 6.11382C18.5407 6.09049 21.2894 6.38449 23.9494 7.00049L24.1547 7.04716V22.9138Z" fill="url(#paint0_linear_353_9345)"/>
<path d="M12.0774 8.58568H21.0561C21.3127 8.58568 21.5227 8.37568 21.5227 8.11901C21.5227 7.86234 21.3127 7.65234 21.0561 7.65234H12.0774C11.8207 7.65234 11.6107 7.86234 11.6107 8.11901C11.6107 8.37568 11.8207 8.58568 12.0774 8.58568Z" fill="url(#paint1_linear_353_9345)"/>
<path d="M6.45861 8.58568H8.76861C9.02528 8.58568 9.23528 8.37568 9.23528 8.11901C9.23528 7.86234 9.02528 7.65234 8.76861 7.65234H6.45861C6.20194 7.65234 5.99194 7.86234 5.99194 8.11901C5.99194 8.37568 6.20194 8.58568 6.45861 8.58568Z" fill="url(#paint2_linear_353_9345)"/>
<path d="M21.0606 10.2852H6.45397C6.1973 10.2852 5.9873 10.4952 5.9873 10.7518C5.9873 11.0085 6.1973 11.2185 6.45397 11.2185H21.056C21.3126 11.2185 21.5226 11.0085 21.5226 10.7518C21.5226 10.4952 21.3126 10.2852 21.056 10.2852H21.0606Z" fill="url(#paint3_linear_353_9345)"/>
<path d="M21.056 13.8513C21.3127 13.8513 21.5227 13.6413 21.5227 13.3846C21.5227 13.128 21.3127 12.918 21.056 12.918H19.3247C19.068 12.918 18.858 13.128 18.858 13.3846C18.858 13.6413 19.068 13.8513 19.3247 13.8513H21.056Z" fill="url(#paint4_linear_353_9345)"/>
<path d="M6.45861 13.8513H16.0113C16.2679 13.8513 16.4779 13.6413 16.4779 13.3846C16.4779 13.128 16.2679 12.918 16.0113 12.918H6.45861C6.20194 12.918 5.99194 13.128 5.99194 13.3846C5.99194 13.6413 6.20194 13.8513 6.45861 13.8513Z" fill="url(#paint5_linear_353_9345)"/>
<path d="M21.0606 15.5508H6.45397C6.1973 15.5508 5.9873 15.7608 5.9873 16.0174C5.9873 16.2741 6.1973 16.4841 6.45397 16.4841H21.056C21.3126 16.4841 21.5226 16.2741 21.5226 16.0174C21.5226 15.7608 21.3126 15.5508 21.056 15.5508H21.0606Z" fill="url(#paint6_linear_353_9345)"/>
<path d="M18.7087 18.1797H13.0013C12.7447 18.1797 12.5347 18.3897 12.5347 18.6464C12.5347 18.903 12.7447 19.113 13.0013 19.113H18.7087C18.9653 19.113 19.1753 18.903 19.1753 18.6464C19.1753 18.3897 18.9653 18.1797 18.7087 18.1797Z" fill="url(#paint7_linear_353_9345)"/>
<path d="M9.68797 18.1797H6.45397C6.1973 18.1797 5.9873 18.3897 5.9873 18.6464C5.9873 18.903 6.1973 19.113 6.45397 19.113H9.68797C9.94464 19.113 10.1546 18.903 10.1546 18.6464C10.1546 18.3897 9.94464 18.1797 9.68797 18.1797Z" fill="url(#paint8_linear_353_9345)"/>
</g>
<defs>
<linearGradient id="paint0_linear_353_9345" x1="14.1156" y1="28.0005" x2="14.1156" y2="0" gradientUnits="userSpaceOnUse">
<stop stop-color="#900D14"/>
<stop offset="1" stop-color="#AE1017"/>
</linearGradient>
<linearGradient id="paint1_linear_353_9345" x1="16.5667" y1="8.58568" x2="16.5667" y2="7.65234" gradientUnits="userSpaceOnUse">
<stop stop-color="#900D14"/>
<stop offset="1" stop-color="#AE1017"/>
</linearGradient>
<linearGradient id="paint2_linear_353_9345" x1="7.61361" y1="8.58568" x2="7.61361" y2="7.65234" gradientUnits="userSpaceOnUse">
<stop stop-color="#900D14"/>
<stop offset="1" stop-color="#AE1017"/>
</linearGradient>
<linearGradient id="paint3_linear_353_9345" x1="13.755" y1="11.2185" x2="13.755" y2="10.2852" gradientUnits="userSpaceOnUse">
<stop stop-color="#900D14"/>
<stop offset="1" stop-color="#AE1017"/>
</linearGradient>
<linearGradient id="paint4_linear_353_9345" x1="20.1904" y1="13.8513" x2="20.1904" y2="12.918" gradientUnits="userSpaceOnUse">
<stop stop-color="#900D14"/>
<stop offset="1" stop-color="#AE1017"/>
</linearGradient>
<linearGradient id="paint5_linear_353_9345" x1="11.2349" y1="13.8513" x2="11.2349" y2="12.918" gradientUnits="userSpaceOnUse">
<stop stop-color="#900D14"/>
<stop offset="1" stop-color="#AE1017"/>
</linearGradient>
<linearGradient id="paint6_linear_353_9345" x1="13.755" y1="16.4841" x2="13.755" y2="15.5508" gradientUnits="userSpaceOnUse">
<stop stop-color="#900D14"/>
<stop offset="1" stop-color="#AE1017"/>
</linearGradient>
<linearGradient id="paint7_linear_353_9345" x1="15.855" y1="19.113" x2="15.855" y2="18.1797" gradientUnits="userSpaceOnUse">
<stop stop-color="#900D14"/>
<stop offset="1" stop-color="#AE1017"/>
</linearGradient>
<linearGradient id="paint8_linear_353_9345" x1="8.07097" y1="19.113" x2="8.07097" y2="18.1797" gradientUnits="userSpaceOnUse">
<stop stop-color="#900D14"/>
<stop offset="1" stop-color="#AE1017"/>
</linearGradient>
<clipPath id="clip0_353_9345">
<rect width="28.2333" height="28" fill="white"/>
</clipPath>
</defs>
</svg>
