<svg width="20" height="28" viewBox="0 0 20 28" fill="none" xmlns="http://www.w3.org/2000/svg">
<g clip-path="url(#clip0_348_10544)">
<path d="M18.6341 18.2065V15.2212L17.2942 15.7425C16.7939 15.0188 16.0192 14.518 15.1518 14.3605L12.522 13.8819C13.538 13.2191 14.2567 12.1915 14.524 11.0152C15.3714 10.7729 15.9726 9.98812 15.9726 9.09523V4.71288C15.9726 3.3913 15.1346 2.24719 13.8813 1.84733L13.6982 1.66432C12.624 0.59119 11.1965 0 9.67748 0C6.54295 0 3.99296 2.54999 3.99296 5.68452V9.09523C3.99296 9.98756 4.59358 10.7729 5.44154 11.0152C5.70941 12.192 6.42815 13.2197 7.44305 13.8819L4.81375 14.3599C3.94638 14.5174 3.17162 15.0188 2.67138 15.7425L1.3315 15.2212V18.2065C0.580032 18.3147 0.000488281 18.9624 0.000488281 19.7433V21.518C0.000488281 22.2988 0.580032 22.9472 1.3315 23.0547V24.6348L9.98306 28L18.6346 24.6348V23.0547C19.3861 22.9466 19.9656 22.2988 19.9656 21.518V19.7433C19.9656 18.9624 19.3861 18.3141 18.6346 18.2065H18.6341ZM6.78309 15.3549L7.54343 17.637L3.97743 16.2505C4.26748 15.9505 4.64627 15.7436 5.05111 15.6699L6.78309 15.3549ZM10.9957 15.8224L11.8326 15.1946L11.4666 16.2927L10.9957 15.8218V15.8224ZM8.1324 15.1946L8.96927 15.8224L8.49843 16.2932L8.1324 15.1951V15.1946ZM10.3746 14.6245L9.9825 14.9184L9.59041 14.6245C9.85051 14.6466 10.1139 14.6466 10.374 14.6245H10.3746ZM5.32397 6.65505V5.68452C5.32397 3.28371 7.27723 1.33101 9.67748 1.33101C10.8404 1.33101 11.9341 1.78411 12.756 2.60656L13.1913 3.04191L13.3699 3.08572C14.1181 3.27262 14.6405 3.94201 14.6405 4.71288V6.65505H13.0117C11.8781 6.65505 10.7961 6.11432 10.1167 5.20868L9.61037 4.53264L8.54779 5.59579C7.86398 6.27904 6.95501 6.6556 5.98837 6.6556H5.32286L5.32397 6.65505ZM6.65498 7.94224C7.73421 7.79861 8.71083 7.31556 9.49003 6.53637L9.50168 6.52472C10.4289 7.45587 11.6956 7.98606 13.0122 7.98606H13.31V9.98257C13.31 11.8171 11.8171 13.3101 9.9825 13.3101C8.14793 13.3101 6.65498 11.8171 6.65498 9.98257V7.94224ZM11.3462 18.0551L9.9825 18.5859L8.61877 18.0557L9.9825 16.6914L11.3462 18.0551ZM13.1819 15.3549L14.9139 15.6699C15.3248 15.7447 15.6975 15.9477 15.9876 16.2505L12.4216 17.637L13.1819 15.3549ZM2.66195 22.8007C3.47498 22.3842 3.99296 21.5479 3.99296 20.6306C3.99296 19.7134 3.47498 18.8765 2.66195 18.4605V17.1672L9.317 19.7549V26.3129L2.66195 23.7252V22.8007ZM1.33094 21.518V19.7433C1.33094 19.6207 1.43021 19.5215 1.55278 19.5215C2.16449 19.5215 2.66195 20.0189 2.66195 20.6306C2.66195 21.2424 2.16449 21.7398 1.55278 21.7398C1.43021 21.7398 1.33094 21.6405 1.33094 21.518ZM17.3031 18.4605C16.49 18.877 15.972 19.7134 15.972 20.6306C15.972 21.5479 16.49 22.3848 17.3031 22.8007V23.7247L10.648 26.3124V19.7549L17.3031 17.1672V18.4605ZM18.6341 19.7433V21.518C18.6341 21.6405 18.5348 21.7398 18.4122 21.7398C17.8005 21.7398 17.3031 21.2424 17.3031 20.6306C17.3031 20.0189 17.8005 19.5215 18.4122 19.5215C18.5348 19.5215 18.6341 19.6207 18.6341 19.7433Z" fill="url(#paint0_linear_348_10544)"/>
</g>
<defs>
<linearGradient id="paint0_linear_348_10544" x1="9.98306" y1="28" x2="9.98306" y2="0" gradientUnits="userSpaceOnUse">
<stop stop-color="#900D14"/>
<stop offset="1" stop-color="#AE1017"/>
</linearGradient>
<clipPath id="clip0_348_10544">
<rect width="19.9651" height="28" fill="white"/>
</clipPath>
</defs>
</svg>
