<svg width="23" height="22" viewBox="0 0 23 22" fill="none" xmlns="http://www.w3.org/2000/svg">
<g clip-path="url(#clip0_348_10464)">
<path d="M16.2859 11.9015C16.4083 11.7883 16.4763 11.6382 16.4758 11.4784V8.56144C16.4758 8.40167 16.4083 8.2511 16.2854 8.13829C16.1625 8.02548 15.9996 7.96332 15.8262 7.96332H12.7826V5.6666C12.7826 5.33646 12.4912 5.06848 12.133 5.06848H8.96739C8.79399 5.06848 8.63059 5.13064 8.50817 5.24391C8.38574 5.35718 8.31778 5.50729 8.31828 5.66707V7.96378H5.27464C4.91636 7.96378 4.62504 8.23222 4.62554 8.56237V11.4793C4.62554 11.8094 4.91686 12.0779 5.27514 12.0779H8.31878V20.4019C8.31878 20.5617 8.38624 20.7122 8.50917 20.825C8.63159 20.9378 8.79499 21 8.96839 21H12.134C12.3073 21 12.4707 20.9378 12.5932 20.8246C12.7156 20.7113 12.7831 20.5612 12.7831 20.4014V12.0774H15.8267C16.0001 12.0774 16.1635 12.0153 16.2859 11.902V11.9015ZM8.96839 10.8798H5.92475V9.16049H8.96839C9.14178 9.16049 9.30518 9.09833 9.4276 8.98506C9.55003 8.87179 9.61799 8.72168 9.61749 8.5619V6.26519H11.4833V8.5619C11.4833 8.89205 11.7747 9.16049 12.133 9.16049H15.1766V10.8798H12.133C11.9596 10.8798 11.7962 10.942 11.6737 11.0552C11.5513 11.1685 11.4833 11.3186 11.4838 11.4784V19.8024H9.61799V11.4784C9.61799 11.1482 9.32667 10.8803 8.96839 10.8803V10.8798ZM3.83502 10.3705C4.1933 10.3705 4.48463 10.639 4.48463 10.9691C4.48463 11.2993 4.1933 11.5677 3.83502 11.5677H0.440598C0.0823166 11.5677 -0.209005 11.2993 -0.209005 10.9691C-0.209005 10.639 0.0823166 10.3705 0.440598 10.3705H3.83452H3.83502ZM20.6607 10.3705C21.019 10.3705 21.3103 10.639 21.3103 10.9691C21.3103 11.2993 21.019 11.5677 20.6607 11.5677H17.2668C16.9085 11.5677 16.6172 11.2993 16.6172 10.9691C16.6172 10.639 16.9085 10.3705 17.2668 10.3705H20.6607ZM9.90082 3.55176V1.75509C9.90082 1.42495 10.1921 1.15651 10.5504 1.15651C10.9087 1.15651 11.2 1.42495 11.2 1.75509V3.55176C11.2 3.88191 10.9087 4.15035 10.5504 4.15035C10.1921 4.15035 9.90082 3.88191 9.90082 3.55176ZM-0.946555 6.60914C-0.80664 6.31077 -0.427872 6.16941 -0.101571 6.29327L3.74558 7.79111C3.90698 7.85558 4.0299 7.97253 4.09387 8.1208C4.15783 8.26952 4.15483 8.43206 4.08587 8.57894C3.98043 8.80364 3.73908 8.93947 3.48674 8.93947C3.40479 8.93947 3.32134 8.9252 3.24139 8.89435L3.23939 8.89343L-0.606262 7.39697C-0.93706 7.26528 -1.08897 6.91212 -0.946555 6.60914ZM22.0464 15.33C21.9405 15.5538 21.6991 15.6892 21.4478 15.6892C21.3663 15.6892 21.2834 15.6749 21.2039 15.645L21.2014 15.6441L17.3563 14.1467C17.0255 14.0145 16.8741 13.6614 17.0165 13.3584C17.1564 13.0609 17.5352 12.9196 17.86 13.043L21.7071 14.5408C22.0379 14.6734 22.1888 15.0271 22.0464 15.3296V15.33ZM17.3128 7.67232L21.1809 6.22559C21.5167 6.10357 21.8945 6.2546 22.0259 6.56172C22.1548 6.86331 21.9959 7.20957 21.6716 7.33435L17.8015 8.782C17.7225 8.81055 17.6411 8.82436 17.5611 8.82436C17.3018 8.82436 17.0569 8.6807 16.956 8.44633C16.8266 8.14474 16.9855 7.79802 17.3108 7.67324L17.3128 7.67232ZM3.79005 14.265L-0.0795844 15.7127C-0.158536 15.7417 -0.240486 15.756 -0.321936 15.756C-0.408883 15.756 -0.49583 15.7398 -0.57828 15.7071C-0.737682 15.6441 -0.860607 15.5276 -0.925068 15.3788C-1.05599 15.0759 -0.896585 14.7282 -0.569285 14.6039H-0.567786L3.30035 13.1567C3.46325 13.0973 3.64014 13.0996 3.79955 13.1627C3.95895 13.2262 4.08187 13.3427 4.14583 13.4915C4.27575 13.7935 4.11685 14.1407 3.79105 14.265H3.79005ZM3.00403 4.74525C2.8891 4.62323 2.83364 4.46898 2.84563 4.30966C2.85812 4.15035 2.93707 4.00485 3.06799 3.89986C3.33483 3.68668 3.74308 3.71108 3.97844 3.95374L5.54997 5.60168C5.6649 5.7237 5.72037 5.87795 5.70788 6.03773C5.69539 6.1975 5.61643 6.34254 5.48501 6.44753C5.36309 6.54468 5.21168 6.59257 5.06027 6.59257C4.88088 6.59257 4.70249 6.52534 4.57457 6.39365L4.57357 6.39227L3.00303 4.74525H3.00403ZM15.5179 5.46217L17.3053 4.01498C17.4362 3.90953 17.6031 3.85704 17.777 3.86809C17.9499 3.87868 18.1083 3.95097 18.2227 4.07161C18.4571 4.31887 18.4306 4.69644 18.1638 4.91377L16.3759 6.36142C16.2524 6.46042 16.1 6.50876 15.9486 6.50876C15.7667 6.50876 15.5863 6.43924 15.4584 6.3034C15.2261 6.05706 15.2525 5.68042 15.5169 5.46355L15.5179 5.46263V5.46217ZM5.55197 15.9622L3.97993 17.6106C3.86351 17.7313 3.7046 17.8022 3.53171 17.8114C3.51872 17.8123 3.50572 17.8123 3.49273 17.8123C3.33333 17.8123 3.18192 17.7594 3.062 17.6608C2.79716 17.444 2.77117 17.0673 3.00353 16.821L3.00453 16.82L4.57507 15.173C4.692 15.0524 4.8514 14.9819 5.0243 14.9727C5.19769 14.964 5.36409 15.0174 5.49351 15.1242C5.75585 15.3406 5.78233 15.7164 5.55197 15.9618V15.9622ZM18.3811 17.0636C18.3916 17.2234 18.3342 17.3772 18.2192 17.4969C18.0913 17.6304 17.9119 17.6986 17.732 17.6986C17.5801 17.6986 17.4277 17.6502 17.3053 17.5512L15.5179 16.1036C15.249 15.884 15.2241 15.505 15.4619 15.2582C15.6978 15.0132 16.107 14.9888 16.3749 15.2039L18.1628 16.6515C18.2932 16.7579 18.3706 16.9043 18.3816 17.0636H18.3811ZM5.23017 0.906028C5.08326 0.603053 5.23017 0.248047 5.55697 0.113596C5.87827 -0.018553 6.26104 0.112675 6.41045 0.406441L7.65719 2.91635C7.8041 3.21932 7.65719 3.57433 7.33039 3.70878C7.24544 3.74377 7.15599 3.76035 7.06805 3.76035C6.8227 3.76035 6.58684 3.63234 6.47691 3.41593L6.47591 3.41409L5.23017 0.906028ZM13.4661 2.97298V2.97206L14.5105 0.387102C14.5735 0.235615 14.6949 0.11774 14.8533 0.0523561C15.0117 -0.0130276 15.1881 -0.0171716 15.3505 0.039924C15.6788 0.155497 15.8487 0.49761 15.7293 0.802427L14.6844 3.38969C14.6224 3.54025 14.5015 3.65905 14.3436 3.72489C14.2582 3.76035 14.1677 3.77831 14.0768 3.77831C13.9993 3.77831 13.9214 3.76541 13.8469 3.73917C13.5151 3.62359 13.3447 3.2801 13.4666 2.97344L13.4661 2.97298Z" fill="url(#paint0_linear_348_10464)"/>
</g>
<defs>
<linearGradient id="paint0_linear_348_10464" x1="10.55" y1="21" x2="10.55" y2="0" gradientUnits="userSpaceOnUse">
<stop stop-color="#900D14"/>
<stop offset="1" stop-color="#AE1017"/>
</linearGradient>
<clipPath id="clip0_348_10464">
<rect width="22.027" height="22" fill="white"/>
</clipPath>
</defs>
</svg>
