<svg width="21" height="20" viewBox="0 0 21 20" fill="none" xmlns="http://www.w3.org/2000/svg">
<g clip-path="url(#clip0_348_10509)">
<path d="M17.598 0.207822C17.3169 -0.0710663 16.8651 -0.0689044 16.5884 0.212146C16.3116 0.493197 16.3116 0.94504 16.5927 1.22177C19.9458 4.56411 19.9545 9.99055 16.6143 13.3437C16.6078 13.3502 16.6013 13.3567 16.5927 13.3653C16.316 13.6442 16.316 14.0939 16.5927 14.3728C16.7267 14.5047 16.9062 14.5782 17.0921 14.5803C17.2823 14.5803 17.4639 14.5068 17.6001 14.3728C21.5111 10.4748 21.5219 4.14253 17.6218 0.231604C17.6153 0.225118 17.6066 0.21647 17.6001 0.209984L17.598 0.207822Z" fill="url(#paint0_linear_348_10509)"/>
<path d="M15.5767 2.23098C15.2978 1.95426 14.8481 1.95426 14.5692 2.23098C14.2882 2.50771 14.2882 2.96171 14.5649 3.2406C14.5649 3.2406 14.5671 3.24276 14.5692 3.24493C16.7982 5.47604 16.7982 9.09294 14.5692 11.3241C14.2925 11.6029 14.2925 12.0526 14.5692 12.3315C14.8481 12.6082 15.2978 12.6082 15.5767 12.3315C18.3656 9.54262 18.3656 5.02203 15.5767 2.23098Z" fill="url(#paint1_linear_348_10509)"/>
<path d="M12.5478 10.3144C12.8267 10.5911 13.2764 10.5911 13.5553 10.3144C15.2308 8.64108 15.2308 5.92786 13.5596 4.25453C13.5596 4.25453 13.5574 4.25236 13.5553 4.2502C13.298 3.94969 12.8483 3.9151 12.5478 4.17237C12.2473 4.42964 12.2127 4.87932 12.47 5.17983C12.4938 5.20794 12.5197 5.23388 12.5478 5.25766C13.6634 6.37322 13.6655 8.18275 12.55 9.29831C12.55 9.29831 12.55 9.29831 12.5478 9.30047C12.2668 9.57719 12.2668 10.0312 12.5435 10.3101C12.5435 10.3101 12.5456 10.3122 12.5478 10.3144Z" fill="url(#paint2_linear_348_10509)"/>
<path d="M2.93993 14.3703C3.22098 14.6492 3.67282 14.6471 3.94955 14.366C4.22844 14.085 4.22628 13.6331 3.94523 13.3564C0.592075 10.0141 0.583428 4.58761 3.92361 1.23446C3.93009 1.22798 3.93658 1.22149 3.94523 1.21284C4.22195 0.933953 4.22195 0.484272 3.94523 0.205383C3.81335 0.0756675 3.63391 0 3.44582 0C3.25557 0 3.07397 0.0735056 2.93777 0.207545C-0.973161 4.1055 -0.983971 10.4378 2.91615 14.3487C2.92263 14.3552 2.93128 14.3639 2.93777 14.3703H2.93993Z" fill="url(#paint3_linear_348_10509)"/>
<path d="M4.96154 12.3471C5.24043 12.6239 5.69011 12.6239 5.969 12.3471C6.25005 12.0704 6.25005 11.6164 5.97332 11.3375C5.97332 11.3375 5.97116 11.3354 5.969 11.3332C3.74005 9.10208 3.74005 5.48518 5.969 3.25407C6.24572 2.97518 6.24572 2.5255 5.969 2.24661C5.69011 1.96988 5.24043 1.96988 4.96154 2.24661C2.17265 5.0355 2.17265 9.55609 4.96154 12.3471Z" fill="url(#paint4_linear_348_10509)"/>
<path d="M7.99045 4.26223C7.71156 3.98551 7.26188 3.98551 6.98299 4.26223C5.3075 5.93557 5.3075 8.64879 6.97867 10.3221C6.97867 10.3221 6.98083 10.3243 6.98299 10.3264C7.24026 10.6269 7.68994 10.6615 7.99045 10.4043C8.29096 10.147 8.32555 9.69732 8.06828 9.39681C8.0445 9.36871 8.01856 9.34276 7.99045 9.31898C6.8749 8.20343 6.87273 6.39389 7.98829 5.27834C7.98829 5.27834 7.98829 5.27834 7.99045 5.27618C8.2715 4.99945 8.2715 4.54545 7.99477 4.26656C7.99477 4.26656 7.99261 4.26439 7.99045 4.26223Z" fill="url(#paint5_linear_348_10509)"/>
<path d="M14.5497 18.5723H12.9996L11.1792 8.37877C11.7846 7.87288 11.8667 6.97352 11.363 6.36601C10.8593 5.75851 9.95774 5.67852 9.35024 6.18225C8.7449 6.68814 8.66275 7.5875 9.16648 8.19501C9.22269 8.26203 9.28322 8.32256 9.35024 8.37877L7.5299 18.5723H5.97979C5.58632 18.5723 5.26636 18.8922 5.26636 19.2857C5.26636 19.6792 5.58632 19.9991 5.97979 19.9991H14.5518C14.9453 19.9991 15.2653 19.6792 15.2653 19.2857C15.2653 18.8922 14.9453 18.5723 14.5518 18.5723H14.5497Z" fill="url(#paint6_linear_348_10509)"/>
</g>
<defs>
<linearGradient id="paint0_linear_348_10509" x1="18.4607" y1="14.5803" x2="18.4607" y2="0" gradientUnits="userSpaceOnUse">
<stop stop-color="#900D14"/>
<stop offset="1" stop-color="#AE1017"/>
</linearGradient>
<linearGradient id="paint1_linear_348_10509" x1="16.0131" y1="12.5391" x2="16.0131" y2="2.02344" gradientUnits="userSpaceOnUse">
<stop stop-color="#900D14"/>
<stop offset="1" stop-color="#AE1017"/>
</linearGradient>
<linearGradient id="paint2_linear_348_10509" x1="13.555" y1="10.522" x2="13.555" y2="4" gradientUnits="userSpaceOnUse">
<stop stop-color="#900D14"/>
<stop offset="1" stop-color="#AE1017"/>
</linearGradient>
<linearGradient id="paint3_linear_348_10509" x1="2.07759" y1="14.5782" x2="2.07759" y2="0" gradientUnits="userSpaceOnUse">
<stop stop-color="#900D14"/>
<stop offset="1" stop-color="#AE1017"/>
</linearGradient>
<linearGradient id="paint4_linear_348_10509" x1="4.5251" y1="12.5547" x2="4.5251" y2="2.03906" gradientUnits="userSpaceOnUse">
<stop stop-color="#900D14"/>
<stop offset="1" stop-color="#AE1017"/>
</linearGradient>
<linearGradient id="paint5_linear_348_10509" x1="6.98324" y1="10.5766" x2="6.98324" y2="4.05469" gradientUnits="userSpaceOnUse">
<stop stop-color="#900D14"/>
<stop offset="1" stop-color="#AE1017"/>
</linearGradient>
<linearGradient id="paint6_linear_348_10509" x1="10.2658" y1="19.9991" x2="10.2658" y2="5.85156" gradientUnits="userSpaceOnUse">
<stop stop-color="#900D14"/>
<stop offset="1" stop-color="#AE1017"/>
</linearGradient>
<clipPath id="clip0_348_10509">
<rect width="20.5383" height="20" fill="white"/>
</clipPath>
</defs>
</svg>
