<svg width="23" height="22" viewBox="0 0 23 22" fill="none" xmlns="http://www.w3.org/2000/svg">
<g clip-path="url(#clip0_348_10477)">
<path d="M5.154 10.4688C4.8184 10.4688 4.54541 10.7417 4.54541 11.0773V16.8864C4.54541 17.222 4.8184 17.495 5.154 17.495C5.48959 17.495 5.76258 17.222 5.76258 16.8864V11.0773C5.76258 10.7417 5.48959 10.4688 5.154 10.4688Z" fill="url(#paint0_linear_348_10477)"/>
<path d="M7.66151 16.8864V11.0773C7.66151 10.7417 7.38851 10.4688 7.05292 10.4688C6.71733 10.4688 6.44434 10.7417 6.44434 11.0773V16.8864C6.44434 17.222 6.71733 17.495 7.05292 17.495C7.38851 17.495 7.66151 17.222 7.66151 16.8864Z" fill="url(#paint1_linear_348_10477)"/>
<path d="M3.25483 10.4688C2.91923 10.4688 2.64624 10.7417 2.64624 11.0773V16.8864C2.64624 17.222 2.91923 17.495 3.25483 17.495C3.59042 17.495 3.86341 17.222 3.86341 16.8864V11.0773C3.86341 10.7417 3.59042 10.4688 3.25483 10.4688Z" fill="url(#paint2_linear_348_10477)"/>
<path d="M14.1488 8.01874C14.1488 7.68315 13.8758 7.41016 13.5402 7.41016H11.5746C11.2391 7.41016 10.9661 7.68315 10.9661 8.01874V9.9843C10.9661 10.3199 11.2391 10.5929 11.5746 10.5929H13.5402C13.8758 10.5929 14.1488 10.3199 14.1488 9.9843V8.01874ZM12.9316 8.62733V9.37571H12.1832V8.62733H12.9316Z" fill="url(#paint3_linear_348_10477)"/>
<path d="M13.5402 11.4648H11.5746C11.2391 11.4648 10.9661 11.7378 10.9661 12.0734V14.039C10.9661 14.3746 11.2391 14.6476 11.5746 14.6476H13.5402C13.8758 14.6476 14.1488 14.3746 14.1488 14.039V12.0734C14.1488 11.7378 13.8758 11.4648 13.5402 11.4648ZM12.9316 12.682V13.4304H12.1832V12.682H12.9316Z" fill="url(#paint4_linear_348_10477)"/>
<path d="M14.1488 3.96405C14.1488 3.62846 13.8758 3.35547 13.5402 3.35547H11.5746C11.2391 3.35547 10.9661 3.62846 10.9661 3.96405V5.92961C10.9661 6.2652 11.2391 6.5382 11.5746 6.5382H13.5402C13.8758 6.5382 14.1488 6.2652 14.1488 5.92961V3.96405ZM12.9316 4.57264V5.32102H12.1832V4.57264H12.9316Z" fill="url(#paint5_linear_348_10477)"/>
<path d="M22.4219 20.7828H21.1345V13.4464C21.1345 13.1108 20.8615 12.8378 20.5259 12.8378C20.1903 12.8378 19.9174 13.1108 19.9174 13.4464V20.7828H16.8776V17.0722C16.8776 16.7366 16.6046 16.4636 16.269 16.4636H13.2455C12.9099 16.4636 12.6369 16.7366 12.6369 17.0722V20.7828H9.67504V1.98485H19.9174V9.35221C19.9174 9.6878 20.1903 9.96079 20.5259 9.96079C20.8615 9.96079 21.1345 9.6878 21.1345 9.35221V1.37626C21.1345 1.04067 20.8615 0.767679 20.5259 0.767679H19.5299V-0.391415C19.5299 -0.727006 19.257 -1 18.9214 -1H10.7875C10.4519 -1 10.1789 -0.727006 10.1789 -0.391415V0.767679H9.0661C8.73051 0.767679 8.45752 1.04067 8.45752 1.37626V8.47306H5.11273V7.16234C5.11273 6.82675 4.83974 6.55376 4.50415 6.55376H1.3089C0.973311 6.55376 0.700317 6.82675 0.700317 7.16234V20.7828H-0.391659C-0.72725 20.7828 -1.00024 21.0558 -1.00024 21.3914C-1.00024 21.727 -0.72725 22 -0.391659 22H20.5256H22.4216C22.7572 22 23.0302 21.727 23.0302 21.3914C23.0302 21.0558 22.7572 20.7828 22.4216 20.7828H22.4219ZM15.6604 17.6808V20.7825H13.8541V17.6808H15.6604ZM11.3965 0.767679V0.21717H18.3131V0.767679H11.3965ZM5.57804 19.4168V20.7828H4.73924V19.4168H5.57804ZM1.91784 8.47306V7.77093H3.89591V8.47306H1.91784ZM6.18663 18.1996H4.13065C3.79506 18.1996 3.52207 18.4726 3.52207 18.8082V20.7828H1.91784V9.69058H8.45787V20.7828H6.79521V18.8082C6.79521 18.4726 6.52222 18.1996 6.18663 18.1996Z" fill="url(#paint6_linear_348_10477)"/>
<path d="M18.4942 3.96405C18.4942 3.62846 18.2213 3.35547 17.8857 3.35547H15.9201C15.5845 3.35547 15.3115 3.62846 15.3115 3.96405V5.92961C15.3115 6.2652 15.5845 6.5382 15.9201 6.5382H17.8857C18.2213 6.5382 18.4942 6.2652 18.4942 5.92961V3.96405ZM17.2771 4.57264V5.32102H16.5287V4.57264H17.2771Z" fill="url(#paint7_linear_348_10477)"/>
<path d="M21.1081 11.276V11.2753C21.1022 11.2562 21.0952 11.2371 21.0879 11.2204C21.0806 11.2016 21.0719 11.1832 21.0622 11.1654C21.0521 11.147 21.042 11.13 21.0316 11.1147C21.0208 11.0983 21.0093 11.0827 20.9961 11.0667C20.9829 11.0507 20.9693 11.0357 20.9558 11.0218C20.9401 11.0062 20.9252 10.9926 20.9119 10.9822C20.8973 10.97 20.8813 10.9582 20.8629 10.946C20.8438 10.9335 20.8278 10.9237 20.8125 10.9157C20.7947 10.906 20.776 10.8977 20.7589 10.8907C20.7391 10.8824 20.7207 10.8757 20.7019 10.8702C20.6835 10.8646 20.6643 10.8601 20.6438 10.8556C20.6223 10.8514 20.6035 10.8486 20.5857 10.8469C20.5457 10.8427 20.5054 10.8427 20.4654 10.8469C20.448 10.8486 20.4296 10.8514 20.4056 10.8559C20.3868 10.8597 20.3684 10.8646 20.3493 10.8702C20.3305 10.8757 20.3121 10.8824 20.294 10.89C20.2752 10.8973 20.2568 10.906 20.239 10.9157C20.2216 10.9251 20.2042 10.9356 20.1882 10.9463C20.1709 10.9578 20.1545 10.9696 20.1399 10.9818C20.1229 10.9957 20.1079 11.0093 20.0954 11.0222C20.0818 11.0357 20.0686 11.0503 20.0558 11.0663C20.0425 11.0823 20.0304 11.0987 20.0192 11.1154C20.0085 11.1317 19.998 11.1491 19.989 11.1661C19.9803 11.1825 19.9716 11.2006 19.9629 11.2211C19.9552 11.2405 19.9486 11.259 19.9431 11.2767C19.9389 11.291 19.9326 11.3125 19.9288 11.3334C19.925 11.3518 19.9219 11.3717 19.9198 11.3929C19.918 11.4116 19.917 11.4322 19.917 11.453C19.917 11.4739 19.918 11.4937 19.9198 11.5128C19.9219 11.5344 19.925 11.5539 19.9285 11.5709C19.9319 11.5887 19.9365 11.6074 19.9431 11.629C19.949 11.6492 19.9563 11.6683 19.9632 11.6864C19.9709 11.7045 19.9792 11.7222 19.9886 11.7396C19.9991 11.7591 20.0092 11.7758 20.0189 11.7904C20.0293 11.806 20.0408 11.822 20.0547 11.839C20.069 11.8564 20.0822 11.871 20.094 11.8825C20.1072 11.8961 20.1222 11.9096 20.1392 11.9239C20.1556 11.9371 20.1719 11.9493 20.1869 11.959C20.2022 11.9691 20.2189 11.9792 20.2383 11.9896C20.2547 11.9983 20.2724 12.007 20.2919 12.015C20.3079 12.022 20.3256 12.0282 20.3489 12.0355C20.368 12.0414 20.3868 12.046 20.407 12.0501C20.4299 12.0547 20.4491 12.0571 20.4651 12.0585C20.4863 12.0606 20.5058 12.0616 20.5252 12.0616C20.5447 12.0616 20.5649 12.0606 20.584 12.0585C20.6017 12.0571 20.6212 12.0543 20.6456 12.0494C20.664 12.0456 20.6831 12.0408 20.7033 12.0348C20.7248 12.0279 20.7422 12.0216 20.7586 12.0147C20.7777 12.0067 20.7958 11.998 20.8121 11.9893C20.8292 11.9802 20.8462 11.9702 20.8626 11.959C20.8796 11.9479 20.8959 11.9357 20.9099 11.9239C20.9248 11.9121 20.9398 11.8985 20.9547 11.8839C20.9683 11.8707 20.9818 11.8557 20.9961 11.8384C21.0083 11.8234 21.0201 11.8071 21.0302 11.7918C21.0406 11.7764 21.0507 11.7598 21.0622 11.7392C21.0723 11.7205 21.0806 11.7027 21.0876 11.6857C21.0959 11.6655 21.1025 11.6471 21.1077 11.6293C21.1133 11.6113 21.1182 11.5921 21.122 11.5727C21.1258 11.5542 21.1289 11.5348 21.131 11.5128C21.1328 11.4941 21.1338 11.4742 21.1338 11.453C21.1338 11.4318 21.1328 11.4113 21.131 11.3925C21.1286 11.371 21.1258 11.3515 21.122 11.3334C21.1178 11.3143 21.1133 11.2951 21.1077 11.2767L21.1081 11.276Z" fill="url(#paint8_linear_348_10477)"/>
<path d="M18.4942 8.01874C18.4942 7.68315 18.2213 7.41016 17.8857 7.41016H15.9201C15.5845 7.41016 15.3115 7.68315 15.3115 8.01874V9.9843C15.3115 10.3199 15.5845 10.5929 15.9201 10.5929H17.8857C18.2213 10.5929 18.4942 10.3199 18.4942 9.9843V8.01874ZM17.2771 8.62733V9.37571H16.5287V8.62733H17.2771Z" fill="url(#paint9_linear_348_10477)"/>
<path d="M17.8857 11.4648H15.9201C15.5845 11.4648 15.3115 11.7378 15.3115 12.0734V14.039C15.3115 14.3746 15.5845 14.6476 15.9201 14.6476H17.8857C18.2213 14.6476 18.4942 14.3746 18.4942 14.039V12.0734C18.4942 11.7378 18.2213 11.4648 17.8857 11.4648ZM17.2771 12.682V13.4304H16.5287V12.682H17.2771Z" fill="url(#paint10_linear_348_10477)"/>
</g>
<defs>
<linearGradient id="paint0_linear_348_10477" x1="5.154" y1="17.495" x2="5.154" y2="10.4688" gradientUnits="userSpaceOnUse">
<stop stop-color="#900D14"/>
<stop offset="1" stop-color="#AE1017"/>
</linearGradient>
<linearGradient id="paint1_linear_348_10477" x1="7.05292" y1="17.495" x2="7.05292" y2="10.4688" gradientUnits="userSpaceOnUse">
<stop stop-color="#900D14"/>
<stop offset="1" stop-color="#AE1017"/>
</linearGradient>
<linearGradient id="paint2_linear_348_10477" x1="3.25483" y1="17.495" x2="3.25483" y2="10.4688" gradientUnits="userSpaceOnUse">
<stop stop-color="#900D14"/>
<stop offset="1" stop-color="#AE1017"/>
</linearGradient>
<linearGradient id="paint3_linear_348_10477" x1="12.5574" y1="10.5929" x2="12.5574" y2="7.41016" gradientUnits="userSpaceOnUse">
<stop stop-color="#900D14"/>
<stop offset="1" stop-color="#AE1017"/>
</linearGradient>
<linearGradient id="paint4_linear_348_10477" x1="12.5574" y1="14.6476" x2="12.5574" y2="11.4648" gradientUnits="userSpaceOnUse">
<stop stop-color="#900D14"/>
<stop offset="1" stop-color="#AE1017"/>
</linearGradient>
<linearGradient id="paint5_linear_348_10477" x1="12.5574" y1="6.5382" x2="12.5574" y2="3.35547" gradientUnits="userSpaceOnUse">
<stop stop-color="#900D14"/>
<stop offset="1" stop-color="#AE1017"/>
</linearGradient>
<linearGradient id="paint6_linear_348_10477" x1="11.015" y1="22" x2="11.015" y2="-1" gradientUnits="userSpaceOnUse">
<stop stop-color="#900D14"/>
<stop offset="1" stop-color="#AE1017"/>
</linearGradient>
<linearGradient id="paint7_linear_348_10477" x1="16.9029" y1="6.5382" x2="16.9029" y2="3.35547" gradientUnits="userSpaceOnUse">
<stop stop-color="#900D14"/>
<stop offset="1" stop-color="#AE1017"/>
</linearGradient>
<linearGradient id="paint8_linear_348_10477" x1="20.5254" y1="12.0616" x2="20.5254" y2="10.8438" gradientUnits="userSpaceOnUse">
<stop stop-color="#900D14"/>
<stop offset="1" stop-color="#AE1017"/>
</linearGradient>
<linearGradient id="paint9_linear_348_10477" x1="16.9029" y1="10.5929" x2="16.9029" y2="7.41016" gradientUnits="userSpaceOnUse">
<stop stop-color="#900D14"/>
<stop offset="1" stop-color="#AE1017"/>
</linearGradient>
<linearGradient id="paint10_linear_348_10477" x1="16.9029" y1="14.6476" x2="16.9029" y2="11.4648" gradientUnits="userSpaceOnUse">
<stop stop-color="#900D14"/>
<stop offset="1" stop-color="#AE1017"/>
</linearGradient>
<clipPath id="clip0_348_10477">
<rect width="24.0304" height="23" fill="white" transform="translate(-1 -1)"/>
</clipPath>
</defs>
</svg>
