<svg width="23" height="22" viewBox="0 0 23 22" fill="none" xmlns="http://www.w3.org/2000/svg">
<path d="M18.309 11.2962H17.9014C19.2361 11.0062 20.2385 9.81654 20.2385 8.39656C20.2385 6.75993 18.9072 5.42859 17.2705 5.42859C15.6339 5.42859 14.3026 6.75993 14.3026 8.39656C14.3026 9.81654 15.3054 11.0062 16.6397 11.2962H16.2321C15.9935 11.2962 15.7553 11.3223 15.5217 11.3736C14.9301 10.3389 13.8428 9.70263 12.6452 9.70263H11.6345C13.388 9.32361 14.7056 7.76071 14.7056 5.89543C14.7056 3.74764 12.958 2 10.8102 2C8.6624 2 6.91476 3.74764 6.91476 5.89543C6.91476 7.76071 8.23243 9.32361 9.98587 9.70263H8.97515C7.7776 9.70263 6.69025 10.3389 6.09873 11.3736C5.8651 11.3223 5.62692 11.2962 5.38832 11.2962H4.98072C6.31537 11.0062 7.31781 9.81654 7.31781 8.39656C7.31781 6.75993 5.98647 5.42859 4.34984 5.42859C2.71321 5.42859 1.38188 6.75993 1.38188 8.39656C1.38188 9.18815 1.69089 9.93294 2.25217 10.4942C2.66102 10.9031 3.16721 11.1769 3.71772 11.2962H3.31178C1.48668 11.2962 0 12.7829 0 14.61V17.9288C0 19.0709 0.92912 20 2.07116 20H19.5517C20.6937 20 21.6229 19.0709 21.6229 17.9288V14.61C21.6229 12.7829 20.1362 11.2962 18.309 11.2962ZM15.9599 8.39656C15.9599 7.67372 16.5481 7.08552 17.271 7.08552C17.9938 7.08552 18.582 7.67372 18.582 8.39656C18.582 9.11939 17.9938 9.7076 17.271 9.7076C16.5481 9.7076 15.9599 9.11939 15.9599 8.39656ZM10.8114 3.65692C12.0458 3.65692 13.0499 4.66102 13.0499 5.89543C13.0499 7.12984 12.0458 8.13393 10.8114 8.13393C9.57702 8.13393 8.57293 7.12984 8.57293 5.89543C8.57293 4.66102 9.57702 3.65692 10.8114 3.65692ZM3.04087 8.39656C3.04087 7.67372 3.62908 7.08552 4.35191 7.08552C5.07475 7.08552 5.66295 7.67372 5.66295 8.39656C5.66295 9.11939 5.07475 9.7076 4.35191 9.7076C3.62908 9.7076 3.04087 9.11939 3.04087 8.39656ZM15.9599 12.9759C16.0502 12.9606 16.1418 12.9531 16.2329 12.9531H18.309C19.2228 12.9531 19.9659 13.6962 19.9659 14.61V17.9288C19.9659 18.1571 19.78 18.3431 19.5517 18.3431H15.9599V13.0165C15.9599 13.0032 15.9599 12.9896 15.9599 12.9759ZM14.303 13.0165V18.3431H7.31946V13.0165C7.31946 12.1027 8.0626 11.3596 8.97639 11.3596H12.6461C13.5599 11.3596 14.303 12.1027 14.303 13.0165ZM3.31385 12.9531H5.38998C5.48152 12.9531 5.57265 12.9606 5.66295 12.9759C5.66295 12.9896 5.66295 13.0032 5.66295 13.0165V18.3431H2.07116C1.84291 18.3431 1.65692 18.1571 1.65692 17.9288V14.61C1.65692 13.6962 2.40006 12.9531 3.31385 12.9531Z" fill="url(#paint0_linear_348_10490)"/>
<defs>
<linearGradient id="paint0_linear_348_10490" x1="10.8114" y1="20" x2="10.8114" y2="2" gradientUnits="userSpaceOnUse">
<stop stop-color="#900D14"/>
<stop offset="1" stop-color="#AE1017"/>
</linearGradient>
</defs>
</svg>
