<svg width="47" height="47" viewBox="0 0 47 47" fill="none" xmlns="http://www.w3.org/2000/svg">
<g clip-path="url(#clip0_2_79)">
<path d="M23.5 1.95834L42.9169 10.9177H45.5312C45.9208 10.9177 46.2944 11.0725 46.5698 11.3479C46.8453 11.6233 47 11.9969 47 12.3865V18.2615C47 18.651 46.8453 19.0246 46.5698 19.3C46.2944 19.5755 45.9208 19.7302 45.5312 19.7302H44.0625V40.2927C44.3901 40.2928 44.7083 40.4024 44.9665 40.6042C45.2246 40.8059 45.4079 41.0881 45.4872 41.406L46.9559 47.281C47.0099 47.4975 47.0139 47.7234 46.9675 47.9417C46.9212 48.1599 46.8257 48.3647 46.6884 48.5405C46.5511 48.7163 46.3755 48.8586 46.175 48.9564C45.9745 49.0543 45.7543 49.1052 45.5312 49.1052H1.46875C1.24565 49.1052 1.0255 49.0543 0.824998 48.9564C0.6245 48.8586 0.448926 48.7163 0.311604 48.5405C0.174281 48.3647 0.0788187 48.1599 0.0324619 47.9417C-0.0138949 47.7234 -0.00992762 47.4975 0.0440625 47.281L1.51281 41.406C1.5921 41.0881 1.77539 40.8059 2.03354 40.6042C2.29169 40.4024 2.60988 40.2928 2.9375 40.2927V19.7302H1.46875C1.07921 19.7302 0.705631 19.5755 0.430187 19.3C0.154743 19.0246 0 18.651 0 18.2615V12.3865C0 11.9969 0.154743 11.6233 0.430187 11.3479C0.705631 11.0725 1.07921 10.9177 1.46875 10.9177H4.08313L23.5 1.95834ZM11.092 10.9177H35.9051L23.5 5.18959L11.092 10.9177ZM5.875 19.7302V40.2927H8.8125V19.7302H5.875ZM11.75 19.7302V40.2927H19.0938V19.7302H11.75ZM22.0312 19.7302V40.2927H24.9688V19.7302H22.0312ZM27.9062 19.7302V40.2927H35.25V19.7302H27.9062ZM38.1875 19.7302V40.2927H41.125V19.7302H38.1875ZM44.0625 16.7927V13.8552H2.9375V16.7927H44.0625ZM42.9169 43.2302H4.08313L3.34875 46.1677H43.6512L42.9169 43.2302Z" fill="#FFC425"/>
</g>
<defs>
<clipPath id="clip0_2_79">
<rect width="47" height="47" fill="white"/>
</clipPath>
</defs>
</svg>
