<svg width="47" height="47" viewBox="0 0 47 47" fill="none" xmlns="http://www.w3.org/2000/svg">
<path d="M0 11.75C0 10.1919 0.618972 8.69752 1.72075 7.59575C2.82252 6.49397 4.31685 5.875 5.875 5.875H41.125C42.6831 5.875 44.1775 6.49397 45.2793 7.59575C46.381 8.69752 47 10.1919 47 11.75V35.25C47 36.8081 46.381 38.3025 45.2793 39.4043C44.1775 40.506 42.6831 41.125 41.125 41.125H5.875C4.31685 41.125 2.82252 40.506 1.72075 39.4043C0.618972 38.3025 0 36.8081 0 35.25V11.75ZM5.875 8.8125C5.09593 8.8125 4.34876 9.12199 3.79787 9.67287C3.24699 10.2238 2.9375 10.9709 2.9375 11.75V14.6875H44.0625V11.75C44.0625 10.9709 43.753 10.2238 43.2021 9.67287C42.6512 9.12199 41.9041 8.8125 41.125 8.8125H5.875ZM44.0625 20.5625H2.9375V35.25C2.9375 36.0291 3.24699 36.7762 3.79787 37.3271C4.34876 37.878 5.09593 38.1875 5.875 38.1875H41.125C41.9041 38.1875 42.6512 37.878 43.2021 37.3271C43.753 36.7762 44.0625 36.0291 44.0625 35.25V20.5625Z" fill="#A9A9A9"/>
<path d="M5.875 30.3542C5.875 29.5751 6.18449 28.8279 6.73537 28.277C7.28626 27.7261 8.03343 27.4167 8.8125 27.4167H11.75C12.5291 27.4167 13.2762 27.7261 13.8271 28.277C14.378 28.8279 14.6875 29.5751 14.6875 30.3542V33.2917C14.6875 34.0707 14.378 34.8179 13.8271 35.3688C13.2762 35.9197 12.5291 36.2292 11.75 36.2292H8.8125C8.03343 36.2292 7.28626 35.9197 6.73537 35.3688C6.18449 34.8179 5.875 34.0707 5.875 33.2917V30.3542Z" fill="#A9A9A9"/>
</svg>
