<svg width="36" height="35" viewBox="0 0 36 35" fill="none" xmlns="http://www.w3.org/2000/svg">
<g clip-path="url(#clip0_542_2652)">
<path d="M21.1978 17.5034C21.1978 19.2021 19.8203 20.5796 18.1216 20.5796C16.4229 20.5796 15.0454 19.2021 15.0454 17.5034C15.0454 15.8047 16.4229 14.4272 18.1216 14.4272C19.8203 14.4272 21.1978 15.8047 21.1978 17.5034Z" fill="white"/>
<path d="M23.3169 8.20312H12.9263C10.6643 8.20312 8.82471 10.0427 8.82471 12.3047V22.6953C8.82471 24.9573 10.6643 26.7969 12.9263 26.7969H23.3169C25.5789 26.7969 27.4185 24.9573 27.4185 22.6953V12.3047C27.4185 10.0427 25.5789 8.20312 23.3169 8.20312ZM18.1216 22.627C15.2942 22.627 12.9946 20.3273 12.9946 17.5C12.9946 14.6727 15.2942 12.373 18.1216 12.373C20.9489 12.373 23.2485 14.6727 23.2485 17.5C23.2485 20.3273 20.9489 22.627 18.1216 22.627ZM24.0005 12.6465C23.4338 12.6465 22.9751 12.1878 22.9751 11.6211C22.9751 11.0544 23.4338 10.5957 24.0005 10.5957C24.5672 10.5957 25.0259 11.0544 25.0259 11.6211C25.0259 12.1878 24.5672 12.6465 24.0005 12.6465Z" fill="white"/>
<path d="M26.3931 0H9.8501C4.76143 0 0.621582 4.13984 0.621582 9.22852V25.7715C0.621582 30.8602 4.76143 35 9.8501 35H26.3931C31.4817 35 35.6216 30.8602 35.6216 25.7715V9.22852C35.6216 4.13984 31.4817 0 26.3931 0ZM29.4692 22.6953C29.4692 26.0873 26.7089 28.8477 23.3169 28.8477H12.9263C9.53428 28.8477 6.77393 26.0873 6.77393 22.6953V12.3047C6.77393 8.91269 9.53428 6.15234 12.9263 6.15234H23.3169C26.7089 6.15234 29.4692 8.91269 29.4692 12.3047V22.6953Z" fill="white"/>
</g>
<defs>
<clipPath id="clip0_542_2652">
<rect width="35" height="35" fill="white" transform="translate(0.621582)"/>
</clipPath>
</defs>
</svg>
