<svg width="50" height="50" viewBox="0 0 50 50" fill="none" xmlns="http://www.w3.org/2000/svg">
<g clip-path="url(#clip0_21_1070)">
<path d="M23.1259 6.97723C23.1259 6.18942 23.7668 5.54923 24.5539 5.54923C25.341 5.54923 25.9819 6.19014 25.9819 6.97723C25.9819 7.76432 25.341 8.40522 24.5539 8.40522C23.7668 8.40522 23.1259 7.76432 23.1259 6.97723ZM24.5546 4.53747C25.3424 4.53747 25.9826 3.89656 25.9826 3.10947V1.428C25.9826 0.640186 25.3417 0 24.5546 0C23.7675 0 23.1266 0.640906 23.1266 1.428V3.10947C23.1266 3.89728 23.7675 4.53747 24.5546 4.53747ZM45.1227 25.8436C44.2736 26.7596 43.3029 27.5193 42.2343 28.1026C41.9073 28.8321 41.229 30.1226 40.0429 31.4872C38.6517 33.088 36.2249 35.1346 32.4939 35.9361L32.3931 37.2273C32.2405 39.1802 31.3742 40.9906 29.9505 42.3329L32.9253 47.8987C33.1608 48.3387 33.1471 48.8781 32.8907 49.3058C32.6344 49.7336 32.1648 50 31.6658 50H17.4442C16.9451 50 16.4756 49.7343 16.2193 49.3058C15.9629 48.8781 15.9492 48.3387 16.1847 47.898L19.1588 42.3322C17.7358 40.9892 16.8688 39.1795 16.7161 37.2265L16.6153 35.9354C12.8844 35.1339 10.4576 33.088 9.06632 31.4865C7.87957 30.1218 7.20193 28.8314 6.875 28.1019C5.80634 27.5186 4.8349 26.7589 3.98661 25.8429C1.12341 22.7536 -0.341308 17.7228 0.0677193 12.3853C0.103005 11.9273 0.357927 11.5118 0.750392 11.2735C1.14286 11.0351 1.62966 11.0005 2.05237 11.1806C4.39275 12.1794 6.8498 12.9016 9.35437 13.3287C9.6417 13.3776 9.93839 13.4237 10.2394 13.4662C12.4329 9.98589 15.9183 7.35097 19.8479 6.21318C20.2145 6.10733 20.6005 6.14981 20.9346 6.33416C21.2687 6.51851 21.5114 6.82168 21.6173 7.18822C21.7231 7.55476 21.6806 7.94075 21.4963 8.27488C21.3119 8.60902 21.0088 8.8517 20.6422 8.95756C17.841 9.76841 15.3422 11.4607 13.5231 13.7629C14.4276 13.7989 15.3342 13.7975 16.2286 13.7579C16.8566 13.7312 17.4226 14.11 17.635 14.7012L19.2531 19.202V15.5294C19.2531 12.6057 21.6317 10.2271 24.5554 10.2271C27.479 10.2271 29.8576 12.6057 29.8576 15.5294V19.202L31.4757 14.7012C31.6881 14.11 32.2534 13.7291 32.8814 13.7579C33.7765 13.7968 34.6831 13.7982 35.5868 13.7629C33.7678 11.4607 31.2683 9.76769 28.467 8.95756C28.1005 8.8517 27.7973 8.60902 27.613 8.27488C27.4286 7.94075 27.3861 7.55476 27.492 7.18822C27.7109 6.4321 28.5045 5.99499 29.2606 6.21318C33.1903 7.35025 36.6757 9.98517 38.8692 13.4662C39.1702 13.4237 39.4669 13.3776 39.7542 13.3287C42.2595 12.9024 44.7158 12.1794 47.0569 11.1806C47.4796 11.0005 47.9657 11.0351 48.3582 11.2735C48.7506 11.5118 49.0063 11.9273 49.0416 12.3853C49.4499 17.7228 47.9851 22.7536 45.1234 25.8429L45.1227 25.8436ZM34.5319 28.1574C34.5319 27.3696 35.1728 26.7294 35.9599 26.7294C38.9116 26.7294 41.2888 25.7781 43.0271 23.9022C44.2556 22.5757 45.1544 20.8208 45.6973 18.6856C46.025 17.3988 46.2122 15.9866 46.2446 14.5658C44.2916 15.2665 42.2724 15.7972 40.2323 16.1443C39.6022 16.2516 38.9512 16.3438 38.2974 16.418L38.2794 16.4201C36.7967 16.5879 35.2966 16.6621 33.8118 16.6419L31.174 23.9785C32.5055 25.5563 33.1471 27.5582 32.9836 29.6458L32.7265 32.9339C34.7234 32.3521 36.4409 31.2553 37.8379 29.6682C37.9006 29.5969 37.9632 29.5241 38.0245 29.4507C37.3583 29.5407 36.6677 29.5861 35.9584 29.5861C35.1706 29.5861 34.5304 28.9452 34.5304 28.1581L34.5319 28.1574ZM18.9716 29.4233L19.5635 37.004C19.6593 38.2318 20.1979 39.3703 21.0837 40.2215V39.7203C21.0837 38.9325 21.7246 38.2923 22.5117 38.2923C23.2987 38.2923 23.9397 38.9332 23.9397 39.7203V41.5811C24.3487 41.6322 24.7577 41.6322 25.1667 41.5811V39.7203C25.1667 38.9325 25.8076 38.2923 26.5947 38.2923C27.3818 38.2923 28.0227 38.9332 28.0227 39.7203V40.2215C28.9085 39.3703 29.4471 38.2311 29.5429 37.004L30.1348 29.4233C30.2846 27.5093 29.3499 25.709 27.6965 24.726C27.2659 24.4696 26.998 23.9994 26.998 23.4982V15.5301C26.998 14.1813 25.9005 13.0846 24.5518 13.0846C23.203 13.0846 22.1062 14.182 22.1062 15.5301V23.4982C22.1062 23.9994 21.8383 24.4696 21.4077 24.726C19.7536 25.709 18.8196 27.5093 18.9694 29.4233H18.9716ZM25.9826 46.8797V47.144H29.2822L27.5424 43.8884C26.5947 44.2794 25.5916 44.4767 24.5539 44.4767C23.5162 44.4767 22.5131 44.2787 21.5654 43.8884L19.8256 47.144H23.1252V46.8797C23.1252 46.0919 23.7661 45.4517 24.5532 45.4517C25.3403 45.4517 25.9812 46.0926 25.9812 46.8797H25.9826ZM17.9339 23.9785L15.2961 16.6419C13.8105 16.6621 12.3105 16.5879 10.8313 16.4209L10.8104 16.4187C10.158 16.3445 9.50703 16.2524 8.87549 16.1451C6.83611 15.798 4.8169 15.2672 2.86322 14.5666C2.89635 15.9866 3.08286 17.3988 3.41051 18.6856C3.9542 20.8208 4.85219 22.5757 6.08071 23.9022C7.81836 25.7781 10.1962 26.7294 13.148 26.7294C13.9358 26.7294 14.576 27.3703 14.576 28.1574C14.576 28.9445 13.935 29.5854 13.148 29.5854C12.4386 29.5854 11.748 29.54 11.0819 29.45C11.1431 29.5234 11.2058 29.5962 11.2684 29.6674C12.6655 31.2546 14.383 32.3513 16.3798 32.9332L16.1228 29.6451C15.9593 27.5568 16.6009 25.5556 17.9324 23.9778L17.9339 23.9785ZM36.2537 8.40522C36.6353 8.40522 36.994 8.25688 37.2633 7.98684L40.843 4.40713C41.3997 3.85047 41.3997 2.94385 40.843 2.38719C40.2863 1.83054 39.3797 1.83054 38.8231 2.38719L35.2434 5.9669C34.6867 6.52355 34.6867 7.43018 35.2434 7.98684C35.5134 8.25688 35.872 8.40522 36.253 8.40522H36.2537ZM11.8453 7.98756C12.1153 8.2576 12.4739 8.40595 12.8549 8.40595C13.2358 8.40595 13.5951 8.2576 13.8645 7.98756C14.4211 7.4309 14.4211 6.52428 13.8645 5.96762L10.2848 2.38791C9.72811 1.83126 8.82148 1.83126 8.26483 2.38791C7.70818 2.94457 7.70818 3.85119 8.26483 4.40785L11.8445 7.98756H11.8453ZM24.5546 21.4653C25.3424 21.4653 25.9826 20.8244 25.9826 20.0373V18.4041C25.9826 17.6163 25.3417 16.9761 24.5546 16.9761C23.7675 16.9761 23.1266 17.617 23.1266 18.4041V20.0373C23.1266 20.8251 23.7675 21.4653 24.5546 21.4653Z" fill="url(#paint0_linear_21_1070)"/>
</g>
<defs>
<linearGradient id="paint0_linear_21_1070" x1="24.5545" y1="50" x2="24.5545" y2="0" gradientUnits="userSpaceOnUse">
<stop stop-color="#900D14"/>
<stop offset="1" stop-color="#AE1017"/>
</linearGradient>
<clipPath id="clip0_21_1070">
<rect width="49.1085" height="50" fill="white"/>
</clipPath>
</defs>
</svg>
