<svg width="57" height="50" viewBox="0 0 57 50" fill="none" xmlns="http://www.w3.org/2000/svg">
<g clip-path="url(#clip0_21_504)">
<path d="M42.75 40.625C42.75 41.6587 41.9087 42.5 40.875 42.5H28.25C27.2162 42.5 26.375 41.6587 26.375 40.625C26.375 39.5913 27.2162 38.75 28.25 38.75H40.875C41.9087 38.75 42.75 39.5913 42.75 40.625ZM23.875 15.625V28.25C23.875 29.2838 23.0338 30.125 22 30.125H9.375C8.34125 30.125 7.5 29.2838 7.5 28.25V15.625C7.5 14.5912 8.34125 13.75 9.375 13.75H22C23.0338 13.75 23.875 14.5912 23.875 15.625ZM11.25 17.5V26.375H20.125V17.5H11.25ZM22 32.5H9.375C8.34125 32.5 7.5 33.3413 7.5 34.375C7.5 35.4087 8.34125 36.25 9.375 36.25H22C23.0338 36.25 23.875 35.4087 23.875 34.375C23.875 33.3413 23.0338 32.5 22 32.5ZM22 38.75H9.375C8.34125 38.75 7.5 39.5913 7.5 40.625C7.5 41.6587 8.34125 42.5 9.375 42.5H22C23.0338 42.5 23.875 41.6587 23.875 40.625C23.875 39.5913 23.0338 38.75 22 38.75ZM40.875 32.5H28.25C27.2162 32.5 26.375 33.3413 26.375 34.375C26.375 35.4087 27.2162 36.25 28.25 36.25H40.875C41.9087 36.25 42.75 35.4087 42.75 34.375C42.75 33.3413 41.9087 32.5 40.875 32.5ZM40.875 7.5H9.375C8.34125 7.5 7.5 8.34125 7.5 9.375C7.5 10.4088 8.34125 11.25 9.375 11.25H40.875C41.9087 11.25 42.75 10.4088 42.75 9.375C42.75 8.34125 41.9087 7.5 40.875 7.5ZM56.5 9.375V43.125C56.5 46.9162 53.4162 50 49.625 50H6.875C3.08375 50 0 46.9162 0 43.125V3.125C0 1.40125 1.40125 0 3.125 0H47.125C48.8488 0 50.25 1.40125 50.25 3.125V6.25H53.375C55.0988 6.25 56.5 7.65125 56.5 9.375ZM52.75 43.125V10H50.25V41.25C51.2837 41.25 52.125 42.0913 52.125 43.125C52.125 44.1587 51.2837 45 50.25 45C48.1825 45 46.5 43.3175 46.5 41.25V3.75H3.75V43.125C3.75 44.8488 5.15125 46.25 6.875 46.25H49.625C51.3488 46.25 52.75 44.8488 52.75 43.125ZM40.875 20H28.25C27.2162 20 26.375 20.8412 26.375 21.875C26.375 22.9088 27.2162 23.75 28.25 23.75H40.875C41.9087 23.75 42.75 22.9088 42.75 21.875C42.75 20.8412 41.9087 20 40.875 20ZM40.875 13.75H28.25C27.2162 13.75 26.375 14.5912 26.375 15.625C26.375 16.6588 27.2162 17.5 28.25 17.5H40.875C41.9087 17.5 42.75 16.6588 42.75 15.625C42.75 14.5912 41.9087 13.75 40.875 13.75ZM40.875 26.25H28.25C27.2162 26.25 26.375 27.0912 26.375 28.125C26.375 29.1588 27.2162 30 28.25 30H40.875C41.9087 30 42.75 29.1588 42.75 28.125C42.75 27.0912 41.9087 26.25 40.875 26.25Z" fill="url(#paint0_linear_21_504)"/>
</g>
<defs>
<linearGradient id="paint0_linear_21_504" x1="28.25" y1="50" x2="28.25" y2="0" gradientUnits="userSpaceOnUse">
<stop stop-color="#900D14"/>
<stop offset="1" stop-color="#AE1017"/>
</linearGradient>
<clipPath id="clip0_21_504">
<rect width="56.5" height="50" fill="white"/>
</clipPath>
</defs>
</svg>
