<svg width="20" height="20" viewBox="0 0 20 20" fill="none" xmlns="http://www.w3.org/2000/svg">
<path d="M10 0C4.48555 0 0 4.48594 0 10C0 15.5141 4.48555 20 10 20C15.5145 20 20 15.5141 20 10C20 4.48594 15.5145 0 10 0ZM13.9754 10.3504L8.14219 14.1004C8.07383 14.1449 7.99492 14.1668 7.9168 14.1668C7.84844 14.1668 7.7793 14.1496 7.71758 14.116C7.5832 14.0426 7.50039 13.9027 7.50039 13.7504V6.25039C7.50039 6.09766 7.5832 5.95781 7.71758 5.88438C7.84961 5.81211 8.01445 5.81641 8.14258 5.9L13.9758 9.65C14.0945 9.72656 14.1672 9.85859 14.1672 10.0004C14.1672 10.1422 14.0949 10.2742 13.9758 10.3508L13.9754 10.3504Z" fill="white"/>
</svg>
