<svg width="40" height="40" viewBox="0 0 40 40" fill="none" xmlns="http://www.w3.org/2000/svg">
<path d="M20 0C8.97109 0 0 8.97187 0 20C0 31.0281 8.97109 40 20 40C31.0289 40 40 31.0281 40 20C40 8.97187 31.0289 0 20 0ZM27.9508 20.7008L16.2844 28.2008C16.1477 28.2898 15.9898 28.3336 15.8336 28.3336C15.6969 28.3336 15.5586 28.2992 15.4352 28.232C15.1664 28.0852 15.0008 27.8055 15.0008 27.5008V12.5008C15.0008 12.1953 15.1664 11.9156 15.4352 11.7688C15.6992 11.6242 16.0289 11.6328 16.2852 11.8L27.9516 19.3C28.1891 19.4531 28.3344 19.7172 28.3344 20.0008C28.3344 20.2844 28.1898 20.5484 27.9516 20.7016L27.9508 20.7008Z" fill="#C2C2C2"/>
</svg>
