<svg width="56" height="50" viewBox="0 0 56 50" fill="none" xmlns="http://www.w3.org/2000/svg">
<g clip-path="url(#clip0_101_9924)">
<path d="M27.7217 0C14.0254 0 2.96673 11.0513 2.96673 24.7475C2.96426 25.3763 3.54225 25.8478 4.15738 25.7203L9.10565 24.7339C9.56978 24.6411 9.90272 24.2339 9.90272 23.7611C9.90272 14.4846 18.4452 5.94213 27.7217 5.94213C36.9981 5.94213 45.5505 14.4846 45.5505 23.7611C45.548 24.2314 45.8785 24.6386 46.3389 24.7339L51.2934 25.7203C51.9073 25.8441 52.4803 25.3738 52.4791 24.7475C52.4803 11.0513 41.4191 0 27.7217 0ZM27.7081 24.245C27.1647 24.2562 26.7303 24.7005 26.7352 25.2451V49.0086C26.7352 50.3305 28.718 50.3305 28.718 49.0086V25.2451C28.7242 24.6869 28.2662 24.2339 27.7081 24.245ZM10.8892 26.7303C8.16377 26.7303 5.94213 28.9594 5.94213 31.6847V44.5567C5.94213 47.282 8.16377 49.5049 10.8892 49.5049C13.6145 49.5049 15.8461 47.282 15.8461 44.5567V31.6847C15.8461 28.9594 13.6145 26.7303 10.8892 26.7303ZM44.5567 26.7303C41.8313 26.7303 39.6084 28.9594 39.6084 31.6847V44.5567C39.6084 47.282 41.8313 49.5049 44.5567 49.5049C47.282 49.5049 49.5037 47.282 49.5037 44.5567V31.6847C49.5037 28.9594 47.282 26.7303 44.5567 26.7303ZM22.7759 29.2069V45.0455C22.7462 46.3959 24.7859 46.3959 24.7562 45.0455V29.2069C24.7661 28.6487 24.3118 28.1648 23.7029 28.2019C23.1435 28.2353 22.766 28.697 22.7759 29.2069ZM30.6983 29.2069V45.0455C30.5696 46.4837 32.7999 46.4837 32.6712 45.0455V29.2069C32.6811 28.6487 32.2268 28.1635 31.6191 28.2019C31.0622 28.2353 30.6884 28.6994 30.6983 29.2069ZM2.9952 31.6847C1.33546 31.6402 0 33.0239 0 34.6527V41.5813C0 43.2101 1.33794 44.5554 2.96673 44.5554H3.96059V31.6835H2.9952V31.6847ZM51.4852 31.6847V44.5567H52.4791C54.1079 44.5567 55.4458 43.2113 55.4458 41.5825V34.6539C55.4458 33.0251 54.1079 31.686 52.4791 31.686H51.4852V31.6847ZM35.6317 32.16C35.0809 32.1637 34.6403 32.6192 34.6515 33.17V41.0936C34.6515 42.4155 36.6342 42.4155 36.6342 41.0936V33.17C36.6454 32.6105 36.1911 32.1538 35.6329 32.16H35.6317ZM19.7856 34.1403C19.2386 34.1514 18.8017 34.602 18.8128 35.1503V43.0739C18.8128 44.3958 20.7956 44.3958 20.7956 43.0739V35.1503C20.8067 34.5883 20.3475 34.1292 19.7856 34.1403Z" fill="url(#paint0_linear_101_9924)"/>
</g>
<defs>
<linearGradient id="paint0_linear_101_9924" x1="27.7229" y1="50" x2="27.7229" y2="0" gradientUnits="userSpaceOnUse">
<stop stop-color="#900D14"/>
<stop offset="1" stop-color="#AE1017"/>
</linearGradient>
<clipPath id="clip0_101_9924">
<rect width="55.4458" height="50" fill="white"/>
</clipPath>
</defs>
</svg>
