<svg width="21" height="20" viewBox="0 0 21 20" fill="none" xmlns="http://www.w3.org/2000/svg">
<path fill-rule="evenodd" clip-rule="evenodd" d="M9.30735 1.9C5.45516 1.9 2.33235 5.02281 2.33235 8.875C2.33235 12.7272 5.45516 15.85 9.30735 15.85C13.1595 15.85 16.2823 12.7272 16.2823 8.875C16.2823 5.02281 13.1595 1.9 9.30735 1.9ZM0.532349 8.875C0.532349 4.0287 4.46105 0.0999985 9.30735 0.0999985C14.1536 0.0999985 18.0823 4.0287 18.0823 8.875C18.0823 13.7213 14.1536 17.65 9.30735 17.65C4.46105 17.65 0.532349 13.7213 0.532349 8.875Z" fill="#9E9E9E"/>
<path fill-rule="evenodd" clip-rule="evenodd" d="M7.67138 4.92541C8.19004 4.71057 8.74595 4.6 9.30735 4.6C9.8044 4.6 10.2073 5.00294 10.2073 5.5C10.2073 5.99705 9.8044 6.4 9.30735 6.4C8.98233 6.4 8.66049 6.46402 8.36021 6.5884C8.05993 6.71278 7.78708 6.89508 7.55726 7.12491C7.32743 7.35473 7.14513 7.62758 7.02075 7.92786C6.89637 8.22814 6.83235 8.54998 6.83235 8.875C6.83235 9.37206 6.4294 9.775 5.93235 9.775C5.43529 9.775 5.03235 9.37206 5.03235 8.875C5.03235 8.3136 5.14292 7.75769 5.35776 7.23903C5.5726 6.72036 5.8875 6.24909 6.28447 5.85212C6.68144 5.45515 7.15271 5.14025 7.67138 4.92541Z" fill="#9E9E9E"/>
<path fill-rule="evenodd" clip-rule="evenodd" d="M15.421 14.9886C15.7724 14.6371 16.3423 14.6371 16.6937 14.9886L20.0687 18.3636C20.4202 18.7151 20.4202 19.2849 20.0687 19.6364C19.7173 19.9879 19.1474 19.9879 18.796 19.6364L15.421 16.2614C15.0695 15.9099 15.0695 15.3401 15.421 14.9886Z" fill="#9E9E9E"/>
</svg>
