<svg width="36" height="35" viewBox="0 0 36 35" fill="none" xmlns="http://www.w3.org/2000/svg">
<g clip-path="url(#clip0_360_21894)">
<path d="M18.4883 0C8.82363 0 0.988281 7.83535 0.988281 17.5C0.988281 27.1646 8.82363 35 18.4883 35C28.1529 35 35.9883 27.1646 35.9883 17.5C35.9883 7.83535 28.1529 0 18.4883 0ZM24.8163 23.9593C24.8163 23.9593 24.8122 23.9654 24.8102 23.9688C24.5217 24.4624 23.888 24.6285 23.3944 24.3407C20.6717 22.75 17.5278 22.4957 15.3684 22.5511C13.9649 22.5873 12.5704 22.7712 11.206 23.1C10.6427 23.1998 10.1047 22.8238 10.0049 22.2605C9.91807 21.7704 10.1922 21.2885 10.657 21.1114C12.1603 20.7375 13.699 20.527 15.2467 20.4832C16.728 20.4285 18.2114 20.5358 19.6695 20.8031C21.3484 21.1073 22.9624 21.6959 24.4424 22.5449C24.9359 22.832 25.1034 23.465 24.8163 23.9593ZM26.7352 19.9698C26.5157 20.3472 26.1117 20.5789 25.6749 20.5782C25.4575 20.5782 25.2442 20.5201 25.0569 20.4094C21.8331 18.5261 18.1103 18.2219 15.5509 18.3012C13.8897 18.3436 12.2368 18.5616 10.6215 18.952C9.96182 19.1071 9.30078 18.6983 9.14561 18.0387C8.99863 17.4132 9.3582 16.7802 9.9707 16.5874C11.7515 16.1465 13.5746 15.8997 15.408 15.8512C17.1635 15.7842 18.921 15.9113 20.6478 16.2313C22.635 16.5915 24.5449 17.2895 26.2956 18.2957C26.878 18.6375 27.0742 19.386 26.7352 19.9698ZM29.233 15.5784C29.233 15.5784 29.2289 15.5853 29.2269 15.5887C28.8099 16.3058 27.8904 16.5484 27.174 16.1308C27.172 16.1308 27.1706 16.1287 27.1686 16.128C19.5048 11.6491 9.56328 14.3124 9.46963 14.3384C8.67734 14.5893 7.83105 14.1504 7.58018 13.3574C7.3293 12.5651 7.76816 11.7188 8.56045 11.468C8.59805 11.4557 8.63633 11.4454 8.67461 11.4365C10.8532 10.8999 13.0831 10.5991 15.3267 10.5396C17.4786 10.4597 19.6333 10.6155 21.7518 11.0052C24.1881 11.4434 26.5308 12.2944 28.68 13.5229C29.4005 13.9378 29.6479 14.8586 29.233 15.5784Z" fill="#12C64B"/>
</g>
<defs>
<clipPath id="clip0_360_21894">
<rect width="35" height="35" fill="white" transform="translate(0.988281)"/>
</clipPath>
</defs>
</svg>
