<svg width="50" height="50" viewBox="0 0 50 50" fill="none" xmlns="http://www.w3.org/2000/svg">
<g clip-path="url(#clip0_21_1107)">
<path d="M1.92772 50C1.48753 50 1.0018 49.8937 0.59196 49.5142C-0.227712 48.7856 -2.51913e-05 47.6017 0.0910495 47.2526C0.242841 46.6606 0.637498 46.3266 0.850005 46.1293L2.32238 44.6569C3.49117 43.4881 4.64478 42.3194 5.82875 41.1657L5.38856 39.6175C4.81175 37.6594 4.23495 35.6405 3.77957 33.5914C3.09651 30.4341 3.96172 27.4438 6.29931 24.9544C7.01273 24.1803 7.77168 23.4517 8.51546 22.7231L8.7735 22.4651C9.69943 21.5695 10.5343 21.5695 11.0807 21.7213C11.5209 21.8579 12.3102 22.2677 12.5986 23.5731L12.7808 24.3776C13.4031 27.0643 14.0103 29.751 14.5871 32.4529C15.0273 31.9976 15.4675 31.5422 15.7104 31.269C15.4979 30.4493 15.255 29.6144 15.0121 28.7644C14.5719 27.201 14.1014 25.592 13.7523 23.9678C12.9933 20.5525 13.9192 17.3801 16.4238 14.7996C17.1979 14.0103 17.9872 13.221 18.7765 12.4469C19.7025 11.5513 20.5829 11.6272 21.023 11.7638C21.4632 11.9004 22.2374 12.2951 22.5106 13.5246C23.1785 16.5149 23.8615 19.49 24.4839 22.4954C24.9241 22.0552 25.3339 21.6302 25.6375 21.3266C25.3795 20.4007 25.1366 19.5355 24.8937 18.6703C24.5446 17.456 24.1955 16.2416 23.8767 15.0425C22.7535 10.9441 23.7249 7.39221 26.7304 4.493C27.034 4.2046 27.3376 3.90101 27.626 3.59743C28.0054 3.21795 28.3849 2.8233 28.7796 2.459C29.4323 1.83665 30.2368 1.62415 30.9805 1.85183C31.7091 2.07952 32.2404 2.70186 32.4226 3.55189C32.8324 5.4341 33.2574 7.31631 33.6521 9.19852C33.6672 9.10745 33.6824 9.01638 33.7128 8.9253C34.5628 4.91801 37.1281 2.27685 41.1202 1.25985C42.6533 0.865191 44.2319 0.591967 45.7346 0.318743L47.1615 0.0606978C47.4347 0.0151605 47.6776 -0.0151978 47.8901 -0.0151978C48.7553 -0.0151978 49.2562 0.379459 49.5294 0.698221C50.1669 1.47236 49.9696 2.44382 49.8937 2.80812C49.7723 3.4001 49.666 3.97691 49.5446 4.56889C49.2562 6.08681 48.9526 7.66543 48.558 9.2137C47.632 12.8415 44.6114 15.5889 40.9532 16.3023C41.5756 16.4541 42.1979 16.6059 42.8354 16.7122C43.7917 16.8943 44.7328 17.122 45.6891 17.3497L46.1141 17.456C47.1918 17.714 47.8597 18.2453 48.0874 19.0498C48.3151 19.8391 48.0267 20.6588 47.2374 21.4632L46.9338 21.7668C46.2507 22.4499 45.5677 23.1481 44.8543 23.8008C42.2434 26.2143 39.0255 27.0643 35.5495 26.2143C33.3485 25.683 31.1931 25.0455 29.0224 24.3776C28.6581 24.575 28.051 25.0303 27.5349 25.4705C29.1591 25.7438 30.7073 26.1232 32.2404 26.4875C33.4092 26.7608 34.5628 27.0492 35.7316 27.2768C35.9745 27.3224 36.2022 27.3831 36.4298 27.459C37.6442 27.8233 38.0692 28.5367 38.2058 29.0832C38.3424 29.6144 38.3121 30.4493 37.4013 31.3449L36.6272 32.119C36.1263 32.6351 35.6254 33.136 35.0941 33.6369C32.3163 36.2173 28.8858 37.0522 25.1669 36.0656C24.0589 35.762 22.9508 35.4432 21.8427 35.1396C20.8105 34.8512 19.7784 34.5476 18.7462 34.2744C18.5033 34.4869 18.0479 34.9423 17.547 35.428C19.2167 35.6861 20.8105 36.0807 22.374 36.4602C23.6187 36.7638 24.8026 37.0522 26.0018 37.2799C26.3054 37.3406 26.609 37.4165 26.8974 37.5227C27.9599 37.9478 28.2635 38.6915 28.3394 39.1166C28.476 39.7996 28.2331 40.513 27.6715 41.0595L26.8974 41.8336C25.9866 42.7595 25.0455 43.7006 23.9678 44.5203C21.5999 46.3266 18.6247 46.8579 15.3764 46.0382C13.2665 45.507 11.2325 44.915 8.81904 44.1712C7.57435 45.4311 6.39038 46.615 5.20641 47.799L3.94654 49.0589C3.73404 49.3017 3.41528 49.6964 2.86883 49.8634C2.6715 49.9241 2.32238 50.0152 1.9429 50.0152L1.92772 50ZM8.92529 41.0898C9.1378 41.105 9.36549 41.1506 9.59318 41.2265C12.0067 41.9702 14.0407 42.5622 16.105 43.0783C18.4881 43.6703 20.4462 43.3515 22.1159 42.0765C22.9053 41.4845 23.6187 40.7711 24.3776 40.0273C23.4517 39.83 22.5258 39.6023 21.6302 39.3898C19.0953 38.7674 16.697 38.1906 14.1166 38.1299C13.5701 38.1299 13.0844 37.8112 12.8263 37.3406C12.2495 37.1281 11.8549 36.5968 11.8245 35.9897C11.8093 35.595 11.7941 35.2307 11.7941 34.8816C11.7941 34.3048 11.7941 33.8646 11.7031 33.4851C11.1414 30.8439 10.5495 28.2028 9.9423 25.5616C9.45656 26.0322 8.98601 26.5179 8.51546 27.0188C6.87611 28.7796 6.26895 30.7832 6.75468 32.9387C7.1797 34.8816 7.7565 36.8549 8.30295 38.7674L8.81904 40.5434C8.86458 40.7255 8.91012 40.9077 8.92529 41.0747V41.0898ZM18.7917 31.1931C18.9435 31.1931 19.0953 31.2234 19.2471 31.269C20.3855 31.5725 21.524 31.8913 22.6624 32.2252C23.7553 32.544 24.8482 32.8476 25.9411 33.136C28.6733 33.8646 30.9805 33.303 33.0145 31.4207C33.4699 30.9957 33.9101 30.5555 34.3351 30.1153C33.4092 29.918 32.4681 29.6903 31.527 29.4626C29.0983 28.8858 26.5938 28.2787 23.9678 28.1421C23.4517 28.1117 22.9963 27.8233 22.7383 27.3983C22.6928 27.3983 22.6624 27.3679 22.6169 27.3527C22.0552 27.1251 21.6758 26.5634 21.6758 25.9563C21.6758 25.6071 21.6758 25.2884 21.7061 25C21.7213 24.5446 21.7365 24.1955 21.6909 23.9374C21.1141 21.1748 20.507 18.4122 19.8846 15.6648C19.4596 16.0898 19.0346 16.5149 18.6096 16.9551C16.8033 18.8221 16.1809 20.9168 16.7274 23.3455C17.0613 24.8785 17.5167 26.442 17.9417 27.9599C18.1997 28.8707 18.4578 29.7662 18.7006 30.677C18.7462 30.8288 18.7765 31.0109 18.7917 31.2082V31.1931ZM29.0376 21.3115C29.2046 21.3115 29.3564 21.3266 29.5082 21.3722C31.785 22.0704 34.0012 22.7383 36.2477 23.2847C38.7674 23.8919 40.8925 23.3455 42.7747 21.5999C43.2756 21.1293 43.7765 20.6436 44.2623 20.1578C43.5944 20.0061 42.9417 19.8543 42.2738 19.7176C41.3782 19.5507 40.4979 19.3382 39.6175 19.1105C37.7656 18.6551 35.9897 18.2301 34.1985 18.2756C33.6673 18.2908 33.1512 18.0176 32.8628 17.547C32.8172 17.4863 32.7869 17.4104 32.7565 17.3345C32.6047 17.289 32.4529 17.2283 32.3163 17.1372C31.8761 16.864 31.6029 16.3782 31.6029 15.847C31.6029 15.6041 31.6029 15.3764 31.6332 15.1336C31.6484 14.7844 31.6636 14.4353 31.6332 14.2228C31.0564 11.3691 30.4341 8.53064 29.8118 5.70733C29.493 6.02609 29.1742 6.36003 28.8555 6.66361C26.6697 8.75833 26.0018 11.2325 26.8215 14.2228C27.1554 15.422 27.4893 16.6211 27.8385 17.8203C28.1117 18.7917 28.4001 19.7632 28.6581 20.7498C28.7189 20.9472 28.7492 21.1293 28.7644 21.3115C28.8555 21.3115 28.9617 21.2963 29.0528 21.2963L29.0376 21.3115ZM36.5057 13.4639C37.4165 13.5094 38.3576 13.5094 39.3442 13.4639C42.3193 13.3576 44.915 11.3084 45.6284 8.48511C46.0079 7.02791 46.2963 5.49482 46.5695 4.02245C46.615 3.7644 46.6606 3.50636 46.7213 3.24831L46.2811 3.32421C44.8239 3.58225 43.306 3.85548 41.8792 4.21977C39.0407 4.93319 37.3102 6.73951 36.7031 9.578C36.5057 10.5039 36.5057 11.5209 36.5057 12.6138C36.5057 12.9022 36.5057 13.1906 36.5057 13.479V13.4639Z" fill="url(#paint0_linear_21_1107)"/>
</g>
<defs>
<linearGradient id="paint0_linear_21_1107" x1="-2.52138e-05" y1="25" x2="49.9848" y2="25" gradientUnits="userSpaceOnUse">
<stop stop-color="#900D14"/>
<stop offset="1" stop-color="#AE1017"/>
</linearGradient>
<clipPath id="clip0_21_1107">
<rect width="49.9848" height="50" fill="white"/>
</clipPath>
</defs>
</svg>
