<svg width="51" height="50" viewBox="0 0 51 50" fill="none" xmlns="http://www.w3.org/2000/svg">
<g clip-path="url(#clip0_21_624)">
<path d="M42.041 29.8146V17.5981C42.041 15.7199 41.4555 13.927 40.3472 12.4107L32.7834 2.06257L32.7501 2.01843C30.967 -0.264816 27.6579 -0.672819 25.3737 1.11023C25.2815 1.18183 25.1942 1.25735 25.1089 1.33385C25.0226 1.25735 24.9353 1.18183 24.8431 1.11121C23.7387 0.249111 22.3627 -0.13045 20.967 0.0411863C19.5714 0.212822 18.3278 0.915058 17.4667 2.01843L9.86858 12.4107C8.7603 13.927 8.17477 15.7209 8.17477 17.5981V29.8136L0.821891 37.1675L13.6544 50L21.0867 42.5677L21.073 42.5539L23.8162 40.202C24.2997 39.7872 24.7322 39.3252 25.1089 38.826C25.4855 39.3252 25.917 39.7872 26.4015 40.202L29.1448 42.5539L29.131 42.5677L36.5634 50L49.3958 37.1675L42.043 29.8146H42.041ZM13.6544 45.0451L5.77678 37.1665L8.25422 34.6891L16.1318 42.5677L13.6544 45.0451ZM23.3562 33.5838C23.3562 35.1079 22.6922 36.5506 21.5359 37.5422L18.5877 40.0686L11.6781 33.1591V17.5981C11.6781 16.4692 12.0302 15.3903 12.6971 14.4782L20.2423 4.15653C20.5267 3.80148 20.9357 3.57492 21.3956 3.51804C21.8625 3.46017 22.3215 3.58571 22.6873 3.8721C23.0532 4.15751 23.2866 4.57238 23.3435 5.03923C23.4013 5.50607 23.2758 5.96508 22.9894 6.33091L16.3495 15.4953V28.8456H19.8529V20.4374C19.8529 19.4714 20.6385 18.6858 21.6046 18.6858C22.5706 18.6858 23.3562 19.4714 23.3562 20.4374V33.5838ZM25.1079 16.5251C24.1771 15.6914 22.9492 15.1824 21.6046 15.1824C21.3525 15.1824 21.1053 15.2011 20.8631 15.2354L25.1079 9.37524L29.3527 15.2354C29.1104 15.2011 28.8633 15.1824 28.6112 15.1824C27.2666 15.1824 26.0386 15.6905 25.1079 16.5251ZM28.6799 37.5422C27.5226 36.5506 26.8596 35.1079 26.8596 33.5838V20.4374C26.8596 19.4714 27.6452 18.6858 28.6112 18.6858C29.5773 18.6858 30.3629 19.4714 30.3629 20.4374V28.8456H33.8662V15.4953L27.2646 6.38093L27.2264 6.32993C26.632 5.56884 26.7674 4.46547 27.5284 3.87112C28.2836 3.28167 29.3752 3.41015 29.9725 4.15554L37.5177 14.4772C38.1846 15.3894 38.5367 16.4672 38.5367 17.5971V33.1581L31.6271 40.0677L28.6789 37.5412L28.6799 37.5422ZM34.084 42.5677L41.9625 34.6891L44.44 37.1665L36.5614 45.0451L34.084 42.5677ZM0 11.2907H5.83856V14.794H0V11.2907ZM0.952334 5.74048L2.12044 2.43722L7.62554 4.38309L6.45743 7.68634L0.952334 5.74048ZM44.3762 11.2907H50.2158V14.794H44.3762V11.2907ZM42.5883 4.38407L48.0934 2.4382L49.2615 5.74146L43.7564 7.68732L42.5883 4.38407Z" fill="url(#paint0_linear_21_624)"/>
</g>
<defs>
<linearGradient id="paint0_linear_21_624" x1="25.1079" y1="50" x2="25.1079" y2="-0.000305176" gradientUnits="userSpaceOnUse">
<stop stop-color="#900D14"/>
<stop offset="1" stop-color="#AE1017"/>
</linearGradient>
<clipPath id="clip0_21_624">
<rect width="50.2158" height="50" fill="white"/>
</clipPath>
</defs>
</svg>
