<svg width="36" height="35" viewBox="0 0 36 35" fill="none" xmlns="http://www.w3.org/2000/svg">
<g clip-path="url(#clip0_542_2656)">
<path d="M31.3798 0H3.94443C1.85537 0 0.162109 1.69326 0.162109 3.78232V31.2184C0.162109 33.3067 1.85537 35.0007 3.94443 35.0007H31.3805C33.4689 35.0007 35.1628 33.3074 35.1628 31.2184V3.78232C35.1621 1.69326 33.4689 0 31.3798 0ZM28.4581 15.2469C26.2426 15.2469 24.1891 14.538 22.5129 13.3349V22.0179C22.5129 26.3553 18.9849 29.8833 14.6481 29.8833C12.9727 29.8833 11.4188 29.3549 10.1412 28.4573C8.11299 27.0334 6.78408 24.6784 6.78408 22.0179C6.78408 17.6812 10.3121 14.1531 14.6488 14.1531C15.0084 14.1531 15.3618 14.1825 15.7084 14.2297V18.5924C15.3734 18.4871 15.018 18.4263 14.6488 18.4263C12.6678 18.4263 11.0572 20.0375 11.0572 22.0179C11.0572 23.3974 11.8393 24.5957 12.9829 25.1973C13.4813 25.4604 14.0473 25.6102 14.6488 25.6102C16.5841 25.6102 18.1618 24.0714 18.2336 22.1532L18.2404 5.0292H22.5136C22.5136 5.39902 22.5498 5.76133 22.6148 6.1127C22.9162 7.74102 23.8828 9.1376 25.2213 10.0105C26.1537 10.6183 27.2652 10.973 28.4588 10.973V15.2462L28.4581 15.2469Z" fill="white"/>
</g>
<defs>
<clipPath id="clip0_542_2656">
<rect width="35" height="35" fill="white" transform="translate(0.162109)"/>
</clipPath>
</defs>
</svg>
