<svg width="50" height="35" viewBox="0 0 50 35" fill="none" xmlns="http://www.w3.org/2000/svg">
<g clip-path="url(#clip0_360_21890)">
<path d="M48.9574 5.47616C48.3814 3.3351 46.6934 1.64705 44.5523 1.07102C40.6402 0 24.9937 0 24.9937 0C24.9937 0 9.34629 0 5.43516 1.03001C3.3351 1.60604 1.60604 3.3351 1.02904 5.47616C0 9.38827 0 17.4995 0 17.4995C0 17.4995 0 25.6527 1.02904 29.5229C1.60604 31.6639 3.29409 33.352 5.43516 33.929C9.38827 35 24.9937 35 24.9937 35C24.9937 35 40.6402 35 44.5523 33.97C46.6934 33.394 48.3814 31.7049 48.9584 29.5639C49.9874 25.6527 49.9874 17.5405 49.9874 17.5405C49.9874 17.5405 50.0285 9.38827 48.9574 5.47616ZM20.0116 24.9937V10.0063L33.023 17.4995L20.0116 24.9937Z" fill="#FF0000"/>
</g>
<defs>
<clipPath id="clip0_360_21890">
<rect width="49.9874" height="35" fill="white"/>
</clipPath>
</defs>
</svg>
