<svg width="36" height="35" viewBox="0 0 36 35" fill="none" xmlns="http://www.w3.org/2000/svg">
<g clip-path="url(#clip0_542_2649)">
<path d="M15.3311 14.0581V20.447L21.2199 17.2803L15.3311 14.0581Z" fill="white"/>
<path d="M26.3033 0H8.83105C4.0255 0 0.0810547 3.94444 0.0810547 8.77778V26.25C0.0810547 31.0556 4.0255 35 8.83105 35H26.3033C31.1366 35 35.0811 31.0556 35.0811 26.2222V8.77778C35.0811 3.94444 31.1366 0 26.3033 0ZM28.4144 18.3611C28.4144 20.1944 28.2477 22.0556 28.2477 22.0556C28.2477 22.0556 28.0533 23.6111 27.4144 24.3056C26.5811 25.2222 25.6644 25.2222 25.2477 25.2778C22.1922 25.5 17.6088 25.5278 17.6088 25.5278C17.6088 25.5278 11.9144 25.4444 10.1644 25.2778C9.69217 25.1944 8.58106 25.2222 7.74772 24.3056C7.08106 23.6111 6.91439 22.0556 6.91439 22.0556C6.91439 22.0556 6.74772 20.1944 6.74772 18.3611V16.6389C6.74772 14.8056 6.91439 12.9444 6.91439 12.9444C6.91439 12.9444 7.10883 11.3889 7.74772 10.6944C8.58106 9.77778 9.49772 9.75 9.91439 9.69445C12.9977 9.47222 17.5811 9.44444 17.5811 9.44444C17.5811 9.44444 22.1644 9.47222 25.2199 9.69445C25.6366 9.75 26.5811 9.77778 27.4144 10.6667C28.0811 11.3611 28.2477 12.9444 28.2477 12.9444C28.2477 12.9444 28.4144 14.8056 28.4144 16.6389V18.3611Z" fill="white"/>
</g>
<defs>
<clipPath id="clip0_542_2649">
<rect width="35" height="35" fill="white" transform="translate(0.0810547)"/>
</clipPath>
</defs>
</svg>
