<svg width="35" height="35" viewBox="0 0 35 35" fill="none" xmlns="http://www.w3.org/2000/svg">
<path class="path" d="M31.4514 0H3.54857C1.58902 0 0 1.58832 0 3.54857V31.4507C0 33.411 1.58902 35 3.54857 35H31.4514C33.411 35 35 33.411 35 31.4507V3.54857C35 1.58832 33.411 0 31.4514 0ZM11.1301 22.453C9.73602 22.4697 8.3517 22.462 6.95767 22.462C6.55313 22.462 6.15831 22.4787 5.75377 22.453C5.25416 22.4273 4.76427 22.3233 4.5228 21.807C4.28202 21.2914 4.4541 20.8272 4.78093 20.4039C6.10627 18.7192 7.43854 17.0226 8.7729 15.3371C8.85131 15.2337 8.92694 15.1317 9.00535 15.0367C8.92 14.8903 8.79927 14.959 8.69518 14.9513C7.76536 14.9423 6.82791 14.9513 5.90018 14.9423C5.68507 14.9423 5.46927 14.9159 5.26318 14.8736C4.77329 14.7619 4.47284 14.272 4.58456 13.7898C4.66227 13.4629 4.9204 13.1958 5.24653 13.1181C5.45262 13.066 5.66842 13.0397 5.88352 13.0397C7.41425 13.0306 8.9547 13.0306 10.4861 13.0397C10.7609 13.0306 11.0281 13.066 11.2952 13.1347C11.8802 13.3332 12.1306 13.8751 11.8968 14.4427C11.6907 14.9326 11.3639 15.3545 11.0357 15.7757C9.9088 17.212 8.78261 18.6394 7.65365 20.0591C7.5572 20.1743 7.47185 20.2853 7.33446 20.4747C8.63412 20.4747 9.85537 20.465 11.069 20.4747C11.7483 20.4837 12.1175 20.7675 12.1882 21.3095C12.266 21.9888 11.8704 22.4454 11.1301 22.453ZM19.4131 21.5156C19.4131 21.9631 19.1195 22.3586 18.6984 22.4884C18.2681 22.6515 17.7783 22.5238 17.4938 22.1526C17.3473 21.9721 17.2877 21.9368 17.0823 22.1005C16.2989 22.7368 15.4135 22.8485 14.458 22.5384C12.9265 22.0395 12.2993 20.8439 12.1265 19.3909C11.9468 17.8171 12.47 16.4751 13.882 15.6494C15.0519 14.9534 16.2378 15.0124 17.314 15.9498C17.5201 15.6827 17.7352 15.4343 18.0877 15.3656C18.7671 15.2282 19.404 15.666 19.4131 16.3544C19.4387 18.0752 19.4297 19.7954 19.4131 21.5156ZM22.5182 21.4302C22.5273 22.0408 22.045 22.5495 21.4344 22.5661C21.3303 22.5661 21.2186 22.5571 21.1152 22.5307C20.6843 22.4197 20.3575 21.9631 20.3575 21.4212V14.5822C20.3575 14.1776 20.3484 13.7821 20.3575 13.3776C20.3672 12.7149 20.7884 12.2847 21.4247 12.2847C22.0783 12.275 22.5182 12.7059 22.5182 13.3942C22.5273 14.7383 22.5182 16.0893 22.5182 17.4306C22.5182 18.7719 22.5273 20.0979 22.5182 21.4302ZM27.2672 22.6945C25.0218 22.9186 23.2399 21.2928 23.2753 19.1418C23.2066 16.9317 24.6596 15.2802 26.7253 15.2185C28.9187 15.1498 30.5188 16.6215 30.5875 18.7712C30.6562 20.948 29.3233 22.4863 27.2672 22.6945Z" fill="white"/>
</svg>
